<svg xmlns="http://www.w3.org/2000/svg" viewBox="0 0 100 100"><defs><style>.cls-1{fill:#ff6010;}.cls-2{fill:#fff;fill-rule:evenodd;}</style></defs><title>amc renewalAsset 8</title><g id="Layer_2" data-name="Layer 2"><g id="Layer_1-2" data-name="Layer 1"><circle class="cls-1" cx="50" cy="50" r="50"/><path class="cls-2" d="M72.75,56.31h-6.1l7.64-12.73,7.64,12.74H80.86c-1.21,0-2.41,0-3.62,0-.58,0-.76.19-.91.72a26.62,26.62,0,0,1-15.77,18.1A27.17,27.17,0,0,1,25.61,62.27c-.58-1.16-.36-2.12.59-2.63a1.94,1.94,0,0,1,2.65,1A23.12,23.12,0,0,0,40.13,71.53,23.73,23.73,0,0,0,72.62,56.86C72.66,56.72,72.69,56.58,72.75,56.31Z"/><path class="cls-2" d="M25.68,56.43,18.07,43.75c.31,0,.53-.06.74-.06,1.33,0,2.66,0,4,0a.68.68,0,0,0,.81-.61,26.79,26.79,0,0,1,14-17.41A27.25,27.25,0,0,1,74.45,37.92a1.74,1.74,0,0,1-.61,2.39,1.89,1.89,0,0,1-2.49-.57,4.62,4.62,0,0,1-.28-.48C66.16,30.4,58.65,26,48.52,26.42A23.65,23.65,0,0,0,27.39,43c-.06.19-.1.4-.18.71h6.11Z"/></g></g></svg>