<svg xmlns="http://www.w3.org/2000/svg" viewBox="0 0 13.56 13.1"><defs><style>.cls-1{fill:#ff6010;}</style></defs><title>digilockerAsset 2</title><g id="Layer_2" data-name="Layer 2"><g id="Layer_1-2" data-name="Layer 1"><path class="cls-1" d="M1.83,3.66h0A1.84,1.84,0,0,1,0,1.83H0A1.83,1.83,0,0,1,1.83,0h0A1.84,1.84,0,0,1,3.66,1.83h0A1.84,1.84,0,0,1,1.83,3.66Z"/><path class="cls-1" d="M1.83,8.38h0A1.84,1.84,0,0,1,0,6.55H0A1.83,1.83,0,0,1,1.83,4.72h0A1.84,1.84,0,0,1,3.66,6.55h0A1.84,1.84,0,0,1,1.83,8.38Z"/><path class="cls-1" d="M1.83,13.1h0A1.83,1.83,0,0,1,0,11.27H0A1.84,1.84,0,0,1,1.83,9.44h0a1.84,1.84,0,0,1,1.83,1.83h0A1.84,1.84,0,0,1,1.83,13.1Z"/><path class="cls-1" d="M6.78,3.66h0A1.84,1.84,0,0,1,5,1.83H5A1.83,1.83,0,0,1,6.78,0h0A1.84,1.84,0,0,1,8.61,1.83h0A1.84,1.84,0,0,1,6.78,3.66Z"/><path class="cls-1" d="M6.78,8.38h0A1.84,1.84,0,0,1,5,6.55H5A1.83,1.83,0,0,1,6.78,4.72h0A1.84,1.84,0,0,1,8.61,6.55h0A1.84,1.84,0,0,1,6.78,8.38Z"/><path class="cls-1" d="M6.78,13.1h0A1.83,1.83,0,0,1,5,11.27H5A1.84,1.84,0,0,1,6.78,9.44h0a1.84,1.84,0,0,1,1.83,1.83h0A1.84,1.84,0,0,1,6.78,13.1Z"/><path class="cls-1" d="M11.73,3.66h0A1.84,1.84,0,0,1,9.9,1.83h0A1.83,1.83,0,0,1,11.73,0h0a1.84,1.84,0,0,1,1.83,1.83h0A1.84,1.84,0,0,1,11.73,3.66Z"/><path class="cls-1" d="M11.73,8.38h0A1.84,1.84,0,0,1,9.9,6.55h0a1.83,1.83,0,0,1,1.83-1.83h0a1.84,1.84,0,0,1,1.83,1.83h0A1.84,1.84,0,0,1,11.73,8.38Z"/><path class="cls-1" d="M11.73,13.1h0A1.83,1.83,0,0,1,9.9,11.27h0a1.84,1.84,0,0,1,1.83-1.83h0a1.84,1.84,0,0,1,1.83,1.83h0A1.84,1.84,0,0,1,11.73,13.1Z"/></g></g></svg>