<svg xmlns="http://www.w3.org/2000/svg" viewBox="0 0 16.03 19.32"><defs><style>.cls-1{fill:#ff6010;}</style></defs><title>serviceAsset 14</title><g id="Layer_2" data-name="Layer 2"><g id="Layer_1-2" data-name="Layer 1"><path class="cls-1" d="M2.24,7.55h7.9a.35.35,0,0,0,.35-.35.35.35,0,0,0-.35-.35H2.24a.36.36,0,0,0-.36.35A.35.35,0,0,0,2.24,7.55Zm0-2h7.9a.36.36,0,0,0,0-.71H2.24a.36.36,0,1,0,0,.71ZM8.62,9a.35.35,0,0,0-.35-.35h-6a.36.36,0,1,0,0,.71h6A.36.36,0,0,0,8.62,9ZM5.69,10.4H2.24a.35.35,0,0,0-.36.35.36.36,0,0,0,.36.35H5.69A.35.35,0,0,0,6,10.75.35.35,0,0,0,5.69,10.4ZM4.53,12.17H2.24a.35.35,0,1,0,0,.7H4.53a.35.35,0,0,0,0-.7Zm9.29,1.72a2.24,2.24,0,0,0-4.33-.75H9.33a1.62,1.62,0,0,0-1.61,1.62,1.41,1.41,0,0,0,1.55,1.43h4.06A1.19,1.19,0,0,0,14.53,15,1.22,1.22,0,0,0,13.82,13.89Zm-.49,1.59H9.27a.74.74,0,0,1-.85-.73.91.91,0,0,1,.91-.91.71.71,0,0,1,.29.05.37.37,0,0,0,.29,0,.38.38,0,0,0,.17-.24,1.53,1.53,0,0,1,3,.33v.16a.35.35,0,0,0,.29.39.49.49,0,0,1,.43.49A.49.49,0,0,1,13.33,15.48Zm-.95-5.8v-6a.36.36,0,0,0-.11-.25L9,.1A.39.39,0,0,0,8.73,0H.35A.35.35,0,0,0,0,.35V16.46a.35.35,0,0,0,.35.35h6.5a4.9,4.9,0,1,0,5.53-7.13ZM6.53,16.1H.7V.7H8.37v3A.36.36,0,0,0,8.73,4h2.94V9.54a4.91,4.91,0,0,0-5.45,4.87A4.7,4.7,0,0,0,6.53,16.1Zm4.59,2.52a4.21,4.21,0,1,1,4.21-4.21A4.21,4.21,0,0,1,11.12,18.62Z"/></g></g></svg>