<svg xmlns="http://www.w3.org/2000/svg" viewBox="0 0 100 100"><defs><style>.cls-1{fill:#ff6010;}.cls-2{fill:#fff;}</style></defs><title>digilockerAsset 9</title><g id="Layer_2" data-name="Layer 2"><g id="Layer_1-2" data-name="Layer 1"><circle class="cls-1" cx="50" cy="50" r="50"/><path class="cls-2" d="M31.19,43.15H56.92a1.15,1.15,0,0,0,0-2.29H31.19a1.15,1.15,0,0,0,0,2.29Zm0-6.44H56.92a1.15,1.15,0,0,0,0-2.29H31.19a1.15,1.15,0,0,0,0,2.29ZM52,47.77a1.15,1.15,0,0,0-1.15-1.14H31.19a1.14,1.14,0,0,0,0,2.28H50.82A1.15,1.15,0,0,0,52,47.77ZM42.44,52.4H31.19a1.14,1.14,0,0,0,0,2.28H42.44a1.14,1.14,0,0,0,0-2.28Zm-3.78,5.77H31.19a1.14,1.14,0,1,0,0,2.28h7.47a1.14,1.14,0,0,0,0-2.28Zm30.22,5.61A7.28,7.28,0,0,0,54.8,61.34a4.41,4.41,0,0,0-.52,0A5.26,5.26,0,0,0,49,66.56c0,2.8,2,4.67,5,4.67H67.31a3.89,3.89,0,0,0,1.57-7.45ZM67.31,69H54.08c-.83,0-2.76-.24-2.76-2.39a3,3,0,0,1,3-3,3.09,3.09,0,0,1,.95.15,1.12,1.12,0,0,0,.93-.09,1.17,1.17,0,0,0,.55-.75,5,5,0,0,1,9.89,1,4.89,4.89,0,0,1,0,.54,1.15,1.15,0,0,0,1,1.26,1.61,1.61,0,0,1-.23,3.2ZM64.19,50.06V30.54a1.13,1.13,0,0,0-.33-.81L53.13,18.9a1.19,1.19,0,0,0-.81-.34H25.06a1.15,1.15,0,0,0-1.14,1.15V72.12a1.14,1.14,0,0,0,1.14,1.14H46.2a16,16,0,1,0,18-23.2ZM45.16,71H26.21V20.85h25v9.69a1.14,1.14,0,0,0,1.15,1.14h9.59V49.62a17.55,17.55,0,0,0-1.79-.11,16,16,0,0,0-16,16A15.75,15.75,0,0,0,45.16,71Zm15,8.17A13.68,13.68,0,1,1,73.79,65.47,13.69,13.69,0,0,1,60.12,79.15Z"/></g></g></svg>