<svg xmlns="http://www.w3.org/2000/svg" viewBox="0 0 14.91 14.56"><defs><style>.cls-1{fill:#8e8e8e;}</style></defs><title>feedbackAsset 7</title><g id="Layer_2" data-name="Layer 2"><g id="Layer_1-2" data-name="Layer 1"><path class="cls-1" d="M14,10.34a2,2,0,0,1-1.88,1.28H6.54L3.59,14.45a.37.37,0,0,1-.27.11.33.33,0,0,1-.14,0A.36.36,0,0,1,3,14.17V11.62H2a2,2,0,0,1-2-2V3.46a2,2,0,0,1,2-2H8.19a.37.37,0,0,1,.37.37.38.38,0,0,1-.37.37H2A1.29,1.29,0,0,0,.76,3.46V9.6A1.29,1.29,0,0,0,2,10.88h1.3a.38.38,0,0,1,.37.37v2.06L6.14,11a.36.36,0,0,1,.26-.11h5.7a1.29,1.29,0,0,0,1.19-.8.39.39,0,0,1,.5-.22A.38.38,0,0,1,14,10.34Z"/><path class="cls-1" d="M14.91,4.48v.06L14.37,8a1.54,1.54,0,0,1-1.69,1.38h-4a1.41,1.41,0,0,1-1-.38.74.74,0,0,1-.43.14H5.89a.7.7,0,0,1-.7-.7V4.17a.7.7,0,0,1,.7-.71H7.24a.65.65,0,0,1,.51.23c.15,0,1.46-.45,1.46-1.61V.44A.37.37,0,0,1,9.48.09,1.7,1.7,0,0,1,11,.28a1.68,1.68,0,0,1,.6,1.44V3h1.88A1.45,1.45,0,0,1,14.91,4.48Z"/></g></g></svg>