<svg xmlns="http://www.w3.org/2000/svg" viewBox="0 0 14.81 9.79"><defs><style>.cls-1{fill:#fff;}</style></defs><title>menuAsset 3</title><g id="Layer_2" data-name="Layer 2"><g id="Layer_1-2" data-name="Layer 1"><rect class="cls-1" x="4.07" y="4.59" width="10.49" height="0.91" rx="0.4" ry="0.4"/><path class="cls-1" d="M.43,8.81h14a.42.42,0,0,1,.42.42v.13a.42.42,0,0,1-.42.42H.43A.43.43,0,0,1,0,9.36V9.24A.43.43,0,0,1,.43,8.81Z"/><path class="cls-1" d="M2.42,2.23c.15-.14.26-.09.26.11V7.15c0,.21-.11.25-.26.11L.17,5a.39.39,0,0,1,0-.53Z"/><path class="cls-1" d="M.44,0H14.37a.43.43,0,0,1,.43.43V.59a.43.43,0,0,1-.43.43H.44A.44.44,0,0,1,0,.59V.44A.44.44,0,0,1,.44,0Z"/></g></g></svg>