<svg xmlns="http://www.w3.org/2000/svg" viewBox="0 0 100 100"><defs><style>.cls-1{fill:#ff6010;}.cls-2{fill:#fff;}</style></defs><title>service requestAsset 7</title><g id="Layer_2" data-name="Layer 2"><g id="Layer_1-2" data-name="Layer 1"><circle class="cls-1" cx="50" cy="50" r="50"/><path class="cls-2" d="M78.06,36.25,73.4,31.58a6,6,0,0,0-8.47,0,2.75,2.75,0,0,0-.22.26l-6,7.74a6,6,0,0,0,.15,8.3L63.89,53c.45.45,1.26,1.12,1.88,1.62-2.91,6.23-8.8,9.51-11.59,10.62a5.66,5.66,0,0,0-1.07-1.46L48,58.67a6,6,0,0,0-8.26-.17l-7.93,5.81a3.07,3.07,0,0,0-.34.29,6,6,0,0,0,0,8.45l4.88,4.88c1.7,1.69,6.36,1.88,8.29,1.88a35,35,0,0,0,4.71-.32,35.68,35.68,0,0,0,20.53-10.2c7.9-7.9,10.1-15.79,10.56-21C81,42.16,79.38,37.56,78.06,36.25ZM77.69,48c-.41,4.76-2.44,12-9.76,19.29A32.76,32.76,0,0,1,44.67,77c-4,0-6-.72-6.32-1.06l-4.88-4.88a3.19,3.19,0,0,1,0-4.52l8-5.86.14-.11a3.19,3.19,0,0,1,4.44.06l5.08,5.08.27.31-4.13,1.09a1.4,1.4,0,0,0,.36,2.75,1.49,1.49,0,0,0,.36,0l5.71-1.52h0c2.23-.55,10.72-4.18,14.62-12.61a1.26,1.26,0,0,0,.41-.5l2.81-6.14A1.39,1.39,0,1,0,69,47.9L67.1,52.09c-.48-.4-1-.81-1.24-1.08l-5.08-5.08a3.2,3.2,0,0,1-.05-4.46l.09-.11,6.1-7.8a3.2,3.2,0,0,1,4.51,0l4.66,4.66C76.57,38.7,78.18,42.36,77.69,48Z"/><path class="cls-2" d="M22.22,49.6A26.61,26.61,0,0,1,63.71,27.53a1.39,1.39,0,1,0,1.56-2.31,29.41,29.41,0,0,0-40,42,1.42,1.42,0,0,0,1.12.56,1.37,1.37,0,0,0,.83-.29,1.39,1.39,0,0,0,.28-2A26.39,26.39,0,0,1,22.22,49.6Z"/><path class="cls-2" d="M49,32.07a1.39,1.39,0,0,0-1.39,1.4V47.36l-9.38-4.61A1.39,1.39,0,1,0,37,45.25l11.39,5.6A1.43,1.43,0,0,0,49,51a1.41,1.41,0,0,0,.74-.21,1.38,1.38,0,0,0,.66-1.18V33.47A1.4,1.4,0,0,0,49,32.07Z"/><path class="cls-2" d="M50.43,26.4a1.4,1.4,0,1,0-2.79,0V27a1.4,1.4,0,1,0,2.79,0Z"/><path class="cls-2" d="M26.65,48h-.59a1.4,1.4,0,1,0,0,2.79h.59a1.4,1.4,0,1,0,0-2.79Z"/><path class="cls-2" d="M31.8,32.14a1.38,1.38,0,0,0,0,2l.42.43a1.4,1.4,0,0,0,2-2l-.42-.42A1.4,1.4,0,0,0,31.8,32.14Z"/></g></g></svg>