<svg xmlns="http://www.w3.org/2000/svg" viewBox="0 0 16.58 16.48"><defs><style>.cls-1{fill:#ff6010;}</style></defs><title>serviceAsset 13</title><g id="Layer_2" data-name="Layer 2"><g id="Layer_1-2" data-name="Layer 1"><path class="cls-1" d="M5.55,3.89,7.2,5.54l.31-.31L5.86,3.58c-.07-.06,0-.28,0-.28l-1.12-1-.44.44,1,1.11S5.5,3.84,5.55,3.89Z"/><path class="cls-1" d="M9.57,6.52,8.48,7.6,10.84,10a.49.49,0,0,0,.69,0h0l.38-.38a.5.5,0,0,0,0-.7h0Z"/><path class="cls-1" d="M11.09,4.25a.65.65,0,0,1-.93,0,.66.66,0,0,1,0-.94l1-1a1.7,1.7,0,0,0-.73-.17A1.86,1.86,0,0,0,8.62,4a1.86,1.86,0,0,0,.17.73L4.49,9a.66.66,0,0,0,0,.94.65.65,0,0,0,.93,0l4.3-4.31a1.71,1.71,0,0,0,.74.17A1.85,1.85,0,0,0,12.3,4a1.87,1.87,0,0,0-.18-.74Z"/><path class="cls-1" d="M14,0H2.55A2.55,2.55,0,0,0,0,2.55v7.66a2.55,2.55,0,0,0,2.55,2.55H6.63l3.56,3.5a.7.7,0,0,0,.51.22.72.72,0,0,0,.28-.07.56.56,0,0,0,.29-.56l-.08-3.09H14a2.55,2.55,0,0,0,2.55-2.55V2.55A2.55,2.55,0,0,0,14,0Zm1.7,10.21a1.7,1.7,0,0,1-1.7,1.7H10.75a.42.42,0,0,0-.43.42h0l.08,2.93L7.1,12a.41.41,0,0,0-.3-.12H2.55a1.7,1.7,0,0,1-1.7-1.7V2.55A1.7,1.7,0,0,1,2.55.85H14a1.7,1.7,0,0,1,1.7,1.7Z"/></g></g></svg>