<svg xmlns="http://www.w3.org/2000/svg" viewBox="0 0 18.93 10.11"><defs><style>.cls-1{fill:#ff6010;}</style></defs><title>ticketAsset 12</title><g id="Layer_2" data-name="Layer 2"><g id="Layer_1-2" data-name="Layer 1"><path class="cls-1" d="M17.78,5.05a1.21,1.21,0,0,1,1.15-1.2V3.17a1.21,1.21,0,0,1,0-2.42V0H0V.75A1.22,1.22,0,0,1,1.15,2,1.22,1.22,0,0,1,0,3.17v.68a1.21,1.21,0,0,1,1.15,1.2A1.21,1.21,0,0,1,0,6.26v.68A1.21,1.21,0,0,1,1.15,8.15,1.21,1.21,0,0,1,0,9.35v.76H18.93V9.35a1.21,1.21,0,0,1,0-2.41V6.26A1.21,1.21,0,0,1,17.78,5.05ZM16.52,7.4l-.21,0A1.3,1.3,0,0,0,15,8.68a2.11,2.11,0,0,0,0,.25H3.85a1.34,1.34,0,0,0,.06-.4,1.3,1.3,0,0,0-1.3-1.3.75.75,0,0,0-.21,0V2.71h.21a1.3,1.3,0,0,0,1.3-1.29,2,2,0,0,0,0-.25H15.08a1.34,1.34,0,0,0-.06.4,1.3,1.3,0,0,0,1.29,1.3l.21,0V7.4ZM13.68,3.93H5.25V3.38h8.43Zm0,2.79H5.25V6.18h8.43Z"/></g></g></svg>