<?xml version="1.0" encoding="utf-8"?>
<!-- Generator: Adobe Illustrator 22.0.1, SVG Export Plug-In . SVG Version: 6.00 Build 0)  -->
<svg version="1.1" id="Layer_1" xmlns="http://www.w3.org/2000/svg" xmlns:xlink="http://www.w3.org/1999/xlink" x="0px" y="0px"
	 viewBox="0 0 60.5 60.5" style="enable-background:new 0 0 60.5 60.5;" xml:space="preserve">
<style type="text/css">
	.st0{fill:#1FB53C;}
</style>
<title>googleAsset 1</title>
<g id="Layer_2_1_">
	<g id="Layer_1-2">
		<path class="st0" d="M30.3,60.5C13.5,60.5,0,47,0,30.3S13.5,0,30.3,0s30.3,13.5,30.3,30.3S47,60.5,30.3,60.5z M22.3,30.3l4.8,6.5
			L38.1,18c0.8-1.2,2.3-1.5,3.5-0.7c1.1,0.7,1.4,2.1,0.8,3.3l-13,22c-0.7,1.2-2.2,1.6-3.4,0.9c-0.3-0.2-0.6-0.4-0.8-0.7l-7-9.5
			c-0.8-1.1-0.6-2.7,0.5-3.5S21.4,29.1,22.3,30.3L22.3,30.3z M30.3,56C44.5,56,56,44.5,56,30.3S44.5,4.5,30.3,4.5S4.5,16,4.5,30.3
			S16,56,30.3,56z"/>
	</g>
</g>
</svg>
