<svg xmlns="http://www.w3.org/2000/svg" viewBox="0 0 46 32.76"><defs><style>.cls-1{fill:#ff6010;}</style></defs><title>customer-referralAsset 4</title><g id="Layer_2" data-name="Layer 2"><g id="Layer_1-2" data-name="Layer 1"><path class="cls-1" d="M42.63,14.18a4,4,0,0,0-1.68.41h0l-9.79,4.7a3,3,0,0,0-2.84-1.77h0l-5.62.17A12.63,12.63,0,0,1,19,17a16.7,16.7,0,0,0-5.05-.8,21.06,21.06,0,0,0-6.15,1.21V16.16a1.1,1.1,0,0,0-.08-.4,1.13,1.13,0,0,0-.23-.34,1.11,1.11,0,0,0-.34-.22.9.9,0,0,0-.4-.08H1.05a.9.9,0,0,0-.4.08,1,1,0,0,0-.34.22,1,1,0,0,0-.23.34,1.1,1.1,0,0,0-.08.4V31.71a1.06,1.06,0,0,0,.08.4,1,1,0,0,0,.23.34,1,1,0,0,0,.34.23,1.06,1.06,0,0,0,.4.08H6.71a1.06,1.06,0,0,0,.4-.08,1.08,1.08,0,0,0,.57-.57,1.06,1.06,0,0,0,.08-.4V30.37c6.88-1.21,11,.86,17.17.86h0a10,10,0,0,0,4.31-1.5c1.69-.87,3.61-2,5.56-3.3,3.89-2.51,7.88-5.38,10-6.78h0a2.84,2.84,0,0,0,1.22-2,3.06,3.06,0,0,0-.54-2.1,3.39,3.39,0,0,0-2.81-1.38Zm.14,2a1.07,1.07,0,0,1,.95.53,1,1,0,0,1,.18.67.6.6,0,0,1-.32.49h0c-2.13,1.45-6.09,4.29-9.92,6.76-1.91,1.24-3.8,2.38-5.38,3.2a11.31,11.31,0,0,1-3.35,1.27h0c-5.61,0-10-2.07-17.17-.89v-.9a1.1,1.1,0,0,0-.08-.4,1.15,1.15,0,0,0-.22-.35,1.41,1.41,0,0,0-.35-.23,1.06,1.06,0,0,0-.4-.08,1.1,1.1,0,0,0-.4.08A1.36,1.36,0,0,0,6,26.6a1,1,0,0,0-.23.35.92.92,0,0,0-.07.4v3.32H5.14V17.21h.53v3.3a1,1,0,0,0,.07.41,1.08,1.08,0,0,0,.57.57.92.92,0,0,0,.4.08.9.9,0,0,0,.4-.08,1,1,0,0,0,.35-.23,1.11,1.11,0,0,0,.22-.34,1.15,1.15,0,0,0,.08-.41v-.9a22.5,22.5,0,0,1,6.15-1.34,14.67,14.67,0,0,1,4.47.71,14.65,14.65,0,0,0,4.33.8h0l5.64-.18h0a.88.88,0,0,1,.92.79c0,.4-.37.77-1,.79h0l-10.74.46a1.12,1.12,0,0,0-.4.1.88.88,0,0,0-.33.24,1,1,0,0,0-.22.35.93.93,0,0,0-.06.4,1.06,1.06,0,0,0,.09.4,1,1,0,0,0,.25.33,1,1,0,0,0,.35.22,1.13,1.13,0,0,0,.41.05l10.73-.46h0a3.19,3.19,0,0,0,2.68-1.62l10.78-5.18h0a2.05,2.05,0,0,1,.91-.25Zm-40.68,1h1V30.67h-1V17.21Z"/><path class="cls-1" d="M25.77,6.53a1.3,1.3,0,0,0-.39.09,1,1,0,0,0-.34.23,1.24,1.24,0,0,0-.22.34.94.94,0,0,0-.07.4v2.5h-2.5a.89.89,0,0,0-.4.07,1,1,0,0,0-.35.23.89.89,0,0,0-.23.34,1.1,1.1,0,0,0-.08.4,1.15,1.15,0,0,0,.08.41,1.08,1.08,0,0,0,.23.34,1,1,0,0,0,.35.22.9.9,0,0,0,.4.08h2.5v2.49a1,1,0,0,0,.07.41,1.08,1.08,0,0,0,.23.34.89.89,0,0,0,.34.23,1,1,0,0,0,.8,0,.89.89,0,0,0,.34-.23,1.08,1.08,0,0,0,.23-.34,1.15,1.15,0,0,0,.08-.41V12.18h2.49a.9.9,0,0,0,.4-.08,1,1,0,0,0,.35-.22,1.08,1.08,0,0,0,.23-.34,1,1,0,0,0,.08-.41.92.92,0,0,0-.08-.4.89.89,0,0,0-.23-.34,1,1,0,0,0-.35-.23,1.05,1.05,0,0,0-.4-.07H26.84V7.59a1.06,1.06,0,0,0-.08-.4,1,1,0,0,0-.58-.58,1.15,1.15,0,0,0-.41-.08Z"/><path class="cls-1" d="M30.05,0a.93.93,0,0,0-.4.09.94.94,0,0,0-.33.23,1.13,1.13,0,0,0-.23.34,1.09,1.09,0,0,0-.07.4v1H28a1.09,1.09,0,0,0-.4.07,1,1,0,0,0-.35.23A1,1,0,0,0,27,2.7a1.14,1.14,0,0,0-.08.4,1.15,1.15,0,0,0,.08.41,1,1,0,0,0,.23.34,1.18,1.18,0,0,0,.35.23,1.09,1.09,0,0,0,.4.07h1v1a1.15,1.15,0,0,0,.08.41,1.24,1.24,0,0,0,.22.34,1.08,1.08,0,0,0,.34.23,1.07,1.07,0,0,0,.81,0,1,1,0,0,0,.34-.23A1.27,1.27,0,0,0,31,5.55a1.14,1.14,0,0,0,.07-.41v-1h1a1.14,1.14,0,0,0,.41-.07,1.18,1.18,0,0,0,.35-.23,1.36,1.36,0,0,0,.23-.34,1.15,1.15,0,0,0,.08-.41,1.14,1.14,0,0,0-.08-.4,1.36,1.36,0,0,0-.23-.34,1,1,0,0,0-.35-.23,1.14,1.14,0,0,0-.41-.07h-1v-1A1,1,0,0,0,31,.65a1,1,0,0,0-.22-.34,1,1,0,0,0-.35-.23A1,1,0,0,0,30.05,0Z"/><path class="cls-1" d="M21.5,0a.93.93,0,0,0-.4.09,1,1,0,0,0-.34.23,1.11,1.11,0,0,0-.22.34,1.09,1.09,0,0,0-.07.4v1h-1a1.05,1.05,0,0,0-.4.07,1,1,0,0,0-.35.23,1,1,0,0,0-.23.34,1,1,0,0,0-.08.4,1,1,0,0,0,.31.75,1.18,1.18,0,0,0,.35.23,1.05,1.05,0,0,0,.4.07h1v1a1,1,0,0,0,.08.41,1,1,0,0,0,.22.34,1,1,0,0,0,.34.23,1.07,1.07,0,0,0,.81,0,1,1,0,0,0,.34-.23,1,1,0,0,0,.22-.34,1,1,0,0,0,.08-.41v-1h1A1.14,1.14,0,0,0,24,4.08a1,1,0,0,0,.34-.23,1.16,1.16,0,0,0,.24-.34,1.15,1.15,0,0,0,.08-.41,1.14,1.14,0,0,0-.08-.4,1.16,1.16,0,0,0-.24-.34A.89.89,0,0,0,24,2.13a1.14,1.14,0,0,0-.41-.07h-1v-1a1,1,0,0,0-.08-.41.89.89,0,0,0-.23-.34.89.89,0,0,0-.34-.23A1,1,0,0,0,21.5,0Z"/></g></g></svg>