<svg xmlns="http://www.w3.org/2000/svg" viewBox="0 0 45.98 41.29"><defs><style>.cls-1{fill:#ff6010;}.cls-2{fill:#fff;}</style></defs><title>customer-engagementAsset 3</title><g id="Layer_2" data-name="Layer 2"><g id="Layer_1-2" data-name="Layer 1"><path class="cls-1" d="M23,19a7.77,7.77,0,1,0,7.73,7.74A7.82,7.82,0,0,0,23,19Z"/><path class="cls-1" d="M18.87,31.64a4.49,4.49,0,0,1,8.23,0A6.55,6.55,0,0,1,23,33.2,6.54,6.54,0,0,1,18.87,31.64Z"/><path class="cls-2" d="M28.17,30.51a5.9,5.9,0,0,0-5.18-3,6,6,0,0,0-5.18,3,6.22,6.22,0,0,1-1.21-3.69,6.35,6.35,0,0,1,12.7,0A6.67,6.67,0,0,1,28.17,30.51Z"/><circle class="cls-1" cx="22.99" cy="24.26" r="3.12"/><circle class="cls-1" cx="22.99" cy="24.26" r="1.7"/><path class="cls-1" d="M45.34,24.05H41.22a.67.67,0,0,0-.71.71v1.35H38.38v-8A2.14,2.14,0,0,0,36.25,16H31.5V9.58h6.81v1.35a.68.68,0,0,0,.71.71h4.12a.68.68,0,0,0,.71-.71V6.81a.68.68,0,0,0-.71-.71H39a.68.68,0,0,0-.71.71V8.16H30.79a.67.67,0,0,0-.71.71V16h-6.6V5.39a2.66,2.66,0,0,0,2.06-2.62A2.78,2.78,0,0,0,22.77,0,2.72,2.72,0,0,0,20,2.77a2.66,2.66,0,0,0,2,2.62v10.5H15.75V8.8A.67.67,0,0,0,15,8.09H7.52V6.74A.67.67,0,0,0,6.81,6H2.7A.67.67,0,0,0,2,6.74v4.11a.67.67,0,0,0,.71.71H6.81a.67.67,0,0,0,.71-.71V9.51h6.81v6.38H9.79A2.14,2.14,0,0,0,7.66,18v8H5.39A2.66,2.66,0,0,0,2.77,24,2.78,2.78,0,0,0,0,26.75a2.7,2.7,0,0,0,.78,1.91,2.59,2.59,0,0,0,3,.57,2.8,2.8,0,0,0,1.63-1.84H7.66v8.72H4.82a.62.62,0,0,0-.56.29.65.65,0,0,0-.15.63l1,3.76a.7.7,0,0,0,.71.5H40.09a.76.76,0,0,0,.7-.5l1-3.76a.71.71,0,0,0-.14-.63.88.88,0,0,0-.57-.29H38.31V27.53h2.13v1.35a.67.67,0,0,0,.71.71h4.11a.67.67,0,0,0,.71-.71V24.76A.58.58,0,0,0,45.34,24.05ZM39.8,7.52h2.7v2.7H39.8ZM21.43,2.77a1.35,1.35,0,1,1,1.34,1.34A1.38,1.38,0,0,1,21.43,2.77ZM6.1,10.22H3.41V7.52H6.1ZM3.19,28a1.32,1.32,0,0,1-1.84-1.2A1.35,1.35,0,0,1,2.7,25.47,1.39,1.39,0,0,1,4,26.82,1.24,1.24,0,0,1,3.19,28Zm36.4,12H6.39l-.64-2.34H40.16ZM9,36.25V18.09a.72.72,0,0,1,.71-.71H36.18a.71.71,0,0,1,.71.71V36.25Zm35.62-8.08h-2.7v-2.7h2.7Z"/></g></g></svg>