<svg xmlns="http://www.w3.org/2000/svg" viewBox="0 0 50 34.35"><defs><style>.cls-1{fill:#ff6010;}</style></defs><title>customer-satisfactionAsset 2</title><g id="Layer_2" data-name="Layer 2"><g id="Layer_1-2" data-name="Layer 1"><path class="cls-1" d="M41,11.23a1.14,1.14,0,1,1-1.14,1.14A1.15,1.15,0,0,1,41,11.23Z"/><path class="cls-1" d="M44.33,11.23a1.14,1.14,0,1,1-1.14,1.14A1.14,1.14,0,0,1,44.33,11.23Z"/><path class="cls-1" d="M5.67,11.23a1.14,1.14,0,1,1-1.15,1.14A1.15,1.15,0,0,1,5.67,11.23Z"/><path class="cls-1" d="M9,11.23a1.14,1.14,0,1,1-1.14,1.14A1.15,1.15,0,0,1,9,11.23Z"/><path class="cls-1" d="M23.22,4.73a1.15,1.15,0,1,1-1.14,1.15A1.15,1.15,0,0,1,23.22,4.73Z"/><path class="cls-1" d="M26.54,4.73A1.15,1.15,0,1,1,25.4,5.88,1.15,1.15,0,0,1,26.54,4.73Z"/><path class="cls-1" d="M27.69,30.66l-2.6-6.55-2.4,6.38h0a2.72,2.72,0,0,0,4.41,3A2.7,2.7,0,0,0,27.69,30.66Z"/><path class="cls-1" d="M25.13,18.58a13.07,13.07,0,0,0-13,13.07.9.9,0,0,0,1.8,0,11.32,11.32,0,0,1,.56-3.51l2.73,1c.09-.28.19-.56.31-.84l-2.73-1A11.23,11.23,0,0,1,17.89,23l1.79,2.31c.22-.19.46-.38.7-.55l-1.77-2.31A11.11,11.11,0,0,1,24.7,20.4v2.92l.43,0,.47,0V20.4a11.14,11.14,0,0,1,6,2.06l-1.77,2.31c.24.17.48.35.71.55L32.35,23a11.33,11.33,0,0,1,3.16,4.27l-2.73,1a7.67,7.67,0,0,1,.32.84l2.72-1a11.16,11.16,0,0,1,.58,3.53.9.9,0,0,0,1.8,0A13.08,13.08,0,0,0,25.13,18.58Z"/><path class="cls-1" d="M42.66,21.91A7.34,7.34,0,1,1,50,14.58a7.33,7.33,0,0,1-7.34,7.33ZM42.66,9a5.58,5.58,0,1,0,5.58,5.58A5.57,5.57,0,0,0,42.66,9Z"/><path class="cls-1" d="M42.67,18.41a3.84,3.84,0,0,1-3.84-3.84h1.51a2.33,2.33,0,1,0,4.65,0H46.5a3.84,3.84,0,0,1-3.83,3.84Z"/><path class="cls-1" d="M7.33,21.91a7.34,7.34,0,1,1,7.33-7.33,7.34,7.34,0,0,1-7.33,7.33ZM7.33,9a5.58,5.58,0,1,0,5.57,5.58A5.58,5.58,0,0,0,7.33,9Z"/><path class="cls-1" d="M11.17,17.74H9.65c0-.88-1.06-1.63-2.32-1.63S5,16.86,5,17.74H3.49c0-1.73,1.73-3.14,3.84-3.14s3.84,1.41,3.84,3.14Z"/><path class="cls-1" d="M24.94,14.66a7.33,7.33,0,1,1,7.34-7.33,7.34,7.34,0,0,1-7.34,7.33Zm0-12.9a5.57,5.57,0,1,0,5.58,5.57,5.58,5.58,0,0,0-5.58-5.57Z"/><polygon class="cls-1" points="26.66 10.26 23.03 10.26 23.03 8.74 26.66 8.74 26.66 10.26"/></g></g></svg>