<svg xmlns="http://www.w3.org/2000/svg" xmlns:xlink="http://www.w3.org/1999/xlink" viewBox="0 0 46.46 46.46"><defs><style>.cls-1{fill:url(#linear-gradient);}.cls-2{fill:#0077b5;}</style><linearGradient id="linear-gradient" x1="25.68" y1="20.37" x2="25.71" y2="20.37" gradientUnits="userSpaceOnUse"><stop offset="0" stop-color="#fc4a1a"/><stop offset="0.16" stop-color="#fc531c"/><stop offset="0.41" stop-color="#fb6a21"/><stop offset="0.73" stop-color="#f9912a"/><stop offset="1" stop-color="#f7b733"/></linearGradient></defs><title>Asset 4</title><g id="Layer_2" data-name="Layer 2"><g id="Layer_1-2" data-name="Layer 1"><path class="cls-1" d="M25.71,20.4v-.06l0,.06Z"/><path class="cls-2" d="M23.23,0A23.23,23.23,0,1,0,46.46,23.23,23.23,23.23,0,0,0,23.23,0ZM17.09,34.68H11.54V18h5.55Zm-2.77-19h0a2.89,2.89,0,1,1,.07-5.77,2.89,2.89,0,1,1,0,5.77Zm22.79,19H31.56V25.74c0-2.24-.8-3.77-2.81-3.77a3,3,0,0,0-2.85,2,3.67,3.67,0,0,0-.19,1.35v9.33H20.16s.08-15.14,0-16.7h5.55v2.36a5.54,5.54,0,0,1,5-2.76c3.65,0,6.39,2.39,6.39,7.52Z"/></g></g></svg>