<svg xmlns="http://www.w3.org/2000/svg" viewBox="0 0 45.65 45.65"><defs><style>.cls-1{fill:#1da1f2;}</style></defs><title>Asset 1</title><g id="Layer_2" data-name="Layer 2"><g id="Layer_1-2" data-name="Layer 1"><path class="cls-1" d="M22.82,0A22.83,22.83,0,1,0,45.65,22.82,22.82,22.82,0,0,0,22.82,0ZM34.18,17.7l0,.73A16,16,0,0,1,9.6,31.89a11.63,11.63,0,0,0,1.34.08,11.29,11.29,0,0,0,7-2.4,5.66,5.66,0,0,1-5.25-3.91,5.36,5.36,0,0,0,1.06.1,5.94,5.94,0,0,0,1.48-.19,5.62,5.62,0,0,1-4.5-5.51V20a5.57,5.57,0,0,0,2.54.7,5.62,5.62,0,0,1-1.74-7.5,15.93,15.93,0,0,0,11.58,5.87,6,6,0,0,1-.14-1.28,5.62,5.62,0,0,1,9.72-3.84,11.61,11.61,0,0,0,3.57-1.37,5.59,5.59,0,0,1-2.47,3.11A11.36,11.36,0,0,0,37,14.8,11.56,11.56,0,0,1,34.18,17.7Z"/></g></g></svg>