<?xml version="1.0" encoding="utf-8"?>
<!-- Generator: Adobe Illustrator 22.0.1, SVG Export Plug-In . SVG Version: 6.00 Build 0)  -->
<svg version="1.1" id="Layer_1" xmlns="http://www.w3.org/2000/svg" xmlns:xlink="http://www.w3.org/1999/xlink" x="0px" y="0px"
	 viewBox="0 0 120 120" style="enable-background:new 0 0 120 120;" xml:space="preserve">
<style type="text/css">
	.st0{fill:none;stroke:#FC7F2B;}
	.st1{fill:#FF6010;}
</style>
<circle class="st0" cx="60" cy="60" r="59.5"/>
<g>
	<path class="st1" d="M67.6,54.4c-0.5-0.4-1.1-0.3-1.5,0.2l-6.6,8.1l-4.3-3.6c-0.5-0.4-1.1-0.3-1.5,0.1c-0.4,0.5-0.3,1.1,0.1,1.5
		L59,65c0.2,0.2,0.5,0.3,0.8,0.2c0.3,0,0.6-0.2,0.7-0.4l7.3-9C68.1,55.5,68.1,54.8,67.6,54.4z"/>
	<path class="st1" d="M60.1,41C49.5,41,41,49.5,41,60.1c0,10.6,8.6,19.1,19.1,19.1c10.6,0,19.1-8.6,19.1-19.1S70.6,41,60.1,41z
		 M60.1,77c-9.3,0-16.9-7.6-16.9-16.9s7.6-16.9,16.9-16.9c9.3,0,16.9,7.6,16.9,16.9S69.4,77,60.1,77z"/>
	<path class="st1" d="M85.9,67.3l-1.2-4.9c-0.2-0.7-0.3-1.7-0.3-2.6c0-0.9,0.1-1.8,0.2-2.5l1.2-4.9l0,0c0.1-0.3,0.1-0.7,0.1-1
		c0-0.9-0.2-1.8-0.6-2.5c-0.4-0.8-1-1.5-1.8-1.9l-4.3-2.6c-0.6-0.3-1.3-0.9-2-1.6c-0.7-0.7-1.3-1.4-1.6-2l-2.7-4.3
		c-0.5-0.8-1.2-1.3-1.9-1.7c-0.8-0.4-1.6-0.6-2.5-0.6c-0.4,0-0.7,0-1.1,0.1l-4.9,1.2c-0.7,0.2-1.7,0.3-2.6,0.3
		c-0.9,0-1.8-0.1-2.5-0.2l-4.9-1.2c-0.3-0.1-0.7-0.1-1-0.1c-0.9,0-1.8,0.2-2.5,0.6c-0.8,0.4-1.5,1-1.9,1.8l-2.6,4.3
		c-0.3,0.6-0.9,1.3-1.6,2c-0.7,0.7-1.4,1.3-2,1.6l-4.3,2.7c-0.8,0.5-1.3,1.2-1.7,1.9c-0.4,0.8-0.6,1.6-0.6,2.5c0,0.4,0,0.7,0.1,1.1
		l1.2,4.9c0.2,0.7,0.3,1.7,0.3,2.6c0,0.9-0.1,1.8-0.2,2.5l-1.2,4.9l0,0c-0.1,0.3-0.1,0.7-0.1,1c0,0.9,0.2,1.8,0.6,2.5
		c0.4,0.8,1,1.5,1.8,1.9l4.3,2.6c0.6,0.3,1.3,0.9,2,1.6c0.7,0.7,1.3,1.4,1.6,2l2.7,4.3c0.5,0.8,1.2,1.3,1.9,1.7
		c0.8,0.4,1.6,0.6,2.5,0.6c0.4,0,0.7,0,1.1-0.1l4.9-1.2c0.7-0.2,1.7-0.3,2.6-0.3c0.9,0,1.8,0.1,2.5,0.2l4.9,1.2
		c0.3,0.1,0.7,0.1,1,0.1c0.9,0,1.8-0.2,2.5-0.6c0.8-0.4,1.5-1,1.9-1.8l2.6-4.3c0.3-0.6,0.9-1.3,1.6-2c0.7-0.7,1.4-1.3,2-1.6l4.3-2.7
		c0.8-0.5,1.3-1.2,1.7-1.9c0.4-0.8,0.6-1.6,0.6-2.5C86,68,85.9,67.3,85.9,67.3z M83.5,69.9c-0.2,0.5-0.6,0.9-1,1.1l-4.3,2.7
		c-0.8,0.5-1.6,1.2-2.4,2c-0.8,0.8-1.4,1.6-1.9,2.4l-2.6,4.3c-0.2,0.4-0.6,0.7-1.1,1c-0.5,0.3-1,0.4-1.5,0.4c-0.2,0-0.4,0-0.5-0.1
		l-4.9-1.2c-0.9-0.2-1.9-0.3-3-0.3c-1.1,0-2.2,0.1-3.2,0.3l-4.9,1.2c-0.2,0-0.4,0.1-0.6,0.1c-0.5,0-1-0.1-1.5-0.4
		c-0.5-0.2-0.9-0.6-1.1-1l-2.7-4.3c-0.5-0.8-1.2-1.6-2-2.4c-0.8-0.8-1.6-1.5-2.4-1.9l-4.3-2.6c-0.4-0.2-0.7-0.6-1-1.1
		c-0.3-0.5-0.4-1-0.4-1.5c0-0.2,0-0.4,0.1-0.5v0l1.2-4.9c0.2-0.9,0.3-1.9,0.3-2.9c0-1.1-0.1-2.2-0.3-3.2l-1.2-4.9
		c0-0.2-0.1-0.4-0.1-0.6c0-0.5,0.1-1,0.4-1.5c0.2-0.5,0.6-0.9,1-1.1l4.3-2.7c0.8-0.5,1.6-1.2,2.4-2c0.8-0.8,1.4-1.6,1.9-2.4l2.6-4.3
		c0.2-0.4,0.6-0.7,1.1-1c0.5-0.3,1-0.4,1.5-0.4c0.2,0,0.4,0,0.5,0.1l4.9,1.2c0.9,0.2,1.9,0.3,2.9,0.3c1.1,0,2.2-0.1,3.2-0.3l4.9-1.2
		c0.2,0,0.4-0.1,0.6-0.1c0.5,0,1,0.1,1.5,0.4c0.5,0.2,0.9,0.6,1.1,1l2.7,4.3c0.5,0.8,1.2,1.6,2,2.4c0.8,0.8,1.6,1.4,2.4,1.9l4.3,2.6
		c0.4,0.2,0.7,0.6,1,1.1c0.3,0.5,0.4,1,0.4,1.5c0,0.2,0,0.4-0.1,0.5v0l-1.2,4.9c-0.2,0.9-0.3,1.9-0.3,2.9c0,1.1,0.1,2.2,0.3,3.2
		l1.2,4.9h0c0,0.2,0.1,0.4,0.1,0.6C83.8,68.9,83.7,69.4,83.5,69.9z"/>
</g>
</svg>
