<?xml version="1.0" encoding="utf-8"?>
<!-- Generator: Adobe Illustrator 22.0.1, SVG Export Plug-In . SVG Version: 6.00 Build 0)  -->
<svg version="1.1" id="Layer_1" xmlns="http://www.w3.org/2000/svg" xmlns:xlink="http://www.w3.org/1999/xlink" x="0px" y="0px"
	 viewBox="0 0 120 120" style="enable-background:new 0 0 120 120;" xml:space="preserve">
<style type="text/css">
	.st0{fill:#FF6010;}
	.st1{fill:none;stroke:#FC7F2B;}
</style>
<g>
	<g>
		<path class="st0" d="M44.2,44.3H37c-0.4,0-0.8-0.3-1-0.6c-0.2-0.4-0.1-0.8,0.2-1.1l7.1-7.1c0.3-0.3,0.7-0.4,1.1-0.2
			c0.4,0.2,0.6,0.5,0.6,1v7.1C45.2,43.9,44.8,44.3,44.2,44.3z M39.5,42.2h3.6v-3.6L39.5,42.2z"/>
	</g>
	<g>
		<path class="st0" d="M70.6,84.9h-5c-0.6,0-1-0.5-1-1v-4c-0.6-0.2-1.1-0.4-1.6-0.7L60.1,82c-0.4,0.4-1.1,0.4-1.5,0l-3.5-3.5
			c-0.4-0.4-0.4-1.1,0-1.5l2.8-2.8c-0.3-0.5-0.5-1.1-0.7-1.6h-4c-0.6,0-1-0.5-1-1v-5c0-0.6,0.5-1,1-1h4c0.2-0.6,0.4-1.1,0.7-1.6
			L55.1,61c-0.4-0.4-0.4-1.1,0-1.5l3.5-3.5c0.2-0.2,0.5-0.3,0.7-0.3l0,0c0.3,0,0.5,0.1,0.7,0.3l2.8,2.8c0.5-0.3,1.1-0.5,1.6-0.7v-4
			c0-0.6,0.5-1,1-1h5c0.6,0,1,0.5,1,1v4c0.6,0.2,1.1,0.4,1.6,0.7l2.8-2.8c0.4-0.4,1.1-0.4,1.5,0l3.5,3.5c0.4,0.4,0.4,1.1,0,1.5
			l-2.8,2.8c0.3,0.5,0.5,1.1,0.7,1.6h4c0.6,0,1,0.5,1,1v5c0,0.6-0.5,1-1,1h-4c-0.2,0.6-0.4,1.1-0.7,1.6l2.8,2.8
			c0.4,0.4,0.4,1.1,0,1.5L77.6,82c-0.4,0.4-1.1,0.4-1.5,0l-2.8-2.8c-0.5,0.3-1.1,0.5-1.6,0.7v4C71.7,84.4,71.2,84.9,70.6,84.9z
			 M66.6,82.8h2.9v-3.7c0-0.5,0.3-0.9,0.8-1c0.9-0.2,1.8-0.6,2.6-1.1c0.4-0.2,0.9-0.2,1.3,0.2l2.6,2.6l2.1-2.1l-2.6-2.6
			c-0.3-0.3-0.4-0.9-0.2-1.3c0.5-0.8,0.8-1.7,1.1-2.6c0.1-0.5,0.5-0.8,1-0.8h3.7v-2.9h-3.7c-0.5,0-0.9-0.3-1-0.8
			c-0.2-0.9-0.6-1.8-1.1-2.6c-0.2-0.4-0.2-0.9,0.2-1.3l2.6-2.6l-2.1-2.1l-2.6,2.6c-0.3,0.3-0.9,0.4-1.3,0.2
			c-0.8-0.5-1.7-0.8-2.6-1.1c-0.5-0.1-0.8-0.5-0.8-1v-3.7h-2.9v3.7c0,0.5-0.3,0.9-0.8,1c-0.9,0.2-1.8,0.6-2.6,1.1
			c-0.4,0.2-0.9,0.2-1.3-0.2l-2.6-2.6l-2.1,2.1l2.6,2.6c0.3,0.3,0.4,0.9,0.2,1.3c-0.5,0.8-0.8,1.7-1.1,2.6c-0.1,0.5-0.5,0.8-1,0.8
			h-3.7v2.9H58c0.5,0,0.9,0.3,1,0.8c0.2,0.9,0.6,1.8,1.1,2.6c0.2,0.4,0.2,0.9-0.2,1.3l-2.6,2.6l2.1,2.1l2.6-2.6
			c0.3-0.3,0.9-0.4,1.3-0.2c0.8,0.5,1.7,0.8,2.6,1.1c0.5,0.1,0.8,0.5,0.8,1V82.8z"/>
	</g>
	<g>
		<g>
			<path class="st0" d="M56,79H37c-0.6,0-1-0.5-1-1V43.3c0-0.3,0.1-0.5,0.3-0.7l7.1-7.1c0.2-0.2,0.5-0.3,0.7-0.3h23.9
				c0.6,0,1,0.5,1,1v18c0,0.6-0.5,1-1,1h-1.5v3.7c0,0.5-0.3,0.9-0.8,1c-0.9,0.2-1.8,0.6-2.6,1.1c-0.4,0.2-0.9,0.2-1.3-0.2l-2.6-2.6
				l-2.1,2.1l2.6,2.6c0.3,0.3,0.4,0.9,0.2,1.3c-0.5,0.8-0.8,1.7-1.1,2.6c-0.1,0.5-0.5,0.8-1,0.8h-3.7v2.9l3.7,0c0.5,0,0.9,0.3,1,0.8
				c0.2,0.9,0.6,1.8,1.1,2.6c0.2,0.4,0.2,0.9-0.2,1.3L57.1,78c0,0.1,0,0.2-0.1,0.3C56.8,78.7,56.4,79,56,79z M38.1,76.9h17.2
				l2.7-2.7c-0.3-0.5-0.5-1.1-0.7-1.6l-4,0c-0.6,0-1-0.5-1-1v-5c0-0.6,0.5-1,1-1h4c0.2-0.6,0.4-1.1,0.7-1.6L55.1,61
				c-0.4-0.4-0.4-1.1,0-1.5l3.5-3.5c0.2-0.2,0.5-0.3,0.7-0.3l0,0c0.3,0,0.5,0.1,0.7,0.3l2.8,2.8c0.5-0.3,1.1-0.5,1.6-0.7v-4
				c0-0.6,0.5-1,1-1h1.5v-16H44.6l-6.5,6.5V76.9z"/>
		</g>
		<g>
			<path class="st0" d="M62.8,79c-0.4,0-0.8-0.3-1-0.6c-0.2-0.4-0.1-0.8,0.2-1.1l0,0c0.3-0.3,0.8-0.4,1.2-0.2
				c0.4,0.2,0.7,0.7,0.6,1.2S63.3,79,62.8,79z M63.5,78.6L63.5,78.6L63.5,78.6z"/>
		</g>
	</g>
	<g>
		<path class="st0" d="M68.1,75.6c-3.6,0-6.6-3-6.6-6.6c0-3.6,3-6.6,6.6-6.6c3.6,0,6.6,3,6.6,6.6C74.7,72.7,71.8,75.6,68.1,75.6z
			 M68.1,64.5c-2.5,0-4.5,2-4.5,4.5c0,2.5,2,4.5,4.5,4.5c2.5,0,4.5-2,4.5-4.5C72.7,66.5,70.6,64.5,68.1,64.5z"/>
	</g>
	<g>
		<path class="st0" d="M47.4,52.3h-5.2c-0.6,0-1-0.5-1-1c0-0.6,0.5-1,1-1h5.2c0.6,0,1,0.5,1,1C48.5,51.8,48,52.3,47.4,52.3z"/>
	</g>
	<g>
		<path class="st0" d="M47.4,58.5h-5.2c-0.6,0-1-0.5-1-1c0-0.6,0.5-1,1-1h5.2c0.6,0,1,0.5,1,1C48.5,58.1,48,58.5,47.4,58.5z"/>
	</g>
	<g>
		<path class="st0" d="M47.4,64.8h-5.2c-0.6,0-1-0.5-1-1c0-0.6,0.5-1,1-1h5.2c0.6,0,1,0.5,1,1C48.5,64.3,48,64.8,47.4,64.8z"/>
	</g>
	<g>
		<path class="st0" d="M47.4,71h-5.2c-0.6,0-1-0.5-1-1s0.5-1,1-1h5.2c0.6,0,1,0.5,1,1S48,71,47.4,71z"/>
	</g>
</g>
<circle class="st1" cx="60" cy="60" r="59.5"/>
</svg>
