<svg xmlns="http://www.w3.org/2000/svg" viewBox="0 0 428 64"><defs><style>.cls-1{fill:#ea4235;}.cls-2,.cls-3{fill:#fff;}.cls-3{font-size:25px;font-family:Montserrat-Light, Montserrat;}.cls-4{letter-spacing:-0.02em;}</style></defs><title>Asset 6</title><g id="Layer_2" data-name="Layer 2"><g id="Layer_1-2" data-name="Layer 1"><rect class="cls-1" width="428" height="64" rx="23" ry="23"/><path class="cls-2" d="M44.81,10A22.39,22.39,0,1,0,67.19,32.34,22.39,22.39,0,0,0,44.81,10Zm9.56,30.54C51.31,44.44,45.64,45.6,41,44.05a12.39,12.39,0,1,1,12.28-21c-1,1.11-2,2.21-3.14,3.24C48,25,45.39,24,42.86,24.86a7.81,7.81,0,1,0,5.26,14.7,6.86,6.86,0,0,0,4-4.68c-2.36-.05-4.73,0-7.09-.09,0-1.4,0-2.8,0-4.21,3.94,0,7.89,0,11.84,0C57.12,34,56.61,37.73,54.37,40.49Z"/><text class="cls-3" transform="translate(95 42.67)"><tspan class="cls-4">C</tspan><tspan x="17.08" y="0">ontinue with Google</tspan></text></g></g></svg>