<svg xmlns="http://www.w3.org/2000/svg" viewBox="0 0 247.99 251.77"><defs><style>.cls-1{fill:#fec9a3;}.cls-2{fill:#fabd91;}.cls-3{fill:#f7cb4f;}.cls-4{fill:#fff;}.cls-5{fill:#e1e6e7;}.cls-6{fill:#4f80ff;}.cls-7{fill:#2a59c4;}.cls-8{fill:#fbab00;}.cls-9{fill:#183651;}</style></defs><title>companionAsset 4</title><g id="Layer_2" data-name="Layer 2"><g id="Layer_1-2" data-name="Layer 1"><path class="cls-1" d="M243.86,243.86V194.6a16.52,16.52,0,0,0-7.05-13.54L205.73,159.3a12.39,12.39,0,0,0-7.11-2.24h-25l.42,70.72a17.26,17.26,0,0,0,12,16.08Z"/><path class="cls-2" d="M219.06,243.86H190.13a16.54,16.54,0,0,1-16.54-16.53V210.79h28.94Z"/><path class="cls-3" d="M111.6,33.07a20.45,20.45,0,0,0-8.27,1.74V4.13H28.93a24.8,24.8,0,0,0-24.8,24.8v74.4H34.81a20.66,20.66,0,1,1,37.84,0h30.68V72.66a20.67,20.67,0,0,0,16.61-37.85A20.45,20.45,0,0,0,111.6,33.07Z"/><path class="cls-4" d="M202.53,28.93a24.8,24.8,0,0,0-24.8-24.8h-74.4V34.81a20.66,20.66,0,1,1,0,37.84v30.68H134a20.67,20.67,0,1,0,37.85,0h30.67V28.93Z"/><path class="cls-5" d="M202.53,31.29c-23.63,32.87-66.28,51.54-99.2,61.59v10.45H134a20.66,20.66,0,1,0,37.84,0h30.68v-72Z"/><path class="cls-4" d="M95.06,136.4a20.45,20.45,0,0,1,8.27,1.74V103.33H72.65a20.66,20.66,0,1,0-37.84,0H4.13v74.4a24.8,24.8,0,0,0,24.8,24.8h74.4V176a20.67,20.67,0,1,1-8.27-39.59Z"/><path class="cls-5" d="M4.13,177.73a24.8,24.8,0,0,0,24.8,24.8h74.4V176A20.58,20.58,0,0,1,74.47,157.8,180.78,180.78,0,0,1,4.13,173.44Z"/><path class="cls-6" d="M213.33,189.71l-26.15-69.85-28.72,10.82A20.69,20.69,0,1,1,123,144L94.32,154.84l12.23,32.69a20.5,20.5,0,0,0-8.35,1.27,20.73,20.73,0,0,0,14.53,38.82,20.48,20.48,0,0,0,7.13-4.56L129.19,248l69.65-26.23A24.89,24.89,0,0,0,213.33,189.71Z"/><path class="cls-7" d="M199.85,153.69c-28.52,42.66-82,57.55-113.3,62.68a20.52,20.52,0,0,0,33.31,6.69L129.19,248l69.65-26.23a24.9,24.9,0,0,0,14.49-32Z"/><path class="cls-8" d="M111.6,33.07a20.45,20.45,0,0,0-8.27,1.74v-6C72.38,57.3,30.45,73,4.13,80.7v22.63H34.81a20.66,20.66,0,1,1,37.84,0h30.68V72.66a20.67,20.67,0,0,0,16.61-37.85A20.45,20.45,0,0,0,111.6,33.07Z"/><path class="cls-1" d="M194.33,190.2a10.23,10.23,0,0,0-14.61,14.32l.15.15,14.39,14.39a24.8,24.8,0,0,0,24.8,24.8h24.8v-4.13Z"/><path class="cls-9" d="M95.06,131.92a24.8,24.8,0,0,0-9.92,47.53l3.31-7.57a16.53,16.53,0,1,1,13.23-30.3,4.12,4.12,0,0,0,5.78-3.78V107.46h21a23.94,23.94,0,0,0-.35,4.14A24.87,24.87,0,0,0,148,135.9l1.65-8.1A16.5,16.5,0,0,1,137.79,105a4.12,4.12,0,0,0-2.14-5.44A4,4,0,0,0,134,99.2H107.46v-21a23.94,23.94,0,0,0,4.14.35,24.8,24.8,0,0,0,0-49.6h0a25,25,0,0,0-4.14.35v-21h70.27a20.68,20.68,0,0,1,20.66,20.66V99.2H171.85a4.13,4.13,0,0,0-4.13,4.13,4.06,4.06,0,0,0,.34,1.65,16.42,16.42,0,0,1,1.4,6.62h8.27a25,25,0,0,0-.35-4.14h25.15a4.13,4.13,0,0,0,4.13-4.13V28.93A29,29,0,0,0,177.73,0H28.93A29,29,0,0,0,0,28.93V177.38a29,29,0,0,0,28.93,28.94H74.4v-8.27H28.93A20.68,20.68,0,0,1,8.27,177.38V107.46H34.81a4.44,4.44,0,0,0,4.11-4.76,4.34,4.34,0,0,0-.32-1.37,16.53,16.53,0,1,1,30.27,0,4.29,4.29,0,0,0,2,5.72,4.38,4.38,0,0,0,1.77.42H99.2v24.8A23,23,0,0,0,95.06,131.92ZM28.93,8.27H99.2V34.81a4.13,4.13,0,0,0,4.13,4.13A4.24,4.24,0,0,0,105,38.6a16.26,16.26,0,0,1,6.62-1.4A16.53,16.53,0,1,1,105,68.87a4.12,4.12,0,0,0-5.78,3.78v26.2h-21a25.28,25.28,0,0,0,.32-3.79v-.34a24.8,24.8,0,0,0-49.6,0v.34a25.28,25.28,0,0,0,.32,3.79h-21V28.93A20.67,20.67,0,0,1,28.93,8.27Z"/><path class="cls-9" d="M239.15,177.65,204.4,153.73l-13.34-35.66a4.13,4.13,0,0,0-5.32-2.43l-.23.09-26.86,11.88a4.14,4.14,0,0,0-2.19,5.26c.44,1.16.86,2,1.3,2.94a29.2,29.2,0,0,1,1.36,3.11,16.54,16.54,0,1,1-32,5,4.13,4.13,0,0,0-3.91-4.35,4.2,4.2,0,0,0-1.68.26L92.84,150.62a4.13,4.13,0,0,0-2.41,5.32l10.31,27.53a23.13,23.13,0,0,0-4,1.11,24.85,24.85,0,1,0,21.18,44.77l7.39,19.74a4.13,4.13,0,0,0,5.32,2.42h0l41-15.43a22.22,22.22,0,0,0,13.09,11.69l2.61-7.86a14,14,0,0,1-7.9-6.75l12.46-4.69a28.85,28.85,0,0,0,27.22,19.18v-8.27a20.8,20.8,0,0,1-20.67-20.66,4.09,4.09,0,0,0-1.21-2.92l-14.39-14.4a6.13,6.13,0,0,1-.56-8,6,6,0,0,1,4.44-2.42,5.9,5.9,0,0,1,4.74,1.77l28.86,28.86,5.85-5.84-8.54-8.54a28.89,28.89,0,0,0-.37-19.33l-7.75-20.68,25,17.2a12.43,12.43,0,0,1,5.29,10.15V248H248V194.6A20.71,20.71,0,0,0,239.15,177.65Zm-28.48,22.7-13.41-13.41A14.36,14.36,0,1,0,176.69,207l.26.26L190,220.32l-58.41,22-7.88-21a4.12,4.12,0,0,0-3-2.58,3.88,3.88,0,0,0-.9-.1,4.11,4.11,0,0,0-2.89,1.18,16.54,16.54,0,0,1-22.71-24,16.33,16.33,0,0,1,5.4-3.41,15.46,15.46,0,0,1,4.09-.92,14,14,0,0,1,2.59-.09,4.13,4.13,0,0,0,4.34-3.91,4.32,4.32,0,0,0-.25-1.67l-10.8-28.82,19.68-7.41a24.81,24.81,0,0,0,29,19.68,25.5,25.5,0,0,0,4-1.14,24.91,24.91,0,0,0,14.49-32c-.38-1-.72-1.82-1.05-2.54l19-8.42,24.64,65.76A20.7,20.7,0,0,1,210.67,200.35Z"/></g></g></svg>