<svg xmlns="http://www.w3.org/2000/svg" viewBox="0 0 224.3 223.61"><defs><style>.cls-1{fill:#4f80ff;}.cls-2{fill:#2ca0da;}.cls-3{fill:#183651;}.cls-4{fill:#fff;}.cls-5{fill:#f7cb4f;}.cls-6{fill:#e1e6e7;}.cls-7{fill:#173651;}</style></defs><title>connectAsset 3</title><g id="Layer_2" data-name="Layer 2"><g id="Layer_1-2" data-name="Layer 1"><circle class="cls-1" cx="111.8" cy="111.8" r="111.8"/><path class="cls-2" d="M212.08,185.87l-25.86-14.32-25.85,14.32a15,15,0,0,0-7.69,13.28v20.61h67.43V199.15A15.32,15.32,0,0,0,212.08,185.87Z"/><path class="cls-3" d="M220.11,223.61H152.68a3.3,3.3,0,0,1-3.49-3.5V199.5A18.54,18.54,0,0,1,159,183.08l25.85-14.33a3.18,3.18,0,0,1,3.5,0l25.85,14.33A18.55,18.55,0,0,1,224,199.5v20.61A4.45,4.45,0,0,1,220.11,223.61Zm-63.94-7h60.45V199.5a11.61,11.61,0,0,0-5.94-10.13l-24.11-13.28-24.11,13.28a11.33,11.33,0,0,0-5.94,10.13v17.12Z"/><path class="cls-4" d="M220.11,202.64v-3.49a15.28,15.28,0,0,0-7.68-13.28l-25.86-14.32-25.85,14.32A15,15,0,0,0,153,199.15v3.49"/><path class="cls-3" d="M220.11,206.14a3.3,3.3,0,0,1-3.49-3.5v-3.49A11.61,11.61,0,0,0,210.68,189l-24.11-13.28L162.46,189a11.33,11.33,0,0,0-5.94,10.13v3.49a3.49,3.49,0,1,1-7,0v-3.49a18.54,18.54,0,0,1,9.78-16.42l25.85-14.33a3.22,3.22,0,0,1,3.5,0l25.85,14.33a18.54,18.54,0,0,1,9.78,16.42v3.49A4.75,4.75,0,0,1,220.11,206.14Z"/><path class="cls-4" d="M203.34,156.52c0,11.53-7.68,24.46-17.12,24.46s-17.12-12.93-17.12-24.46,7.69-17.12,17.12-17.12S203.34,145,203.34,156.52Z"/><path class="cls-3" d="M186.22,184.48c-11.88,0-20.61-14.68-20.61-28,0-12.57,8.38-20.61,20.61-20.61s20.62,8.39,20.62,20.61C206.84,169.8,198.1,184.48,186.22,184.48Zm0-41.58c-8.38,0-13.62,5.24-13.62,13.62,0,10.49,6.63,21,13.62,21,6.64,0,13.63-10.48,13.63-21C199.85,147.79,194.61,142.9,186.22,142.9Z"/><path class="cls-2" d="M63.24,185.87,37.38,171.55,11.53,185.87a15,15,0,0,0-7.69,13.28v20.61H71.27V199.15A16,16,0,0,0,63.24,185.87Z"/><path class="cls-3" d="M70.93,223.61H3.49A3.3,3.3,0,0,1,0,220.11V199.5a18.54,18.54,0,0,1,9.78-16.42l25.86-14.33a3.16,3.16,0,0,1,3.49,0L65,183.08a18.56,18.56,0,0,1,9.78,16.42v20.61A4.11,4.11,0,0,1,70.93,223.61ZM7,216.62H67.43V199.5a11.59,11.59,0,0,0-5.94-10.13L37.38,176.09l-24.1,13.28A11.31,11.31,0,0,0,7.34,199.5v17.12Z"/><path class="cls-4" d="M70.93,202.64v-3.49a15.29,15.29,0,0,0-7.69-13.28L37.38,171.55,11.53,185.87a15,15,0,0,0-7.69,13.28v3.49"/><path class="cls-3" d="M70.93,206.14a3.31,3.31,0,0,1-3.5-3.5v-3.49A11.59,11.59,0,0,0,61.49,189L37.38,175.74,13.28,189a11.31,11.31,0,0,0-5.94,10.13v3.49a3.31,3.31,0,0,1-3.5,3.5,3.3,3.3,0,0,1-3.49-3.5v-3.49a18.54,18.54,0,0,1,9.78-16.42L36,168.4a3.2,3.2,0,0,1,3.49,0l25.85,14.33a18.55,18.55,0,0,1,9.79,16.42v3.49C74.42,204.74,73,206.14,70.93,206.14Z"/><path class="cls-4" d="M54.15,156.52C54.15,168.05,46.47,181,37,181s-17.12-12.93-17.12-24.46S27.6,139.4,37,139.4,54.15,145,54.15,156.52Z"/><path class="cls-3" d="M37.38,184.48c-11.88,0-20.61-14.68-20.61-28,0-12.57,8.39-20.61,20.61-20.61S58,144.3,58,156.52C57.65,169.8,48.91,184.48,37.38,184.48Zm0-41.58c-8.38,0-13.62,5.24-13.62,13.62,0,10.49,6.64,21,13.62,21S51,167,51,156.52C50.66,147.79,45.77,142.9,37.38,142.9Z"/><path class="cls-5" d="M159.32,189.72v30.39H66.73V189.72c0-10.83,9.09-19.57,20.62-19.92,5.94,8.39,15.37,14,25.85,14s19.57-5.24,25.85-14C150.24,170.15,159.32,178.89,159.32,189.72Z"/><path class="cls-3" d="M159.32,223.61H66.73a3.3,3.3,0,0,1-3.49-3.5V189.72c0-12.58,10.48-22.71,23.76-23.41a3.4,3.4,0,0,1,3.14,1.4,27.54,27.54,0,0,0,45.77,0,3.4,3.4,0,0,1,3.14-1.4c13.28.7,23.76,10.83,23.76,23.41v30.39A3.3,3.3,0,0,1,159.32,223.61Zm-89.09-7h85.6v-26.9c0-8.39-6.64-15-15.38-16.42-7,8.73-16.77,13.62-27.25,13.62A34.26,34.26,0,0,1,86,173.3c-8.74,1-15.37,8-15.37,16.42v26.9Z"/><path class="cls-4" d="M79.31,207.54V189.72c0-2.45,1.4-4.2,3.49-5.59a42.91,42.91,0,0,0,30.05,12.22,43.83,43.83,0,0,0,30.05-12.22,7.09,7.09,0,0,1,3.49,5.59v17.82Z"/><ellipse class="cls-4" cx="113.2" cy="133.81" rx="24.81" ry="31.1"/><path class="cls-3" d="M113.2,168.4c-15.37,0-28.3-15.72-28.3-34.59s12.58-34.58,28.3-34.58,28.3,15.72,28.3,34.58S128.57,168.4,113.2,168.4Zm0-62.19c-11.53,0-21.31,12.58-21.31,27.6,0,15.38,9.43,27.61,21.31,27.61s21.31-12.58,21.31-27.61C134.16,118.44,124.73,106.21,113.2,106.21Z"/><path class="cls-6" d="M140.1,111.8c-1.39-11.53-23.75-21.31-43-12.22C91.89,102,87,105.86,86.3,111.8c0,0-7.69,4.89,2.79,26.56,0,0-2.44-5.24,5.24-10.83,0,0-3.49-10.14,6.29-10.14,0,0,8,4.2,12.93,3.15,4.89.7,12.93-3.15,12.93-3.15,9.78,0,6.29,10.14,6.29,10.14,7.68,5.24,5.24,10.83,5.24,10.83C147.79,116.69,140.1,111.8,140.1,111.8Z"/><path class="cls-3" d="M88.74,142.2a3.36,3.36,0,0,1-3.14-2.1c-9.08-19.21-5.24-27.25-2.8-30,4.9-22.71,55.21-23.06,60.45,0,2.44,2.79,6.29,10.83-2.8,30a3.44,3.44,0,0,1-6.29-2.79c0-.35.7-3.15-3.84-6.64a3.81,3.81,0,0,1-1.4-4.19c.35-1,.7-3.5,0-4.54-.35-.7-1.39-.7-2.09-1-2.45,1-9.09,3.84-13.63,3.14-4.89.7-11.18-2.09-13.63-3.14a2.49,2.49,0,0,0-2.09,1c-.7,1-.35,3.49,0,4.54a3.48,3.48,0,0,1-1.4,4.19c-4.19,2.8-4.19,5.59-4.19,6.29a2.62,2.62,0,0,1,.35,1.75A3.76,3.76,0,0,1,88.74,142.2ZM113.2,99.58c-9.08,0-22.36,4.54-23.41,12.57a3,3,0,0,1-1.4,2.45c-1,.7-2.44,4.89.35,13.28.35-.7,1.05-1,1.75-1.75a12.6,12.6,0,0,1,1.4-8.39c1-1.74,3.84-3.84,8.73-3.84a3.81,3.81,0,0,1,1.75.35c1.75,1,7.69,3.49,10.83,2.79h1.4c3.14.7,9.08-2.09,10.83-2.79a2.62,2.62,0,0,1,1.75-.35c4.89,0,7.33,2.1,8.73,3.84a12.31,12.31,0,0,1,1.4,8.39l1.74,1.75c2.45-8.39,1-12.58,0-13.28a3.57,3.57,0,0,1-1.39-2.45C135.56,104.47,122.63,99.58,113.2,99.58Z"/><path class="cls-6" d="M202.64,3.49H134.16V45.77a17.3,17.3,0,0,0,17.47,17.47H173.3L207.19,86.3V63.24h12.92V21A17.52,17.52,0,0,0,202.64,3.49Z"/><path class="cls-3" d="M205.09,89.09,172.25,66.73H151.63a21,21,0,0,1-21-21V3.49A3.3,3.3,0,0,1,134.16,0h68.48a21,21,0,0,1,21,21V63.24a3.3,3.3,0,0,1-3.5,3.49h-9.43V86.3a3.66,3.66,0,0,1-1.75,3.14A4.79,4.79,0,0,1,205.09,89.09ZM137.66,7V45.77a14,14,0,0,0,14,14H173.3a5.1,5.1,0,0,1,2.09.69l28.3,19.22V63.24a3.3,3.3,0,0,1,3.5-3.49h9.43V21a14,14,0,0,0-14-14Z"/><path class="cls-4" d="M177.49,49.26H151.63a3.3,3.3,0,0,1-3.49-3.49V17.47h54.5a3.3,3.3,0,0,1,3.5,3.49v28.3H193.21V59.75Z"/><path class="cls-6" d="M25.85,3.49h87.7V57.65A22.51,22.51,0,0,1,91.19,80H63.59L20.26,109.36V80H3.49V25.85A22.53,22.53,0,0,1,25.85,3.49Z"/><path class="cls-3" d="M18.52,112.5a3.66,3.66,0,0,1-1.75-3.14V83.5H3.49A3.3,3.3,0,0,1,0,80V25.85A25.79,25.79,0,0,1,25.85,0h87.7A3.3,3.3,0,0,1,117,3.49V57.65A25.79,25.79,0,0,1,91.19,83.5H64.64L22,112.15A2.68,2.68,0,0,1,18.52,112.5ZM7,76.52H20.26A3.3,3.3,0,0,1,23.76,80v22.71L61.84,76.87a5,5,0,0,1,2.1-.7h27.6A18.8,18.8,0,0,0,110.41,57.3V7H25.85A18.78,18.78,0,0,0,7,25.85Z"/><path class="cls-4" d="M34.24,66H17.47V25.85a8.5,8.5,0,0,1,8.38-8.38H99.58V57.65A8.5,8.5,0,0,1,91.19,66H59.4L34.24,83.15V66Z"/><rect class="cls-3" x="156.17" y="30.4" width="6.99" height="6.99"/><rect class="cls-3" x="173.64" y="30.4" width="6.99" height="6.99"/><rect class="cls-3" x="191.11" y="30.4" width="6.99" height="6.99"/><rect class="cls-3" x="55.2" y="37.38" width="6.99" height="6.99"/><rect class="cls-3" x="77.56" y="37.38" width="6.99" height="6.99"/><path class="cls-7" d="M38.08,46.82H33.19V44.37c0-1,0-2.09.35-2.44a4.67,4.67,0,0,1,1.75-2.1l3.14-3.14a3.38,3.38,0,0,0,0-4.9,3.2,3.2,0,0,0-2.44-1,4,4,0,0,0-2.8,1,5.64,5.64,0,0,0-1.4,2.45H26.9a10.52,10.52,0,0,1,2.8-5.94A9.72,9.72,0,0,1,36,26.2a8.22,8.22,0,0,1,5.94,2.1,7.62,7.62,0,0,1,2.44,5.59A5.56,5.56,0,0,1,43,38.08c-.69.7-1,1.05-1,1.4l-1,1.05-1.05,1-.7.7a5,5,0,0,0-.7,2.44v2.1ZM36,55.9a3.18,3.18,0,0,1-2.45-1,3,3,0,0,1-1-2.09,2.49,2.49,0,0,1,1-2.1,3,3,0,0,1,2.1-1,3.76,3.76,0,0,1,2.44,1,3,3,0,0,1,1.05,2.1,2.48,2.48,0,0,1-1.05,2.09A3,3,0,0,1,36,55.9Z"/></g></g></svg>