<?xml version="1.0" encoding="utf-8"?>
<!-- Generator: Adobe Illustrator 22.0.1, SVG Export Plug-In . SVG Version: 6.00 Build 0)  -->
<svg version="1.1" id="Layer_1" xmlns="http://www.w3.org/2000/svg" xmlns:xlink="http://www.w3.org/1999/xlink" x="0px" y="0px"
	 viewBox="0 0 120 120" style="enable-background:new 0 0 120 120;" xml:space="preserve">
<style type="text/css">
	.st0{fill:none;stroke:#FC7F2B;}
	.st1{fill:#FF6010;}
</style>
<circle class="st0" cx="60" cy="60" r="59.5"/>
<g>
	<g>
		<path class="st1" d="M64.1,87c-0.4,0-0.8-0.2-1.2-0.5L33.5,57.1c-0.3-0.3-0.5-0.7-0.5-1.2V34.6c0-0.9,0.7-1.6,1.6-1.6h21.3
			c0.4,0,0.9,0.2,1.2,0.5l29.5,29.5c0.6,0.6,0.6,1.7,0,2.3L65.2,86.5C64.9,86.8,64.5,87,64.1,87z M36.3,55.2L64.1,83l19-19
			L55.2,36.3h-19V55.2z M45.3,49.4c2.3,0,4.1-1.8,4.1-4.1c0-2.3-1.8-4.1-4.1-4.1c-2.3,0-4.1,1.8-4.1,4.1
			C41.2,47.5,43,49.4,45.3,49.4z"/>
	</g>
</g>
</svg>
