<svg xmlns="http://www.w3.org/2000/svg" viewBox="0 0 125.3 42"><defs><style>.cls-1{fill:#4867aa;}.cls-2{font-size:18.2px;font-family:GothamRounded-Medium, Gotham Rounded;letter-spacing:-0.04em;}.cls-2,.cls-6{fill:#fff;}.cls-3{letter-spacing:-0.04em;}.cls-4{letter-spacing:-0.05em;}.cls-5{letter-spacing:-0.04em;}</style></defs><title>tweetAsset 3</title><g id="Layer_2" data-name="Layer 2"><g id="Layer_1-2" data-name="Layer 1"><path id="Button" class="cls-1" d="M125.3,39.2A2.6,2.6,0,0,1,123,42H2.35A2.6,2.6,0,0,1,0,39.2V2.8A2.6,2.6,0,0,1,2.35,0H123a2.6,2.6,0,0,1,2.35,2.8Z"/><text class="cls-2" transform="translate(58.48 26.23)">P<tspan class="cls-3" x="11.38" y="0">o</tspan><tspan class="cls-4" x="22.64" y="0">s</tspan><tspan class="cls-5" x="30.89" y="0">t</tspan></text><path class="cls-6" d="M32.23,32.63V21H29.15V17.13h3.08v-.25c0-.94,0-1.89.05-2.83a4.82,4.82,0,0,1,1.93-3.69,4.64,4.64,0,0,1,2.65-.94c1.28-.06,2.57,0,3.85-.05l0,0v3.86h-.2l-2.42,0-.33.06a1,1,0,0,0-.88,1c0,.92,0,1.84,0,2.79h3.85L40.3,21H36.9V32.63Z"/></g></g></svg>