<svg xmlns="http://www.w3.org/2000/svg" viewBox="0 0 428 64"><defs><style>.cls-1{fill:#3b5998;}.cls-2{fill:#fff;}</style></defs><title>facebookAsset 7</title><g id="Layer_2" data-name="Layer 2"><g id="Layer_1-2" data-name="Layer 1"><rect class="cls-1" width="428" height="64" rx="23" ry="23"/><path class="cls-2" d="M44.81,9a22.09,22.09,0,0,1,2.76,44V36.61h7.59l.69-5.52H47.57V28.33a2.77,2.77,0,0,1,2.76-2.77h5.52V20H50.33a8.29,8.29,0,0,0-8.28,8.29v2.76H37.91v5.52h4.14V53A22.09,22.09,0,0,1,44.81,9Z"/><path class="cls-2" d="M105.15,22a7,7,0,1,0,0,13.92,7.62,7.62,0,0,0,5.17-2.1l1.23,1.32a9.61,9.61,0,0,1-6.5,2.65,8.81,8.81,0,1,1,.07-17.62,9.48,9.48,0,0,1,6.4,2.55l-1.2,1.45A7.43,7.43,0,0,0,105.15,22Z"/><path class="cls-2" d="M126.47,31.07a6.68,6.68,0,0,1-13.35,0,6.68,6.68,0,0,1,13.35,0Zm-11.4,0a4.73,4.73,0,1,0,9.45,0,4.73,4.73,0,1,0-9.45,0Z"/><path class="cls-2" d="M142,29.57v8.1H140v-7.6a3.44,3.44,0,0,0-3.73-3.75,4.3,4.3,0,0,0-4.42,4.3v7.05H129.9V24.52h1.95v2.9c.92-2,2.7-3,5.1-3C140.1,24.45,142,26.37,142,29.57Z"/><path class="cls-2" d="M153.1,36.77a5.34,5.34,0,0,1-3,1c-1.92,0-3.35-1.12-3.35-3.72V26.44h-1.9V24.92h1.9V21.47h1.93v3.45h4.17v1.52H148.7v7.25c0,1.6.62,2.25,1.75,2.25a4.52,4.52,0,0,0,2.1-.67Z"/><path class="cls-2" d="M158.27,20.75A1.28,1.28,0,1,1,157,19.42,1.27,1.27,0,0,1,158.27,20.75Zm-.3,3.77V37.67h-1.92V24.52Z"/><path class="cls-2" d="M174.77,29.57v8.1h-2v-7.6a3.44,3.44,0,0,0-3.72-3.75,4.32,4.32,0,0,0-4.43,4.3v7.05h-1.95V24.52h1.95v2.9a5.19,5.19,0,0,1,5.1-3C172.92,24.45,174.77,26.37,174.77,29.57Z"/><path class="cls-2" d="M190.55,24.52V37.67h-2v-3a5,5,0,0,1-5,3.05c-3.08,0-4.93-2-4.93-5.12v-8.1h2v7.6a3.41,3.41,0,0,0,3.65,3.75c2.73,0,4.33-2,4.33-4.9V24.52Z"/><path class="cls-2" d="M206.65,31.82H195.9a4.64,4.64,0,0,0,4.77,4.3,5.52,5.52,0,0,0,4.08-1.68l1.07,1.13a7,7,0,0,1-5.3,2.17A6.3,6.3,0,0,1,194,31.09a6.31,6.31,0,0,1,6.53-6.64C204.75,24.45,206.85,27.37,206.65,31.82Zm-1.75-1.55a4.16,4.16,0,0,0-4.4-4.2,4.43,4.43,0,0,0-4.6,4.2Z"/><path class="cls-2" d="M217.27,24.52l3.9,11.17L225,24.52h2.05l3.87,11.17,3.85-11.17h2l-4.87,13.15h-2L226,26.89l-3.85,10.78h-2l-4.93-13.15Z"/><path class="cls-2" d="M241.32,20.75a1.28,1.28,0,1,1-1.27-1.33A1.27,1.27,0,0,1,241.32,20.75Zm-.3,3.77V37.67H239.1V24.52Z"/><path class="cls-2" d="M252.57,36.77a5.28,5.28,0,0,1-3,1c-1.93,0-3.35-1.12-3.35-3.72V26.44h-1.9V24.92h1.9V21.47h1.92v3.45h4.18v1.52h-4.18v7.25c0,1.6.63,2.25,1.75,2.25a4.45,4.45,0,0,0,2.1-.67Z"/><path class="cls-2" d="M267.72,29.57v8.1h-2v-7.6a3.44,3.44,0,0,0-3.72-3.75c-2.8,0-4.45,2-4.45,4.9v6.45h-2V19.12h2v8.35c.9-2,2.7-3,5.12-3C265.87,24.45,267.72,26.37,267.72,29.57Z"/><path class="cls-2" d="M291,20.17V22h-9.12v6.27H290v1.83h-8.17v7.55h-2V20.17Z"/><path class="cls-2" d="M301.82,37.67V35.62A5.67,5.67,0,0,1,297,37.74c-2.73,0-4.48-1.72-4.48-4S294.35,30,297.45,30h4.32v-.82c0-1.93-1.2-3.1-3.52-3.1a7.21,7.21,0,0,0-4.18,1.52l-.82-1.37a8.79,8.79,0,0,1,5.37-1.77c3.25,0,5.05,1.72,5.07,4.52l0,8.7Zm0-4.53v-1.6H297.7c-2.2,0-3.35.68-3.35,2.15s1.17,2.43,3,2.43C299.6,36.12,301.29,35,301.79,33.14Z"/><path class="cls-2" d="M313.35,26.19a4.59,4.59,0,0,0-4.68,4.9A4.6,4.6,0,0,0,313.35,36a5.14,5.14,0,0,0,4.07-1.7l1.12,1.15a6.6,6.6,0,0,1-5.27,2.27,6.3,6.3,0,0,1-6.52-6.65,6.32,6.32,0,0,1,6.52-6.64,6.91,6.91,0,0,1,5.07,1.94l-1.07,1.35A5.48,5.48,0,0,0,313.35,26.19Z"/><path class="cls-2" d="M332.82,31.82H322.07a4.65,4.65,0,0,0,4.78,4.3,5.49,5.49,0,0,0,4.07-1.68L332,35.57a7,7,0,0,1-5.29,2.17,6.29,6.29,0,0,1-6.55-6.65,6.31,6.31,0,0,1,6.52-6.64C330.92,24.45,333,27.37,332.82,31.82Zm-1.75-1.55a4.15,4.15,0,0,0-4.4-4.2,4.45,4.45,0,0,0-4.6,4.2Z"/><path class="cls-2" d="M349.64,31.12c0,3.9-2.55,6.62-6.27,6.62a5.5,5.5,0,0,1-5.12-2.9v2.83H336.3V19.12h1.95v8.22a5.48,5.48,0,0,1,5.07-2.89C347,24.45,349.64,27.19,349.64,31.12Zm-2-.05a4.72,4.72,0,1,0-9.42,0,4.72,4.72,0,1,0,9.42,0Z"/><path class="cls-2" d="M365.09,31.07a6.67,6.67,0,1,1-13.34,0,6.67,6.67,0,0,1,13.34,0Zm-11.39,0a4.73,4.73,0,1,0,9.44,0,4.72,4.72,0,1,0-9.44,0Z"/><path class="cls-2" d="M380.54,31.07a6.67,6.67,0,0,1-13.34,0,6.67,6.67,0,0,1,13.34,0Zm-11.39,0a4.73,4.73,0,1,0,9.44,0,4.72,4.72,0,1,0-9.44,0Z"/><path class="cls-2" d="M388.82,31l-2.77,2.88v3.8H384.1V19.12h1.95V31.34l6.77-6.82h2.3l-4.92,5.07,5.44,8.08h-2.32Z"/></g></g></svg>