<svg xmlns="http://www.w3.org/2000/svg" viewBox="0 0 428 64"><defs><style>.cls-1{fill:#ea4235;}.cls-2{fill:#fff;}</style></defs><title>googleAsset 8</title><g id="Layer_2" data-name="Layer 2"><g id="Layer_1-2" data-name="Layer 1"><rect class="cls-1" width="428" height="64" rx="23" ry="23"/><path class="cls-2" d="M44.81,10A22.39,22.39,0,1,0,67.19,32.34,22.39,22.39,0,0,0,44.81,10Zm9.56,30.54C51.31,44.44,45.64,45.6,41,44.05a12.39,12.39,0,1,1,12.28-21c-1,1.11-2,2.21-3.14,3.24C48,25,45.39,24,42.86,24.86a7.81,7.81,0,1,0,5.26,14.7,6.86,6.86,0,0,0,4-4.68c-2.36-.05-4.73,0-7.09-.09,0-1.4,0-2.8,0-4.21,3.94,0,7.89,0,11.84,0C57.12,34,56.61,37.73,54.37,40.49Z"/><path class="cls-2" d="M105.15,27a7,7,0,1,0,0,13.92,7.62,7.62,0,0,0,5.17-2.1l1.23,1.32a9.61,9.61,0,0,1-6.5,2.65,8.81,8.81,0,1,1,.07-17.62,9.48,9.48,0,0,1,6.4,2.55l-1.2,1.45A7.43,7.43,0,0,0,105.15,27Z"/><path class="cls-2" d="M126.47,36.07a6.68,6.68,0,0,1-13.35,0,6.68,6.68,0,0,1,13.35,0Zm-11.4,0a4.73,4.73,0,1,0,9.45,0,4.73,4.73,0,1,0-9.45,0Z"/><path class="cls-2" d="M142,34.57v8.1H140v-7.6a3.44,3.44,0,0,0-3.73-3.75,4.3,4.3,0,0,0-4.42,4.3v7.05H129.9V29.52h1.95v2.9c.92-2,2.7-3,5.1-3C140.1,29.45,142,31.37,142,34.57Z"/><path class="cls-2" d="M153.1,41.77a5.34,5.34,0,0,1-3,1c-1.92,0-3.35-1.12-3.35-3.72V31.44h-1.9V29.92h1.9V26.47h1.93v3.45h4.17v1.52H148.7v7.25c0,1.6.62,2.25,1.75,2.25a4.52,4.52,0,0,0,2.1-.67Z"/><path class="cls-2" d="M158.27,25.75A1.28,1.28,0,1,1,157,24.42,1.27,1.27,0,0,1,158.27,25.75Zm-.3,3.77V42.67h-1.92V29.52Z"/><path class="cls-2" d="M174.77,34.57v8.1h-2v-7.6a3.44,3.44,0,0,0-3.72-3.75,4.32,4.32,0,0,0-4.43,4.3v7.05h-1.95V29.52h1.95v2.9a5.19,5.19,0,0,1,5.1-3C172.92,29.45,174.77,31.37,174.77,34.57Z"/><path class="cls-2" d="M190.55,29.52V42.67h-2v-3a5,5,0,0,1-5,3.05c-3.08,0-4.93-2-4.93-5.12v-8.1h2v7.6a3.41,3.41,0,0,0,3.65,3.75c2.73,0,4.33-2,4.33-4.9V29.52Z"/><path class="cls-2" d="M206.65,36.82H195.9a4.64,4.64,0,0,0,4.77,4.3,5.52,5.52,0,0,0,4.08-1.68l1.07,1.13a7,7,0,0,1-5.3,2.17A6.3,6.3,0,0,1,194,36.09a6.31,6.31,0,0,1,6.53-6.64C204.75,29.45,206.85,32.37,206.65,36.82Zm-1.75-1.55a4.16,4.16,0,0,0-4.4-4.2,4.43,4.43,0,0,0-4.6,4.2Z"/><path class="cls-2" d="M217.27,29.52l3.9,11.17L225,29.52h2.05l3.87,11.17,3.85-11.17h2l-4.87,13.15h-2L226,31.89l-3.85,10.78h-2l-4.93-13.15Z"/><path class="cls-2" d="M241.32,25.75a1.28,1.28,0,1,1-1.27-1.33A1.27,1.27,0,0,1,241.32,25.75Zm-.3,3.77V42.67H239.1V29.52Z"/><path class="cls-2" d="M252.57,41.77a5.28,5.28,0,0,1-3,1c-1.93,0-3.35-1.12-3.35-3.72V31.44h-1.9V29.92h1.9V26.47h1.92v3.45h4.18v1.52h-4.18v7.25c0,1.6.63,2.25,1.75,2.25a4.45,4.45,0,0,0,2.1-.67Z"/><path class="cls-2" d="M267.72,34.57v8.1h-2v-7.6a3.44,3.44,0,0,0-3.72-3.75c-2.8,0-4.45,2-4.45,4.9v6.45h-2V24.12h2v8.35c.9-2,2.7-3,5.12-3C265.87,29.45,267.72,31.37,267.72,34.57Z"/><path class="cls-2" d="M292,34.12h1.78v6.35a10.83,10.83,0,0,1-6.5,2.27,8.82,8.82,0,1,1,.1-17.62,10,10,0,0,1,6.45,2.4L292.72,29a8.07,8.07,0,0,0-5.3-2,7,7,0,1,0,0,14A8.32,8.32,0,0,0,292,39.44Z"/><path class="cls-2" d="M310.42,36.07a6.68,6.68,0,0,1-13.35,0,6.68,6.68,0,0,1,13.35,0Zm-11.4,0a4.73,4.73,0,1,0,9.45,0,4.73,4.73,0,1,0-9.45,0Z"/><path class="cls-2" d="M325.87,36.07a6.68,6.68,0,0,1-13.35,0,6.68,6.68,0,0,1,13.35,0Zm-11.4,0a4.73,4.73,0,1,0,9.45,0,4.73,4.73,0,1,0-9.45,0Z"/><path class="cls-2" d="M340.77,29.52V41.29c0,3.85-2.63,6.28-6.62,6.28a8.73,8.73,0,0,1-5.4-1.93l.9-1.42a6.73,6.73,0,0,0,4.42,1.67c2.87,0,4.75-1.77,4.75-4.55v-2A5.19,5.19,0,0,1,334,42.09c-3.55,0-6-2.62-6-6.35s2.43-6.27,5.95-6.29a5.22,5.22,0,0,1,4.9,2.74V29.52Zm-1.95,6.27a4.51,4.51,0,1,0-9,0,4.51,4.51,0,1,0,9,0Z"/><path class="cls-2" d="M347.27,24.12V42.67h-1.95V24.12Z"/><path class="cls-2" d="M363.49,36.82H352.75a4.64,4.64,0,0,0,4.77,4.3,5.49,5.49,0,0,0,4.07-1.68l1.08,1.13a7,7,0,0,1-5.3,2.17,6.3,6.3,0,0,1-6.55-6.65,6.31,6.31,0,0,1,6.53-6.64C361.59,29.45,363.69,32.37,363.49,36.82Zm-1.75-1.55a4.14,4.14,0,0,0-4.39-4.2,4.43,4.43,0,0,0-4.6,4.2Z"/></g></g></svg>