<svg xmlns="http://www.w3.org/2000/svg" viewBox="0 0 86 86.03"><defs><style>.cls-1{fill:#ff6010;}</style></defs><title>Asset 3</title><g id="Layer_2" data-name="Layer 2"><g id="Layer_1-2" data-name="Layer 1"><path class="cls-1" d="M16.4,0a2,2,0,0,0-1.76,2.14,2,2,0,0,0,.6,1.22L33.47,21.59,24,32a2,2,0,0,0-.27,2.29,75.09,75.09,0,0,0,12.06,16A72.68,72.68,0,0,0,51.83,62.33a1.94,1.94,0,0,0,2.26-.27L65.81,51.31a2,2,0,0,0-2.34-3.13,1.73,1.73,0,0,0-.28.26L52.56,58.18A68.32,68.32,0,0,1,38.51,47.52,70.53,70.53,0,0,1,27.88,33.44l9.71-10.59a2,2,0,0,0-.06-2.69L18,.61A2,2,0,0,0,16.58,0ZM44.77,0A2,2,0,0,0,43,2V27.4a2,2,0,0,0,2,2h3.91v5.86a2,2,0,0,0,2,1.95,2,2,0,0,0,1.3-.51l8.22-7.3h23.7a2,2,0,0,0,2-2V2a2,2,0,0,0-2-2H44.77Zm2.14,3.91H82.09v21.5H59.61a2,2,0,0,0-1.31.49l-5.53,4.92V27.4a2,2,0,0,0-2-2H46.91ZM10.66,5.87a1.87,1.87,0,0,0-1.31.64L3.15,13v0A12,12,0,0,0,0,21.53C0,32.48,8.5,48.42,23.06,63S53.55,86,64.5,86a12.06,12.06,0,0,0,8.55-3.14L85.42,70.82a2,2,0,0,0,0-2.76h0L71.74,54.36a2,2,0,0,0-3,2.46,2.06,2.06,0,0,0,.3.29L81.27,69.39l-11,10.69a8.05,8.05,0,0,1-5.8,2c-8.79,0-24.64-7.83-38.69-21.89S3.91,30.32,3.91,21.53A8,8,0,0,1,6,15.73v0l6.19-6.51a1.94,1.94,0,0,0,0-2.76A1.91,1.91,0,0,0,10.66,5.87Zm44.07,5.89a2.93,2.93,0,1,0,2.93,2.93A2.93,2.93,0,0,0,54.73,11.76Zm9.77,0a2.93,2.93,0,1,0,2.93,2.93A2.93,2.93,0,0,0,64.5,11.76Zm9.77,0a2.93,2.93,0,1,0,2.94,2.93A2.93,2.93,0,0,0,74.27,11.76Z"/></g></g></svg>