<svg xmlns="http://www.w3.org/2000/svg" viewBox="0 0 63.36 78.62"><defs><style>.cls-1{fill:#ff6010;}</style></defs><title>Asset 7</title><g id="Layer_2" data-name="Layer 2"><g id="Layer_1-2" data-name="Layer 1"><path class="cls-1" d="M48.58,19.66a2,2,0,0,0,2,2h4.49a2,2,0,1,0,0-4H50.59A2,2,0,0,0,48.58,19.66Z"/><path class="cls-1" d="M17.76,19.66a2,2,0,0,0,2,2h4.49a2,2,0,1,0,0-4H19.77A2,2,0,0,0,17.76,19.66Z"/><path class="cls-1" d="M39.43,6.5V2a2,2,0,1,0-4,0V6.5a2,2,0,0,0,4,0Z"/><path class="cls-1" d="M48.52,5.76,45.31,9a2,2,0,0,0,2.84,2.84L51.36,8.6a2,2,0,0,0-2.84-2.84Z"/><path class="cls-1" d="M28.12,12.36a2,2,0,0,0,1.42-3.42L26.33,5.73a2,2,0,1,0-2.84,2.84h0l3.21,3.21A2,2,0,0,0,28.12,12.36Z"/><path class="cls-1" d="M4,35.49a4,4,0,0,0-4,4V74.61a4,4,0,0,0,4,4H15.63a4,4,0,0,0,4-3.73l2.49,1.49A15.3,15.3,0,0,0,30,78.56H46.91a14.87,14.87,0,0,0,6-1.19c5.42-2.41,6.27-6.64,5.87-9.44a8.84,8.84,0,0,0,2.61-9.81,8.76,8.76,0,0,0,2-5.78,8.49,8.49,0,0,0-1.64-4.57,7.35,7.35,0,0,0-1.84-8.4c-.17-.16-.34-.31-.52-.45a7.77,7.77,0,0,0-3.08-1.36h-.09A60.26,60.26,0,0,0,42,36.36c-.2-1.21-.19-3.76,1.4-8.55,1.46-4.43,1.33-8.1-.39-10.9a9,9,0,0,0-6.47-4.12h-.25a4.23,4.23,0,0,0-4.13,3,2.46,2.46,0,0,0-.07.29l-.6,4.33a12.89,12.89,0,0,1-1.12,3.75L24.55,36.45a6.91,6.91,0,0,1-4.91,4v-1a4,4,0,0,0-4-4ZM4,74.61V39.5H15.63V74.61Zm16-30.12a10.84,10.84,0,0,0,8.1-6.42L34,25.82a16.84,16.84,0,0,0,1.47-4.92l.61-4a.24.24,0,0,1,.11-.06A5.12,5.12,0,0,1,39.61,19c1.06,1.72,1.06,4.33,0,7.53-1.56,4.69-2,8.39-1.45,11a3.64,3.64,0,0,0,3.56,2.83h0a57.64,57.64,0,0,1,13.64,1.11h.08a3.71,3.71,0,0,1,1.49.63l.25.21A3.59,3.59,0,0,1,57.66,47,2,2,0,0,0,58,49.58a4.73,4.73,0,0,1,1.35,2.93,5.49,5.49,0,0,1-1.8,3.91,2,2,0,0,0-.27,2.41c.09.15,2.15,3.74-1.93,6.74a2,2,0,0,0-.71,2.28c.22.64,1.07,3.93-3.33,5.86a10.79,10.79,0,0,1-4.42.83h-17a11.2,11.2,0,0,1-5.77-1.6l-4.52-2.71V44.56Z"/><circle class="cls-1" cx="9.82" cy="68.37" r="2.45"/></g></g></svg>