<svg xmlns="http://www.w3.org/2000/svg" viewBox="0 0 95.83 84.74"><defs><style>.cls-1{fill:#ff6010;stroke:#ff6010;stroke-miterlimit:10;stroke-width:0.5px;}</style></defs><title>Asset 1</title><g id="Layer_2" data-name="Layer 2"><g id="Layer_1-2" data-name="Layer 1"><path class="cls-1" d="M91.35,62.83H94a1.62,1.62,0,1,0,0-3.24H89.62c-3.9-6.39-10.39-13.32-21.11-18.74V36.63a1.63,1.63,0,0,0-3.25,0v2.6a13.64,13.64,0,0,0-2.17-.87V34.14a1.62,1.62,0,0,0-3.24,0v2.92c-21.55-7.9-38.23-7.25-46.78-6L8.74,22.45a1.71,1.71,0,0,0-1.41-.87H5.81a5.84,5.84,0,0,1,1.3-3.9C8.41,16.06,10.8,15.3,14,15.3c10.51,0,13.54-8.77,13.65-13.43a1.57,1.57,0,0,0-3.14-.1c0,.43-.54,10.28-10.4,10.28q-6.49,0-9.42,3.58a9.45,9.45,0,0,0-2.06,5.95H1.92a1.86,1.86,0,0,0-1.41.76A1.68,1.68,0,0,0,.4,24L5.81,34.79h0A57.85,57.85,0,0,1,11,57.64c-4.11-1-7-2.06-8-3a1.49,1.49,0,0,0-1.73-.33,1.55,1.55,0,0,0-1,1.52V72a7,7,0,0,0,5.42,6.82v4a1.66,1.66,0,0,0,1.62,1.62H94a1.67,1.67,0,0,0,1.63-1.62V77.45h0A36.22,36.22,0,0,0,91.35,62.83Zm-81.53-31c-.65.11-1.19.21-1.62.32L4.62,24.94h0c.11,0,.11,0,.22-.11H6.36ZM3.54,72V58.61c12.13,5.31,52.73,9.21,57.82,9.64A1.63,1.63,0,0,0,61.58,65C47.5,63.7,27,61.21,14.37,58.4A59.36,59.36,0,0,0,9.6,35.22c5.74-1.3,25.13-4.22,51.22,5.85C87.46,51.25,91.57,70.2,92.22,75.83H7.33A3.83,3.83,0,0,1,3.54,72Zm88.79,9.2H9V79.08H92.33Z"/><path class="cls-1" d="M53.67,42.59h0a140.74,140.74,0,0,0-24.36-4.44A7.16,7.16,0,0,0,24.11,40a6.9,6.9,0,0,0,4.66,12H56.49a3.54,3.54,0,0,0,3.36-2.28,3.87,3.87,0,0,0-.76-4A12.32,12.32,0,0,0,53.67,42.59Zm3.25,5.95c-.11.11-.21.22-.32.22H28.88a3.65,3.65,0,0,1-3.68-3.68,3.51,3.51,0,0,1,1.19-2.71,3.42,3.42,0,0,1,2.49-1h.32a136.29,136.29,0,0,1,23.72,4.33h0a8.44,8.44,0,0,1,4,2.38C57,48.22,57,48.33,56.92,48.54Z"/><path class="cls-1" d="M17,38.36h0a1.62,1.62,0,0,0-.11,2.39,1.86,1.86,0,0,0,2.38,0l.11-.11a1.58,1.58,0,0,0,0-2.28A2,2,0,0,0,17,38.36Z"/></g></g></svg>