<svg xmlns="http://www.w3.org/2000/svg" viewBox="0 0 49.85 44.5"><defs><style>.cls-1{fill:#ff6010;stroke:#ff6010;stroke-miterlimit:10;stroke-width:0.5px;}</style></defs><title>Asset 5</title><g id="Layer_2" data-name="Layer 2"><g id="Layer_1-2" data-name="Layer 1"><path class="cls-1" d="M49,37.19,29,2.6a4.71,4.71,0,0,0-8.15,0L.88,37.19A4.71,4.71,0,0,0,5,44.25H44.89A4.71,4.71,0,0,0,49,37.19ZM46.4,40.42a1.76,1.76,0,0,1-1.51.87H5a1.75,1.75,0,0,1-1.5-2.62l20-34.59a1.74,1.74,0,0,1,3,0l20,34.59A1.76,1.76,0,0,1,46.4,40.42Zm-23-12.09h3V13.88h-3Zm0,7.48h3V31.24h-3Z"/></g></g></svg>