<svg xmlns="http://www.w3.org/2000/svg" viewBox="0 0 68.95 82"><defs><style>.cls-1{fill:#ff6010;}</style></defs><title>Asset 6</title><g id="Layer_2" data-name="Layer 2"><g id="Layer_1-2" data-name="Layer 1"><path class="cls-1" d="M8.39,0A8.41,8.41,0,0,0,0,8.39V73.61A8.41,8.41,0,0,0,8.39,82H34.48a1.87,1.87,0,0,0,.05-3.73H8.39a4.6,4.6,0,0,1-4.66-4.66V67.09H46.59v6.52a4.61,4.61,0,0,1-4.66,4.66,1.87,1.87,0,0,0,0,3.73h0a8.41,8.41,0,0,0,8.39-8.39V47.52h13A5.61,5.61,0,0,0,69,41.93V25.16a5.61,5.61,0,0,0-5.59-5.59h-13V8.39A8.41,8.41,0,0,0,41.93,0Zm0,3.73H41.93a4.61,4.61,0,0,1,4.66,4.66v.93H3.73V8.39A4.6,4.6,0,0,1,8.39,3.73ZM3.73,13.05H46.59v6.52H28a5.62,5.62,0,0,0-5.59,5.59V41.93A5.62,5.62,0,0,0,28,47.52h.94V55a1.85,1.85,0,0,0,1.87,1.85,1.89,1.89,0,0,0,1.07-.34l12.55-9h2.21V63.36H3.73ZM28,23.3H63.36a1.82,1.82,0,0,1,1.87,1.86V41.93a1.82,1.82,0,0,1-1.87,1.87H43.8a1.87,1.87,0,0,0-1.08.34L32.61,51.37V45.66a1.86,1.86,0,0,0-1.86-1.86H28a1.82,1.82,0,0,1-1.86-1.87V25.16A1.81,1.81,0,0,1,28,23.3Zm6.53,7.45a2.8,2.8,0,1,0,2.79,2.8A2.8,2.8,0,0,0,34.48,30.75Zm11.18,0a2.8,2.8,0,1,0,2.79,2.8A2.8,2.8,0,0,0,45.66,30.75Zm11.18,0a2.8,2.8,0,1,0,2.8,2.8A2.79,2.79,0,0,0,56.84,30.75ZM25.16,69.89A2.8,2.8,0,1,0,28,72.68,2.8,2.8,0,0,0,25.16,69.89Z"/></g></g></svg>