<svg xmlns="http://www.w3.org/2000/svg" viewBox="0 0 58.2 59.93"><defs><style>.cls-1{fill:#ff6010;}</style></defs><title>Asset 4</title><g id="Layer_2" data-name="Layer 2"><g id="Layer_1-2" data-name="Layer 1"><path class="cls-1" d="M46.1,46l-6.93-1.65V41.9a1.53,1.53,0,1,0-3.06,0V45a9.61,9.61,0,0,1-13.7,0V40a2.73,2.73,0,0,0-.53-1.58,15.36,15.36,0,0,1-2.6-7l-.05-11.06a10.14,10.14,0,0,1,20.25-.91c0,.29,0,.57,0,.86V30.55A3.51,3.51,0,0,1,36,34.06h-1.9a4.5,4.5,0,1,0,0,3.06H36a6.58,6.58,0,0,0,6.06-4,5,5,0,0,0,7.54-4.36V20.18a20.23,20.23,0,0,0-40.45.09v2.89h0v5.56a5,5,0,0,0,7.34,4.49,17.51,17.51,0,0,0,2.89,6.89v4.28l-12.42,3A9,9,0,0,0,.25,58.2c0,.2.1.41.16.6A1.53,1.53,0,1,0,3.36,58l0-.1a6,6,0,0,1,3.92-7.46l.41-.11,12.79-3.06a12.65,12.65,0,0,0,8.86,3.6h.29a12.49,12.49,0,0,0,8.56-3.59L45.43,49a1.53,1.53,0,0,0,.71-3Zm-16.25-9a1.45,1.45,0,1,1,1.44-1.44,1.45,1.45,0,0,1-1.44,1.44ZM46.51,23.43v5.29a2,2,0,1,1-4,0V23.17a2,2,0,1,1,4,0h0ZM16.15,28.72a2,2,0,0,1-4,0V23.33h0v-.16a2,2,0,1,1,4,0Zm.11-10.13a5,5,0,0,0-4-.09,17.17,17.17,0,0,1,34.17,0,5,5,0,0,0-4,.1,13.18,13.18,0,0,0-26.15,0Z"/><path class="cls-1" d="M52.94,35.75a6.48,6.48,0,0,0-7.31,3.92,1.53,1.53,0,0,0,2.84,1.16,3.44,3.44,0,1,1,4.72,4.38,5.38,5.38,0,0,0-3.06,4.85v1.22a1.53,1.53,0,0,0,3.06,0V50.06A2.37,2.37,0,0,1,54.53,48,6.5,6.5,0,0,0,53,35.72Z"/><circle class="cls-1" cx="51.65" cy="56.75" r="1.65"/></g></g></svg>