<?xml version="1.0" encoding="utf-8"?>
<!-- Generator: Adobe Illustrator 22.0.1, SVG Export Plug-In . SVG Version: 6.00 Build 0)  -->
<svg version="1.1" id="Layer_1" xmlns="http://www.w3.org/2000/svg" xmlns:xlink="http://www.w3.org/1999/xlink" x="0px" y="0px"
	 viewBox="0 0 183 367" style="enable-background:new 0 0 183 367;" xml:space="preserve">
<style type="text/css">
	.st0{fill:#FF6010;}
	.st1{fill:#E29154;}
	.st2{fill:#FCA96B;}
	.st3{fill:#535454;}
	.st4{fill:#3C3E40;}
	.st5{fill:#4D4D4F;}
	.st6{fill:#595959;}
	.st7{fill:#6C7374;}
	.st8{fill:#FFFFFF;}
	.st9{fill:#373435;}
	.st10{fill:#F7F5F3;}
</style>
<g>
	<path class="st0" d="M1.8,181.1c0,4.4,0,8.8,0,13.2c5.9,17.5,18.4,29.4,33.6,38.8c-1.1-9.7-1.9-19.5-0.2-29.3
		c-4.6-2.2-9-4.7-12.7-8.4c-6.1-6.1-8.2-13.2-5.2-21.4c3.2-8.8,9.5-15.3,16.9-21.9c1.8,16.6,3.6,32.3,5.3,48.1
		c5.1-0.5,8.2,2.1,10.6,6.3c1.7,3.1,3,6.5,3.3,10c1,10.1,1,20-9,26.5c1.7,4.5,5.6,0.8,8.1,2.1c2.1-0.1,4.2-0.1,6.2-0.2
		c1.4,0,2.8-0.1,4.2-0.1c7.2,1.1,14.2-1,21.3-0.9c4.7-0.7,9.5-0.9,14.3-0.7c8.3-0.6,16.5-1.3,24.8-1c0.8-0.1,1.7-0.2,2.5-0.3
		c8.2-0.4,8.2-0.4,8-8.7c-0.6-25.6-1.2-51.1-1.8-76.7c0-1.9-1.1-4.7,3-3.7c11.7,2.7,23.2,1,34.7-2.1c5-1.3,9.1-3.5,11.3-8.4
		c0-3.4,0-6.8,0-10.2c-0.4-0.5-0.9-1-1.1-1.5c-3.6-11.3-9.8-21-17.2-30.1c-1.7,2.9-2,7.1-6.7,7.1c1.7,4.7,0.6,6.1-5.5,7.2
		c-2.7,0.8-5.3,1.7-8,2.5c4.4,4.9,9.1,9.6,12.3,15.5c2.6,4.8,1.4,7.4-3.8,8.3c-5.7,1-11.5,0.3-17.3,0c-2.6-0.1-2.2-1.9-2.4-3.6
		c-0.4-2.9,1.1-6.1-1.2-8.7c-6.7,7-15.3,11.5-23,17.2c-1.2,0.9-2.6,0.4-3.9,0c-17.9-5.6-35.8-11.2-53.7-16.9
		c-5.8-1.7-11.6-3.4-17.4-5.2c-0.7,4.7,0.2,9.3,0.7,14c0.2,2.1-0.1,3.4-1.9,4.7C17.3,152.5,6.5,164.5,1.8,181.1z"/>
	<path class="st0" d="M45.8,352.6c-1,3.1-2.3,6.2-2.1,9.6c8.1,0.5,16.3-1,24.3,0.9c10.2,0,20.4,0,30.6,0c-1.7-1.5-3.1-3.2-3-5.7
		c-2.6-6.8-8.2-8.6-14.6-8.3c-4.7,0.2-9-0.9-13.2-2.6l-0.4,0l-0.4,0C59.9,348.6,52.9,350.6,45.8,352.6z"/>
	<path class="st0" d="M95.6,357.4c-0.1,2.5,1.4,4.1,3,5.7c16,0,31.9,0,47.9,0c-2.2-10.9-5.6-13.8-16.3-13.4c-4.8,0.2-8.8-1.7-13.1-3
		c-6.5,1.7-13,3.3-19.5,5C96.9,353.7,96.2,355.6,95.6,357.4z"/>
	<path class="st1" d="M68.1,363.1c-8.1-1.9-16.2-0.4-24.3-0.9c-0.2,0.3-0.2,0.6-0.1,0.9C51.8,363.1,59.9,363.1,68.1,363.1z"/>
	<path class="st2" d="M49.7,129.3c17.9,5.6,35.8,11.3,53.7,16.9c1.3,0.4,2.8,0.9,3.9,0c7.7-5.7,16.3-10.1,23-17.2
		c1-4.1-0.3-8.3,0.2-12.4c-0.1-3.3-0.2-6.5-0.4-9.8c-1.2-4.5-0.6-9.1-1-13.6c-0.2-1.5,0.6-2.4,1.7-3.3c5.3-4.6,5.6-8.7,1.4-15
		c-0.3,0.5-0.6,1-1,1.4c0.3,2.9-0.3,5.6-2.5,8.5c-0.7-3.3-1.2-5.9-0.5-8.5c0.4-2.8-1.8-5.2-1.2-8.1c-0.4-1.9-1.1-3.7-0.2-5.6
		c-1.5-1.4-1.2-3.4-1.5-5.1c-0.8-5-1.2-10-3-14.8c-4.4,3.4-9.6,4.1-14.9,4.1c-11.2,0.1-22.4-0.3-33.5,0.2
		c-8.2,0.3-16.6,0.7-24.5,3.5c-2.6,0.9-3.7,2-3.5,5.1C47.3,80.2,48.5,104.8,49.7,129.3z M119,75.5l0.1-0.1c-0.9,4.8-4.5,5.5-8.4,5.2
		c-3.9-0.2-6.9-2.4-7.4-6.4c-0.6-4.1,1.9-6.6,5.7-7.7c7.2-0.9,9.6,1.1,10.3,8.2C119,74.9,118.9,75.2,119,75.5z M75.5,66.4
		c1,0.9,2.2,0.7,3.3,0.6c6.5-0.6,9.6,3.1,8,9.6c-1.9,4.6-5.6,6.2-10.2,5.4c-3.9-0.6-7.1-2.8-7.5-7.1C68.7,70.4,71.3,67.7,75.5,66.4z
		 M101,113.1c1.7-0.1,2.7-2.1,4.7-1.5c0.2,2.1,0.8,4.4,0.4,6.5c-0.4,2,0.6,4.4-1.5,6.1c-9.3,7.7-24.3,3.2-28.2-8.6
		c-0.2-2-1.6-4-0.6-6.6C83.4,116.1,92.1,115.5,101,113.1z M91.1,104.9c-0.1-0.3-0.3-0.6-0.4-1c0.7-0.3,1.4-0.9,2.2-0.9
		c5.2-0.3,6-3.3,5.9-7.9c-0.3-11.3-1-22.6-2-33.9c-0.2-1.7-0.6-3.6,1.4-6.2c0.4,4.1,0.8,7.1,1.1,10.2c0.9,11.1,1.7,22.2,2.5,33.3
		c0.2,2.2,0.3,4.6-2.7,5.2C96.4,104.2,93.7,104.5,91.1,104.9z M77.1,59.3c-1.7,0.1-3.4,0.3-5.1,0.3c-1.4,0-3.5,1-3.9-1
		c-0.5-2.2,1.9-2,3.2-2.3c4.3-1,8.6-1.8,12.9-2.8c1.9-0.5,3.2-0.6,3.4,2c0.1,2.3-0.3,3.5-2.9,3.5C82.2,59,79.7,59.2,77.1,59.3z
		 M110,62.2c-2.6-0.1-6.4,1.8-4.9-3.4c0.9-3,3-1.6,4.5-1.1c2.3,0.7,6.4-0.4,6.4,2.3C116,63.3,111.8,61.3,110,62.2z"/>
	<path class="st3" d="M97.5,351.8c6.5-1.7,13-3.3,19.5-5c0.3-5.7,0.6-11.5,1-17.2c-1-0.8-0.9-1.4,0.1-2.1c1.2-9.4,1.9-18.9,2-28.4
		c-1-0.8-1-1.5,0.2-2.1c1.4-7.9,0.9-15.8,1.4-23.8c0.7-10.3,1.1-20.6,1.7-30.9c-8.3-0.2-16.6,0.4-24.8,1c-4.6,3.4-9.4,2-14.3,0.7
		c-7.1-0.1-14.1,2-21.3,0.9c-1.4,1.4-2.7,1.5-4.2,0.1c-2.1,0.1-4.2,0.1-6.2,0.2c1.8,15.4,3.6,30.9,5.6,46.3c0.4,3.2-0.1,6-0.7,9
		c-2.6,11.7-5.1,23.4-7.7,35.1c1,1.1,0.5,1.7-0.6,2c-1.1,5-2.2,9.9-3.3,14.9c7.1-2,14.1-4,21.2-6c0.2-0.6,0.5-1.1,0.7-1.7
		c1-16.9,2.3-33.9,2.6-50.8c-1.1-0.8-1-1.5,0.3-2.1c0.2-1.7,0.3-3.3,0.5-5c1.3-9.8,1.8-19.7,4.3-29.3c1-2.9,0-7.5,5-7.3
		c7.6,0.4,15.1-1.3,22.6-1.1c2.9,0.1,7.3-1.5,8.5,0.9c1.5,2.9-3.3,4.4-4.6,7c0.4,8.8,0.7,17.6,1.1,26.4c0.2,4.4,1.2,8.6,0.1,13.1
		c-3.3,14.4-6.1,28.8-8.9,43.3C98.4,343.8,96.6,347.6,97.5,351.8z"/>
	<path class="st1" d="M49.7,129.3c-1.2-24.6-2.4-49.1-3.8-73.7c-0.2-3.1,1-4.2,3.5-5.1c7.9-2.8,16.3-3.2,24.5-3.5
		c11.2-0.4,22.4-0.1,33.5-0.2c5.3,0,10.5-0.8,14.9-4.1c-0.3-2.9-2.2-1.7-3.7-1.4c-5.2,1.1-10.5,1.9-15.9,1.5
		c-8.8,0.8-17.6,0.8-26.5,0.7c-7.4,0.8-14.8,1.3-22.1,2.4c-11.5,1.8-11.5,2.1-12.7,13.5c-1.1,11.4-2.3,22.8-3.6,34.2
		c-0.2,1.8,0.3,5-3.5,4c-0.1,0.1-0.2,0.2-0.2,0.3c0.1-0.1,0.2-0.2,0.3-0.2c-0.3-1-0.6-2.1-1-3.1c-0.7,0.2-1.3,0.4-2,0.6
		c0.1,0.5,0.4,0.9,0.4,1.4c0.3,5.2,2.1,10.5-1.5,15.4c0.6,4,1.2,8.1,1.8,12.1C38.1,125.9,43.9,127.6,49.7,129.3z"/>
	<path class="st2" d="M39.6,200.4c-1.5,1.2-2.9,2.4-4.4,3.5c-1.7,9.8-0.9,19.5,0.2,29.3c1,2.2,2,4.5,3.2,6.6c1.2,2.3,2.9,4,5.9,3.4
		c10-6.4,10-16.4,9-26.5c-0.4-3.5-1.6-6.9-3.3-10C47.9,202.5,44.7,199.9,39.6,200.4z"/>
	<path class="st2" d="M162.9,100.7c-2.5-4.5-2.3-9.7-4-14.4c-1.5-4.1-3-8.2-5.4-11.9c-1.3-2-2.9-3.8-5.7-3.1
		c-4.8,4.1-3.5,9.7-3.1,14.8c0.6,8.8,3.5,16.7,11.5,21.7C160.9,107.9,161.2,103.7,162.9,100.7z"/>
	<path class="st3" d="M130.5,116.7c3.7,4.8,8.1,1.1,12.2,0.9c2.7-0.8,5.3-1.7,8-2.5c-1.8-2.3-2.9-4.9-3.5-7.7
		c-3.2-13.3-6.5-26.5-9.9-39.7c-0.7-2.6-0.7-4.9,0.2-7.4c-1-0.1-2-0.2-3-0.2c-2.1,2.8-0.7,6.1-1.1,9.1c2.2,0.4,2.1,2.4,2.5,4
		c2.3,8.6,4.6,17.3,6.7,25.9c0.6,2.4,2.7,5.9-0.7,7.1c-3.6,1.3-7.6,4.5-11.7,0.6C130.2,110.1,130.3,113.4,130.5,116.7z"/>
	<path class="st4" d="M137.4,60.3c-0.9,2.4-0.9,4.8-0.2,7.4c3.4,13.2,6.7,26.4,9.9,39.7c0.7,2.9,1.7,5.4,3.5,7.7
		c6-1.1,7.1-2.5,5.5-7.2c-8-5-10.8-13-11.5-21.7c-0.4-5.1-1.7-10.6,3.1-14.8c-0.4-1.4-0.8-2.9-1.2-4.3
		C144.9,60.5,144.2,59.9,137.4,60.3z"/>
	<path class="st5" d="M84.3,244.1c4.8,1.3,9.7,2.7,14.3-0.7C93.8,243.2,89.1,243.4,84.3,244.1z"/>
	<path class="st5" d="M58.9,245.1c1.4,1.4,2.8,1.3,4.2-0.1C61.7,245,60.3,245.1,58.9,245.1z"/>
	<path class="st6" d="M120.3,297c-1.2,0.6-1.2,1.3-0.2,2.1C120.7,298.5,120.8,297.8,120.3,297z"/>
	<path class="st6" d="M118.1,327.5c-1,0.6-1.1,1.3-0.1,2.1C118.5,328.9,118.6,328.3,118.1,327.5z"/>
	<path class="st5" d="M133.3,69.2c0.4-3-0.9-6.3,1.1-9.1c-0.6-7.7,0.6-15.6-2.2-23.1c-0.8-2.2,1.2-2.5,2.4-3.2
		c6-3.5,12.1-6.8,18-10.4c2.1-1.3,5.8-2.8,4.7-5.7c-0.9-2.6-4.7-2-7.3-2c-10,0-20,1.3-29.9,2.4c-3.9,0.4-7.9,0.9-12.1,0.6
		c3.3-2.2,6.8-4.2,10-6.6c2.2-1.6,6.1-3.3,4.8-6.3c-1.2-2.9-5.2-1.6-7.9-1.3c-11.5,1.5-22.5,4.8-33.5,8.5c-8,2.7-16,5.5-24,8.3
		c-0.5,0.2-1,0.8-1.4,0c-0.1-0.1,0.5-0.5,0.7-0.8c1.1-1.9,2.3-3.7,3.3-5.7c0.6-1,1.4-2.1,0.5-3.2c-1.2-1.4-2.6-0.4-3.7,0.2
		c-2.4,1.3-4.7,2.8-6.8,4.4c-8.5,6.5-15.9,14.2-23,22.1c-1.5,1.7-2.8,3.2-5.7,3.2c-4.2,0.1-5.9,4.2-7.2,7.7c-4,10.8-3.9,21.9-1.5,33
		c0.6,2.6,0.8,5.4,2.6,7.5c0,0-0.1,0.1-0.1,0.1c0.5-1.2,1.1-2.4,1.5-3.7c1.7-5.7,5.2-8.7,9.7-8.5c6.4,0.3,5.3,5.2,5.8,9.2
		c0.1,0.7,0.2,1.3,0.3,2c0.8,1.9,1.3,3.9,1.2,6c0.3,1,0.6,2.1,1,3.1l-0.1-0.1c3.8,1,3.3-2.2,3.5-4c1.3-11.4,2.5-22.8,3.6-34.2
		c1.1-11.4,1.2-11.7,12.7-13.5c7.3-1.1,14.8-1.6,22.1-2.4c0.4-0.5,0.9-1.4,1.3-1.4c8.4-0.2,16.8-1.5,25.2,0.7
		c5.4,0.4,10.7-0.5,15.9-1.5c1.5-0.3,3.4-1.5,3.7,1.4c1.8,4.8,2.2,9.8,3,14.8c0.3,1.7-0.1,3.7,1.5,5.1c1.4,1.8,2,3.7,0.2,5.6
		c-0.6,2.8,1.6,5.3,1.2,8.1c1,0,2,0,2.9,0c0.3-0.5,0.6-1,1-1.4C132.3,73,132.2,71,133.3,69.2z"/>
	<path class="st5" d="M30.5,112.1c3.5-4.8,1.7-10.2,1.5-15.4c0-0.5-0.3-0.9-0.4-1.4c-6.8,1.9-12.3-0.1-16.5-5.6c0,0,0.1-0.1,0.1-0.1
		C17.4,99,23.6,105.8,30.5,112.1z"/>
	<path class="st6" d="M49.1,337.7c1.2-0.4,1.7-1,0.6-2C49.5,336.4,49.3,337.1,49.1,337.7z"/>
	<path class="st6" d="M67.7,346.6c0-0.6,0-1.1,0-1.7c-0.2,0.6-0.5,1.1-0.7,1.7c0,0,0.4,0,0.4,0L67.7,346.6z"/>
	<path class="st7" d="M133.3,69.2c-1.1,1.8-1,3.8-1.1,5.7c4.2,6.3,3.9,10.4-1.4,15c-1.1,1-1.9,1.8-1.7,3.3c0.5,4.5-0.1,9.1,1,13.6
		c4.1,3.8,8.1,0.6,11.7-0.6c3.4-1.2,1.3-4.7,0.7-7.1c-2.1-8.7-4.4-17.3-6.7-25.9C135.4,71.6,135.5,69.7,133.3,69.2z"/>
	<path class="st5" d="M76.5,115.7c3.9,11.7,18.8,16.2,28.2,8.6c2.1-1.7,1-4.1,1.5-6.1c0.4-2.1-0.2-4.3-0.4-6.5
		c-2-0.6-3.1,1.4-4.7,1.5c0.4,4.5-2.7,5.5-6.2,6C88.3,120,82.3,118.4,76.5,115.7z"/>
	<path class="st1" d="M91.1,104.9c2.6-0.4,5.3-0.7,7.9-1.2c3-0.6,2.9-3,2.7-5.2c-0.8-11.1-1.6-22.2-2.5-33.3
		c-0.2-3.1-0.6-6.1-1.1-10.2c-2,2.6-1.5,4.5-1.4,6.2c1,11.3,1.7,22.6,2,33.9c0.1,4.6-0.7,7.6-5.9,7.9c-0.7,0-1.4,0.6-2.2,0.9
		C90.8,104.2,90.9,104.6,91.1,104.9z"/>
	<path class="st8" d="M75.5,66.4c-4.2,1.3-6.8,4-6.3,8.5c0.4,4.2,3.6,6.4,7.5,7.1c4.6,0.7,8.3-0.8,10.2-5.4
		C79,79.2,74.3,75,75.5,66.4z"/>
	<path class="st8" d="M76.5,115.7c5.8,2.7,11.8,4.4,18.3,3.5c3.5-0.5,6.6-1.5,6.2-6c-8.9,2.4-17.5,3-25.1-4.1
		C74.9,111.7,76.2,113.6,76.5,115.7z"/>
	<path class="st8" d="M109,66.5c-3.8,1.2-6.3,3.6-5.7,7.7c0.5,4,3.5,6.1,7.4,6.4c3.9,0.2,7.5-0.5,8.4-5.2
		C111.7,78,108,74.7,109,66.5z"/>
	<path class="st9" d="M75.5,66.4C74.3,75,79,79.2,86.9,76.5c1.6-6.5-1.5-10.2-8-9.6C77.7,67.1,76.5,67.3,75.5,66.4z"/>
	<path class="st9" d="M77.1,59.3c2.5-0.1,5.1-0.4,7.6-0.3c2.6,0.1,3-1.2,2.9-3.5c-0.2-2.6-1.4-2.5-3.4-2c-4.3,1-8.6,1.8-12.9,2.8
		c-1.3,0.3-3.6,0-3.2,2.3c0.4,2.1,2.5,1,3.9,1C73.8,59.6,75.5,59.4,77.1,59.3z"/>
	<path class="st9" d="M109,66.5c-1,8.3,2.7,11.5,10.1,8.9c0,0-0.1,0.1-0.1,0.1c0.1-0.3,0.2-0.5,0.3-0.8
		C118.6,67.5,116.2,65.6,109,66.5z"/>
	<path class="st9" d="M110,62.2c1.9-0.9,6,1.1,6.1-2.2c0-2.7-4.1-1.7-6.4-2.3c-1.5-0.4-3.7-1.9-4.5,1.1
		C103.6,64.1,107.4,62.1,110,62.2z"/>
	<path class="st4" d="M131.2,76.4c-1,0-2,0-2.9,0c-0.7,2.7-0.2,5.2,0.5,8.5C130.9,82,131.5,79.4,131.2,76.4z"/>
	<path class="st4" d="M127,68.3c1.8-1.9,1.2-3.8-0.2-5.6C125.9,64.6,126.6,66.5,127,68.3z"/>
	<path class="st10" d="M119.3,74.7c-0.1,0.2-0.2,0.5-0.3,0.8C118.9,75.2,119,74.9,119.3,74.7z"/>
	<path class="st5" d="M75.3,257.6c10.5-0.1,21.1-0.3,31.6-0.4c1.3-2.7,6.1-4.2,4.6-7c-1.2-2.4-5.6-0.8-8.5-0.9
		c-7.6-0.2-15,1.4-22.6,1.1C75.2,250.1,76.3,254.7,75.3,257.6z"/>
	<path class="st6" d="M70.3,294.1c0.6-0.6,0.7-1.3,0.3-2.1C69.3,292.5,69.2,293.2,70.3,294.1z"/>
	<path class="st2" d="M15,89.6c4.3,5.5,9.7,7.5,16.5,5.6c0.7-0.2,1.3-0.4,2-0.6c0.1-2.1-0.5-4.1-1.2-6c-1.5,3-3.6,4-6.5,1.9
		c-1.3-1-3.1-2.2-1.7-4.1c2.1-2.7,4.6-2.4,7-0.3c0.3,0.2,0.6,0.4,0.8,0.6c-0.5-4,0.6-8.8-5.8-9.2c-4.5-0.2-8,2.7-9.7,8.5
		C16.1,87.2,15.5,88.4,15,89.6z"/>
	<path class="st4" d="M102.7,42.9c-8.3-2.2-16.8-0.8-25.2-0.7c-0.4,0-0.9,0.9-1.3,1.4C85.1,43.7,93.9,43.7,102.7,42.9z"/>
	<path class="st5" d="M34.5,97.8c-0.1,0.1-0.2,0.2-0.3,0.2C34.2,97.9,34.3,97.8,34.5,97.8C34.4,97.7,34.5,97.8,34.5,97.8z"/>
	<path class="st1" d="M32,86.7c-0.3-0.2-0.6-0.3-0.8-0.6c-2.4-2.1-4.9-2.4-7,0.3c-1.4,1.9,0.4,3.1,1.7,4.1c2.9,2.1,5,1.2,6.5-1.9
		C32.2,88,32.1,87.4,32,86.7z"/>
</g>
</svg>
