<?xml version="1.0" encoding="utf-8"?>
<!-- Generator: Adobe Illustrator 22.0.1, SVG Export Plug-In . SVG Version: 6.00 Build 0)  -->
<svg version="1.1" id="Layer_1" xmlns="http://www.w3.org/2000/svg" xmlns:xlink="http://www.w3.org/1999/xlink" x="0px" y="0px"
	 viewBox="0 0 120 120" style="enable-background:new 0 0 120 120;" xml:space="preserve">
<style type="text/css">
	.st0{fill:none;stroke:#FC7F2B;}
	.st1{fill:#FF6010;}
</style>
<circle class="st0" cx="60" cy="60" r="59.5"/>
<g>
	<path class="st1" d="M81.9,61.4c-0.5,0-1,0.1-1.4,0.2c-0.9-2-3.1-3-5.2-2.4c-0.6-1.3-1.7-2.2-3.1-2.5c-0.8-0.1-1.6-0.1-2.3,0.2
		l-0.3-8.7c-0.1-2.1-1.6-3.8-3.6-4.1c-2.3-0.3-4.4,1.3-4.7,3.6c0,0.1,0,0.3,0,0.4L60.7,69c-0.1-0.1-0.3-0.2-0.4-0.4l-1.6-2.8
		c-1.4-2.3-3.9-3.5-6.6-3.2c-1.6,0.2-2.7,1.7-2.5,3.3c0,0.3,0.1,0.7,0.3,1l6.2,12c0.6,1.1,1.4,2,2.5,2.6l0.2,0.1l3.1,1.3l0.1,0
		c0.5,0.2,0.9,0.6,1.1,1.1l0.3,1c0.2,0.7,1,1.1,1.7,0.8c0.7-0.2,1-1,0.8-1.7l-0.3-0.9c-0.4-1.3-1.5-2.3-2.8-2.8l-3-1.2
		c-0.6-0.4-1.1-0.9-1.4-1.5l-6.2-12c-0.1-0.1,0-0.3,0.1-0.4c0,0,0.1,0,0.1,0c1.6-0.2,3.1,0.5,3.9,1.9L58,70c0,0,0.1,0.1,0.1,0.1
		c1.1,1.4,3,2.4,4.6,1.3c0.4-0.2,0.6-0.6,0.6-1.1l0.6-22.1c0-0.8,0.7-1.5,1.6-1.5c0.1,0,0.1,0,0.2,0c0.7,0.1,1.3,0.8,1.3,1.5
		L67.2,60c0,0.7,0.6,1.3,1.4,1.3c0.5,0,1-0.3,1.2-0.8c0.3-0.8,1.1-1.2,1.9-1c0.8,0.2,1.3,0.9,1.3,1.7v0.3c0,0.7,0.6,1.3,1.3,1.3
		c0.4,0,0.8-0.2,1-0.5c0.4-0.4,0.9-0.6,1.5-0.5c0.8,0.2,1.4,0.9,1.4,1.7v0.3c0,0.7,0.6,1.3,1.3,1.3c0.4,0,0.8-0.2,1-0.5
		c0.3-0.4,0.8-0.6,1.3-0.6c0.9,0.1,1.6,0.9,1.6,1.8v9.5c0,2.9-1.8,5.1-2.6,5.8c-0.5,0.5-0.9,1.1-1.2,1.8l-0.3,1
		c-0.2,0.7,0.1,1.5,0.8,1.7s1.5-0.1,1.7-0.8l0.3-1c0.1-0.3,0.3-0.6,0.5-0.9c1.3-1.3,3.4-4,3.4-7.7v-9.5C86,63.5,84.2,61.6,81.9,61.4
		z"/>
	<path class="st1" d="M70,38.8c0-0.7-0.6-1.3-1.3-1.3H50.3c-0.7,0-1.3,0.6-1.3,1.3s0.6,1.3,1.3,1.3h18.4C69.4,40.2,70,39.6,70,38.8z
		"/>
	<path class="st1" d="M34.7,39.5c0.9,0.5,1.7,1.3,2.2,2.2c0.2,0.4,0.6,0.6,1.1,0.7h0.1c0.4,0,0.8-0.2,1.1-0.6
		c1.4-2.1,3.2-3.8,5.3-5.3c0.6-0.4,0.8-1.2,0.3-1.8c-0.4-0.6-1.2-0.8-1.8-0.3c-1.8,1.3-3.4,2.8-4.8,4.5c-0.6-0.7-1.3-1.2-2.1-1.7
		c-0.6-0.4-1.4-0.2-1.8,0.5C33.8,38.3,34,39.2,34.7,39.5C34.7,39.5,34.7,39.5,34.7,39.5z"/>
	<path class="st1" d="M57.7,47.9c0-0.7-0.6-1.3-1.3-1.3h-6c-0.7,0-1.3,0.6-1.3,1.3s0.6,1.3,1.3,1.3h6C57.1,49.2,57.7,48.6,57.7,47.9
		z"/>
	<path class="st1" d="M34.7,49.1c0.9,0.5,1.7,1.3,2.2,2.2c0.2,0.4,0.6,0.6,1.1,0.7h0.1c0.4,0,0.8-0.2,1.1-0.6
		c1.4-2.1,3.2-3.8,5.3-5.3c0.6-0.4,0.8-1.2,0.3-1.8c-0.4-0.6-1.2-0.8-1.8-0.3c-1.8,1.3-3.4,2.8-4.8,4.5c-0.6-0.7-1.3-1.2-2.1-1.7
		c-0.6-0.4-1.4-0.2-1.8,0.5C33.8,47.9,34,48.7,34.7,49.1C34.7,49.1,34.7,49.1,34.7,49.1L34.7,49.1z"/>
	<path class="st1" d="M55.8,58.3c0.7,0,1.3-0.6,1.3-1.3c0-0.7-0.6-1.3-1.3-1.3h-5.5c-0.7,0-1.3,0.6-1.3,1.3c0,0.7,0.6,1.3,1.3,1.3
		H55.8z"/>
	<path class="st1" d="M34.7,58.7c0.9,0.5,1.7,1.3,2.2,2.2c0.2,0.4,0.6,0.6,1.1,0.7h0.1c0.4,0,0.8-0.2,1.1-0.6
		c1.4-2.1,3.2-3.8,5.3-5.3c0.6-0.4,0.8-1.2,0.3-1.8s-1.2-0.8-1.8-0.3c-1.8,1.3-3.4,2.8-4.8,4.5c-0.6-0.7-1.3-1.2-2.1-1.7
		c-0.6-0.4-1.4-0.2-1.8,0.5S34,58.3,34.7,58.7C34.7,58.7,34.7,58.7,34.7,58.7L34.7,58.7z"/>
</g>
</svg>
