<?xml version="1.0" encoding="utf-8"?>
<!-- Generator: Adobe Illustrator 22.0.1, SVG Export Plug-In . SVG Version: 6.00 Build 0)  -->
<svg version="1.1" id="Layer_1" xmlns="http://www.w3.org/2000/svg" xmlns:xlink="http://www.w3.org/1999/xlink" x="0px" y="0px"
	 viewBox="0 0 334 352" style="enable-background:new 0 0 334 352;" xml:space="preserve">
<style type="text/css">
	.st0{fill:#FF6010;}
	.st1{fill:#FFFFFF;}
	.st2{fill:#2BB6D6;}
	.st3{fill:#FF8040;}
	.st4{fill:#EC3C00;}
	.st5{fill:#E99300;}
	.st6{fill:#FCA96B;}
	.st7{fill:#E29154;}
	.st8{fill:#FDD9BE;}
	.st9{fill:#35A5AA;}
	.st10{fill:#2B5168;}
	.st11{opacity:0.75;fill:#FDD9BE;}
	.st12{fill-rule:evenodd;clip-rule:evenodd;fill:#FF6010;}
	.st13{fill:#222830;}
	.st14{fill:#FF5539;}
	.st15{clip-path:url(#SVGID_2_);fill:#F3F9F7;}
	.st16{clip-path:url(#SVGID_4_);fill:#2D2D2D;}
	.st17{clip-path:url(#SVGID_4_);}
	.st18{clip-path:url(#SVGID_4_);fill:#FFFFFF;}
	.st19{clip-path:url(#SVGID_6_);fill:#2D2D2D;}
	.st20{clip-path:url(#SVGID_6_);}
	.st21{clip-path:url(#SVGID_6_);fill:#FFFFFF;}
</style>
<g>
	<g>
		<path class="st0" d="M303.6,248.5l-1-0.6l0.3-0.5c0.5-0.9,1.1-1.9,1.6-2.9l0.3-0.5l1,0.6l-0.3,0.5c-0.5,1-1.1,1.9-1.6,2.9
			L303.6,248.5z"/>
		<path class="st0" d="M307.6,241l-1.1-0.5l0.3-0.5c0.5-1,1-2,1.4-2.9l0.3-0.5l1.1,0.5l-0.3,0.5c-0.5,1-1,2-1.4,3L307.6,241z"/>
		<path class="st0" d="M311.3,233.2l-1.1-0.5l0.2-0.5c0.4-1,0.9-2,1.3-3l0.2-0.5l1.1,0.4l-0.2,0.5c-0.4,1-0.8,2-1.3,3L311.3,233.2z"
			/>
		<path class="st0" d="M314.5,225.2l-1.1-0.4l0.2-0.6c0.4-1,0.7-2.1,1.1-3.1l0.2-0.6l1.1,0.4l-0.2,0.6c-0.4,1-0.7,2.1-1.1,3.1
			L314.5,225.2z"/>
		<path class="st1" d="M317.3,217.1l-1.1-0.3l0.2-0.6c0.3-1,0.6-2.1,0.9-3.1l0.2-0.6l1.1,0.3l-0.2,0.6c-0.3,1.1-0.6,2.1-0.9,3.2
			L317.3,217.1z"/>
		<path class="st1" d="M319.6,208.9l-1.1-0.3l0.1-0.6c0.3-1.1,0.5-2.1,0.7-3.2l0.1-0.6l1.2,0.3l-0.1,0.6c-0.2,1.1-0.5,2.1-0.8,3.2
			L319.6,208.9z"/>
		<path class="st1" d="M321.4,200.5l-1.2-0.2l0.1-0.6c0.2-1.1,0.4-2.2,0.6-3.2l0.1-0.6l1.2,0.2l-0.1,0.6c-0.2,1.1-0.4,2.2-0.6,3.2
			L321.4,200.5z"/>
		<path class="st0" d="M322.8,192.1l-1.2-0.2l0.1-0.6c0.1-1.1,0.3-2.2,0.4-3.2l0.1-0.6l1.2,0.1l-0.1,0.6c-0.1,1.1-0.3,2.2-0.4,3.3
			L322.8,192.1z"/>
		<path class="st0" d="M323.7,183.5l-1.2-0.1l0-0.6c0.1-1.1,0.2-2.2,0.2-3.3l0-0.6l1.2,0.1l0,0.6c-0.1,1.1-0.1,2.2-0.2,3.3
			L323.7,183.5z"/>
		<path class="st0" d="M324.1,175l-1.2,0l0-0.6c0-1.1,0-2.2,0-3.3v-0.7h1.2v0.7c0,1.1,0,2.2,0,3.3L324.1,175z"/>
		<path class="st0" d="M322.9,166.3l0-0.6c0-1.1-0.1-2.2-0.1-3.3l0-0.6l1.2-0.1l0,0.6c0.1,1.1,0.1,2.2,0.1,3.3l0,0.6L322.9,166.3z"
			/>
		<path class="st0" d="M322.4,157.9l-0.1-0.6c-0.1-1.1-0.2-2.2-0.3-3.3l-0.1-0.6l1.2-0.1l0.1,0.6c0.1,1.1,0.2,2.2,0.3,3.3l0.1,0.6
			L322.4,157.9z"/>
		<path class="st0" d="M315.9,124.6l-0.2-0.6c-0.3-1-0.7-2.1-1-3.1l-0.2-0.6l1.1-0.4l0.2,0.6c0.4,1,0.7,2.1,1,3.1l0.2,0.6
			L315.9,124.6z"/>
		<path class="st0" d="M313.1,116.6l-0.2-0.6c-0.4-1-0.8-2-1.2-3l-0.2-0.5l1.1-0.4l0.2,0.5c0.4,1,0.8,2,1.2,3.1l0.2,0.6L313.1,116.6
			z"/>
		<path class="st0" d="M309.8,108.7l-0.2-0.5c-0.4-1-0.9-2-1.4-3l-0.3-0.5l1.1-0.5l0.3,0.5c0.5,1,0.9,2,1.4,3l0.2,0.5L309.8,108.7z"
			/>
		<path class="st0" d="M306.2,101.1l-0.3-0.5c-0.5-1-1-1.9-1.5-2.9l-0.3-0.5l1-0.6l0.3,0.5c0.5,1,1,1.9,1.5,2.9l0.3,0.5L306.2,101.1
			z"/>
		<path class="st1" d="M302.1,93.6l-0.3-0.5c-0.5-0.9-1.1-1.9-1.7-2.8l-0.3-0.5l1-0.6l0.3,0.5c0.6,0.9,1.1,1.9,1.7,2.8l0.3,0.5
			L302.1,93.6z"/>
		<polygon class="st2" points="319.4,277.4 316,283.4 314.2,278.4 		"/>
		<polygon class="st0" points="309.4,199.5 321.6,188.5 333.8,199.4 333.7,214.5 309.8,214.5 		"/>
		<rect x="311.6" y="193.9" class="st1" width="20.2" height="19.6"/>
		<polygon class="st3" points="333.8,216.7 309.4,216.7 309.4,200 318.1,208.6 325.3,208.8 333.8,200 		"/>
		<polygon class="st0" points="309.4,216.7 333.8,216.7 325.2,208.6 318.1,208.6 		"/>
		<polygon class="st3" points="309.5,216.7 309.5,200 318.1,208.6 		"/>
		<path class="st3" d="M331.6,136.4l-1.8,0c-0.3-1.1-0.7-2-1.3-2.9l0,0l1.3-1.3c0.3-0.3,0.3-0.8,0-1l-2.3-2.2c-0.3-0.3-0.8-0.3-1,0
			l-1.4,1.3c-0.9-0.5-1.5-0.9-3-1.1v0l0.1-1.8c0-0.4-0.3-0.7-0.7-0.7l-3.1,0.1c-0.4,0-0.5,0.3-0.5,0.7l0.1,1.8
			c-1.1,0.3-2,0.7-2.9,1.3l0,0l-1.3-1.3c-0.3-0.3-0.8-0.3-1.1,0l-2.2,2.3c-0.3,0.3-0.3,0.8,0,1l1.3,1.4c-0.5,0.9-0.9,1.5-1.1,3h0
			l-1.8,0c-0.4,0-0.6,0.2-0.6,0.6l0.1,3.2c0,0.4,0.2,0.7,0.7,0.7l1.8-0.1c0.3,1.1,0.7,2,1.3,2.8l0,0l-1.3,1.3c-0.3,0.3-0.3,0.8,0,1
			l2.3,2.2c0.3,0.3,0.8,0.3,1,0l1.3-1.3c0.9,0.5,1.8,0.9,3,1.1v0l0,1.8c0,0.4,0.2,0.8,0.6,0.8l3.2-0.1c0.4,0,0.8-0.4,0.7-0.8
			l-0.2-1.8c1.1-0.3,1.9-0.7,2.7-1.3v0l1.4,1.3c0.3,0.3,0.8,0.3,1.1,0l2.2-2.3c0.3-0.3,0.3-0.8,0-1l-1.3-1.4c0.5-0.9,0.9-1.4,1.1-3
			h0l1.8,0c0.4,0,0.8-0.3,0.8-0.7l-0.1-3.2C332.4,136.6,332,136.4,331.6,136.4z M318.4,143.2c0,0-0.1,0-0.1-0.1
			c-0.1-0.1-0.3-0.1-0.4-0.2c-0.1,0-0.1-0.1-0.2-0.1c-0.1,0-0.1-0.1-0.2-0.1c0,0-0.1,0-0.1-0.1c-0.2-0.1-0.3-0.3-0.5-0.4
			c-0.2-0.1-0.3-0.3-0.4-0.5c-0.1-0.1-0.1-0.1-0.1-0.2c-0.1-0.2-0.3-0.4-0.4-0.7c-0.3-0.5-0.4-1.2-0.4-1.8c0-1.3,0.5-2.6,1.4-3.4
			c0.1-0.1,0.2-0.1,0.2-0.2c0,0,0.1,0,0.1-0.1c0.1,0,0.1-0.1,0.2-0.1c0.2-0.1,0.4-0.2,0.6-0.3c0.1,0,0.1-0.1,0.2-0.1
			c0.5-0.2,1.1-0.4,1.8-0.4c0.8,0,1.5,0.1,2.1,0.4c0.1,0,0.1,0.1,0.2,0.1c0.1,0.1,0.2,0.1,0.3,0.2c0.1,0,0.1,0.1,0.2,0.1
			c0,0,0.1,0,0.1,0.1c0.1,0,0.1,0.1,0.2,0.1c0.1,0.1,0.2,0.1,0.2,0.2c0.1,0.1,0.1,0.1,0.2,0.2c0.1,0.1,0.2,0.3,0.4,0.4
			c0,0.1,0.1,0.1,0.1,0.2c0,0.1,0.1,0.1,0.1,0.2c0.1,0.1,0.1,0.2,0.2,0.3c0.3,0.6,0.5,1.3,0.5,2c0,0.4,0,0.8-0.1,1.1
			c0,0.1,0,0.1-0.1,0.2c0,0.1-0.1,0.2-0.1,0.3c0,0.1-0.1,0.1-0.1,0.2c0,0,0,0.1-0.1,0.1c0,0.1-0.1,0.2-0.1,0.3
			c0,0.1-0.1,0.1-0.1,0.2c0,0.1-0.1,0.1-0.1,0.1c0,0-0.1,0.1-0.1,0.1c0,0,0,0.1-0.1,0.1c0,0.1-0.1,0.1-0.1,0.2c0,0,0,0.1-0.1,0.1
			c0,0.1-0.1,0.1-0.1,0.2c0,0-0.1,0.1-0.1,0.1c-0.1,0.1-0.2,0.2-0.3,0.3c0,0-0.1,0-0.1,0.1c-0.1,0-0.1,0.1-0.2,0.1
			c-0.1,0-0.1,0.1-0.2,0.1c0,0-0.1,0-0.1,0.1c-0.1,0-0.1,0.1-0.2,0.1c-0.6,0.3-1.3,0.5-2.1,0.6c-0.6,0-1.2-0.1-1.7-0.3
			C318.5,143.2,318.5,143.2,318.4,143.2z"/>
		<path class="st4" d="M317.3,154.7l-0.9,0.3c-0.3-0.5-0.6-0.9-1-1.3l0,0l0.5-0.8c0.1-0.2,0-0.4-0.2-0.5l-1.4-0.8
			c-0.2-0.1-0.4,0-0.5,0.2l-0.5,0.8c-0.5-0.1-0.9-0.2-1.7-0.1l0,0l-0.2-0.9c-0.1-0.2-0.2-0.3-0.4-0.2l-1.6,0.5
			c-0.2,0.1-0.2,0.2-0.2,0.4l0.3,0.9c-0.5,0.3-0.9,0.6-1.3,1l0,0l-0.8-0.4c-0.2-0.1-0.4,0-0.5,0.2l-0.8,1.4c-0.1,0.2,0,0.4,0.2,0.5
			l0.8,0.5c-0.1,0.5-0.3,0.8-0.1,1.7l0,0l-0.9,0.2c-0.2,0.1-0.3,0.2-0.2,0.4l0.5,1.6c0.1,0.2,0.2,0.3,0.4,0.2l0.9-0.3
			c0.3,0.5,0.6,0.9,1,1.2l0,0l-0.5,0.8c-0.1,0.2,0,0.4,0.2,0.5l1.4,0.8c0.2,0.1,0.4,0,0.5-0.2l0.5-0.8c0.5,0.1,1,0.2,1.6,0.2l0,0
			l0.3,0.9c0.1,0.2,0.2,0.4,0.4,0.3l1.6-0.5c0.2-0.1,0.3-0.3,0.3-0.5l-0.3-0.9c0.5-0.3,0.9-0.6,1.2-1l0,0l0.9,0.4
			c0.2,0.1,0.4,0,0.5-0.2l0.8-1.4c0.1-0.2,0-0.4-0.1-0.5l-0.8-0.5c0.1-0.5,0.3-0.8,0.2-1.6l0,0l0.9-0.2c0.2-0.1,0.4-0.3,0.3-0.5
			l-0.5-1.6C317.8,154.7,317.5,154.7,317.3,154.7z M311.7,159.8C311.6,159.8,311.6,159.8,311.7,159.8c-0.1,0-0.2,0-0.3-0.1
			c0,0-0.1,0-0.1,0s-0.1,0-0.1,0c0,0,0,0-0.1,0c-0.1,0-0.2-0.1-0.3-0.1c-0.1-0.1-0.2-0.1-0.3-0.2c0,0-0.1-0.1-0.1-0.1
			c-0.1-0.1-0.2-0.2-0.3-0.3c-0.2-0.2-0.4-0.5-0.4-0.8c-0.2-0.7-0.1-1.3,0.2-1.9c0,0,0.1-0.1,0.1-0.1c0,0,0,0,0,0c0,0,0-0.1,0.1-0.1
			c0.1-0.1,0.2-0.2,0.2-0.2c0,0,0.1-0.1,0.1-0.1c0.2-0.2,0.5-0.3,0.8-0.4c0.4-0.1,0.7-0.1,1.1-0.1c0,0,0.1,0,0.1,0
			c0.1,0,0.1,0,0.2,0c0,0,0.1,0,0.1,0c0,0,0,0,0.1,0c0,0,0.1,0,0.1,0c0.1,0,0.1,0,0.2,0.1c0,0,0.1,0,0.1,0.1c0.1,0,0.2,0.1,0.2,0.2
			c0,0,0.1,0,0.1,0.1s0.1,0.1,0.1,0.1c0,0,0.1,0.1,0.1,0.1c0.2,0.3,0.4,0.6,0.5,0.9c0.1,0.2,0.1,0.4,0.1,0.6c0,0,0,0.1,0,0.1
			c0,0.1,0,0.1,0,0.2c0,0,0,0.1,0,0.1c0,0,0,0.1,0,0.1c0,0.1,0,0.1,0,0.1c0,0,0,0.1,0,0.1c0,0,0,0.1,0,0.1c0,0,0,0.1,0,0.1
			c0,0,0,0,0,0.1c0,0,0,0.1,0,0.1c0,0,0,0,0,0.1c0,0,0,0.1-0.1,0.1c0,0,0,0,0,0c0,0.1-0.1,0.1-0.1,0.2c0,0,0,0,0,0
			c0,0,0,0.1-0.1,0.1c0,0,0,0.1-0.1,0.1c0,0,0,0,0,0c0,0-0.1,0.1-0.1,0.1c-0.3,0.2-0.6,0.4-1,0.6C312.3,159.9,312,159.9,311.7,159.8
			C311.7,159.8,311.7,159.8,311.7,159.8z"/>
		<g>
			<g>
				<g>
					<g>
						<g>
							<g>
								<path class="st3" d="M211,62.9l-1.3,4.5c-0.1,0.3-0.1,0.4-0.1,0.5c0,0,0,0.1,0.1,0.1c0,0,0.1,0.1,0.1,0.1
									c0.1,0,0.1,0,0.2-0.1c0.2-0.2,0.4-0.4,0.7-0.9l0.2,0.1c-0.6,1.1-1.3,1.7-2.1,1.7c-0.3,0-0.5-0.1-0.7-0.2
									c-0.2-0.2-0.2-0.4-0.2-0.6c0-0.2,0-0.4,0.1-0.6l0.9-3.1c0.1-0.3,0.1-0.5,0.1-0.7c0-0.1,0-0.2-0.1-0.3
									c-0.1-0.1-0.2-0.1-0.3-0.1c-0.1,0-0.1,0-0.2,0l0.1-0.3l2.2-0.3H211z M210.6,60c0.3,0,0.5,0.1,0.7,0.3
									c0.2,0.2,0.3,0.4,0.3,0.7c0,0.3-0.1,0.5-0.3,0.7c-0.2,0.2-0.4,0.3-0.7,0.3c-0.3,0-0.5-0.1-0.7-0.3c-0.2-0.2-0.3-0.4-0.3-0.7
									c0-0.3,0.1-0.5,0.3-0.7C210.1,60.1,210.3,60,210.6,60z"/>
							</g>
						</g>
					</g>
					<g>
						<g>
							<g>
								<path class="st3" d="M209.6,56.7c-4.5,0-8.1,3.6-8.1,8.1c0,4.5,3.6,8.1,8.1,8.1c4.5,0,8.1-3.6,8.1-8.1
									C217.8,60.3,214.1,56.7,209.6,56.7z M209.6,72.1c-4,0-7.3-3.3-7.3-7.3c0-4,3.3-7.3,7.3-7.3c4,0,7.3,3.3,7.3,7.3
									C217,68.8,213.7,72.1,209.6,72.1z"/>
							</g>
						</g>
					</g>
				</g>
			</g>
			<g>
				<path class="st3" d="M223.7,199.2l0-6.1h7v18h-13v-12L223.7,199.2z M216.7,198.8v12.3v0.9h0.9h13h0.9v-0.9v-18v-0.9h-0.9h-7.2
					L216.7,198.8z"/>
				
					<rect x="219" y="201.9" transform="matrix(-1 -1.224647e-16 1.224647e-16 -1 447.9879 404.515)" class="st3" width="10.1" height="0.8"/>
				
					<rect x="219" y="204.6" transform="matrix(-1 -1.224647e-16 1.224647e-16 -1 447.9879 410.0879)" class="st3" width="10.1" height="0.8"/>
				
					<rect x="219" y="207.4" transform="matrix(-1 -1.224647e-16 1.224647e-16 -1 447.9879 415.6609)" class="st3" width="10.1" height="0.8"/>
			</g>
			<g>
				<g>
					<g>
						<polygon class="st5" points="269.9,257.9 246.7,257.9 246.7,235.4 247.2,235.4 247.2,257.6 269.9,257.6 						"/>
						<g>
							<path class="st5" d="M247,232.2c-0.5,1.4-1.4,3.2-2.4,4.3l2.4-0.9l2.4,0.9C248.5,235.4,247.6,233.6,247,232.2z"/>
						</g>
						<g>
							<path class="st5" d="M272.7,257.7c-1.4,0.5-3.2,1.4-4.3,2.4l0.9-2.4l-0.9-2.4C269.5,256.3,271.3,257.2,272.7,257.7z"/>
						</g>
					</g>
				</g>
				<rect x="249.8" y="245.8" class="st5" width="3.6" height="11.7"/>
				<rect x="256.3" y="242.5" class="st5" width="3.8" height="15"/>
				<rect x="263.2" y="239.6" class="st5" width="3.8" height="17.9"/>
			</g>
			<path class="st3" d="M113.8,212l-1.8,0c-0.3-1.1-0.7-1.9-1.2-2.8l0,0l1.2-1.3c0.3-0.3,0.3-0.7,0-1l-2.2-2.1c-0.3-0.3-0.7-0.3-1,0
				l-1.3,1.3c-0.9-0.5-1.4-0.9-2.9-1.1v0l0.1-1.8c0-0.4-0.3-0.7-0.7-0.7l-3,0.1c-0.4,0-0.5,0.3-0.5,0.7l0.1,1.8
				c-1.1,0.3-2,0.7-2.8,1.2l0,0l-1.3-1.2c-0.3-0.3-0.7-0.3-1,0l-2.1,2.2c-0.3,0.3-0.3,0.7,0,1l1.3,1.3c-0.5,0.9-0.9,1.4-1.1,2.9h0
				l-1.8,0c-0.4,0-0.6,0.2-0.6,0.6l0.1,3c0,0.4,0.2,0.7,0.6,0.6l1.8-0.1c0.3,1.1,0.7,1.9,1.2,2.7l0,0l-1.2,1.3c-0.3,0.3-0.3,0.7,0,1
				l2.2,2.1c0.3,0.3,0.7,0.3,1,0l1.3-1.3c0.9,0.5,1.7,0.9,2.9,1.1v0l0,1.8c0,0.4,0.2,0.7,0.6,0.7l3.1-0.1c0.4,0,0.7-0.4,0.7-0.8
				l-0.2-1.8c1.1-0.3,1.8-0.7,2.6-1.2v0l1.4,1.2c0.3,0.3,0.8,0.3,1.1,0l2.1-2.2c0.3-0.3,0.3-0.7,0-1l-1.3-1.3
				c0.5-0.9,0.9-1.4,1.1-2.9h0l1.8,0c0.4,0,0.8-0.3,0.8-0.7l-0.1-3C114.6,212.2,114.2,212,113.8,212z M101.1,218.6
				c0,0-0.1,0-0.1-0.1c-0.1-0.1-0.3-0.1-0.4-0.2c-0.1,0-0.1-0.1-0.2-0.1c-0.1,0-0.1-0.1-0.2-0.1c0,0-0.1,0-0.1-0.1
				c-0.2-0.1-0.3-0.3-0.5-0.4c-0.1-0.1-0.3-0.3-0.4-0.5c0-0.1-0.1-0.1-0.1-0.2c-0.1-0.2-0.3-0.4-0.4-0.6c-0.2-0.5-0.4-1.1-0.4-1.7
				c0-1.3,0.5-2.5,1.4-3.3c0.1-0.1,0.2-0.1,0.2-0.2c0,0,0.1,0,0.1-0.1c0.1,0,0.1-0.1,0.2-0.1c0.2-0.1,0.4-0.2,0.5-0.3
				c0.1,0,0.1-0.1,0.2-0.1c0.5-0.2,1.1-0.4,1.7-0.4c0.7,0,1.4,0.1,2,0.4c0.1,0,0.1,0.1,0.2,0.1c0.1,0.1,0.2,0.1,0.3,0.2
				c0.1,0,0.1,0.1,0.2,0.1c0,0,0.1,0,0.1,0.1c0.1,0,0.1,0.1,0.2,0.1c0.1,0.1,0.2,0.1,0.2,0.2c0.1,0,0.1,0.1,0.1,0.1
				c0.1,0.1,0.2,0.3,0.3,0.4c0,0.1,0.1,0.1,0.1,0.2c0,0.1,0.1,0.1,0.1,0.2c0.1,0.1,0.1,0.2,0.2,0.3c0.3,0.6,0.5,1.2,0.5,1.9
				c0,0.4,0,0.8-0.1,1.1c0,0.1,0,0.1-0.1,0.2c0,0.1-0.1,0.2-0.1,0.3c0,0.1-0.1,0.1-0.1,0.2c0,0,0,0.1-0.1,0.1c0,0.1-0.1,0.2-0.1,0.3
				c0,0.1-0.1,0.1-0.1,0.2c0,0-0.1,0.1-0.1,0.1c0,0-0.1,0.1-0.1,0.1c0,0,0,0.1-0.1,0.1c0,0.1-0.1,0.1-0.1,0.2c0,0,0,0.1-0.1,0.1
				c0,0.1-0.1,0.1-0.1,0.2c0,0,0,0.1-0.1,0.1c-0.1,0.1-0.2,0.2-0.3,0.3c0,0-0.1,0-0.1,0.1c-0.1,0-0.1,0.1-0.2,0.1
				c-0.1,0-0.1,0.1-0.2,0.1c0,0-0.1,0-0.1,0.1c-0.1,0-0.1,0.1-0.2,0.1c-0.6,0.3-1.3,0.5-2,0.5c-0.6,0-1.1-0.1-1.7-0.3
				C101.2,218.6,101.2,218.6,101.1,218.6z"/>
			<path class="st0" d="M165.2,326.4l-0.6,0c-1.1,0-2.2-0.1-3.3-0.1l-0.6,0l0.1-1.2l0.6,0c1.1,0.1,2.2,0.1,3.3,0.1l0.6,0
				L165.2,326.4z"/>
			<path class="st0" d="M177.8,326.2l-0.1-1.2l0.6,0c1.1-0.1,2.2-0.1,3.3-0.2l0.6,0l0.1,1.2l-0.6,0c-1.1,0.1-2.2,0.2-3.3,0.2
				L177.8,326.2z"/>
			<path class="st0" d="M156.7,326l-0.6,0c-1.1-0.1-2.2-0.2-3.3-0.3l-0.6-0.1l0.1-1.2l0.6,0.1c1.1,0.1,2.2,0.2,3.3,0.3l0.6,0
				L156.7,326z"/>
			<path class="st0" d="M186.4,325.5l-0.1-1.2l0.6-0.1c1.1-0.1,2.2-0.3,3.2-0.4l0.6-0.1l0.2,1.2l-0.6,0.1c-1.1,0.1-2.2,0.3-3.3,0.4
				L186.4,325.5z"/>
			<path class="st0" d="M194.9,324.3l-0.2-1.2l0.6-0.1c1.1-0.2,2.1-0.4,3.2-0.6l0.6-0.1l0.2,1.2l-0.6,0.1c-1.1,0.2-2.2,0.4-3.2,0.6
				L194.9,324.3z"/>
			<path class="st0" d="M203.2,322.6l-0.3-1.2l0.6-0.1c1.1-0.2,2.1-0.5,3.2-0.8l0.6-0.1l0.3,1.1l-0.6,0.1c-1.1,0.3-2.1,0.5-3.2,0.8
				L203.2,322.6z"/>
			<path class="st0" d="M131.3,321.9l-0.6-0.1c-1.1-0.3-2.1-0.5-3.2-0.8l-0.6-0.2l0.3-1.1l0.6,0.2c1,0.3,2.1,0.6,3.2,0.8l0.6,0.1
				L131.3,321.9z"/>
			<path class="st0" d="M211.5,320.5l-0.3-1.1l0.6-0.2c1-0.3,2.1-0.6,3.1-0.9l0.6-0.2l0.4,1.1l-0.6,0.2c-1,0.3-2.1,0.6-3.2,0.9
				L211.5,320.5z"/>
			<path class="st0" d="M123.1,319.6l-0.6-0.2c-1-0.3-2.1-0.7-3.1-1l-0.6-0.2l0.4-1.1l0.6,0.2c1,0.3,2.1,0.7,3.1,1l0.6,0.2
				L123.1,319.6z"/>
			<path class="st0" d="M115,316.8l-0.6-0.2c-1-0.4-2.1-0.8-3.1-1.2l-0.5-0.2l0.4-1.1l0.5,0.2c1,0.4,2,0.8,3.1,1.2l0.6,0.2
				L115,316.8z"/>
			<path class="st0" d="M107,313.6l-0.5-0.2c-1-0.4-2-0.9-3-1.4l-0.5-0.2l0.5-1.1l0.5,0.2c1,0.5,2,0.9,3,1.3l0.5,0.2L107,313.6z"/>
			<path class="st0" d="M243.1,307.6l-0.6-1l0.5-0.3c0.9-0.5,1.9-1.1,2.8-1.6l0.5-0.3l0.6,1l-0.5,0.3c-0.9,0.5-1.9,1.1-2.9,1.6
				L243.1,307.6z"/>
			<path class="st0" d="M250.5,303.3l-0.6-1l0.5-0.3c0.9-0.6,1.8-1.2,2.7-1.8l0.5-0.3l0.6,1l-0.5,0.3c-0.9,0.6-1.8,1.2-2.8,1.8
				L250.5,303.3z"/>
			<path class="st0" d="M257.6,298.6l-0.7-1l0.5-0.3c0.9-0.6,1.8-1.3,2.6-1.9l0.5-0.3l0.7,1l-0.5,0.3c-0.9,0.6-1.8,1.3-2.7,1.9
				L257.6,298.6z"/>
			<path class="st0" d="M77.3,296.6l-0.5-0.3c-0.9-0.6-1.8-1.3-2.6-2l-0.5-0.4l0.7-0.9l0.5,0.4c0.9,0.7,1.7,1.3,2.6,2l0.5,0.3
				L77.3,296.6z"/>
			<path class="st0" d="M264.5,293.5l-0.7-0.9l0.5-0.4c0.9-0.7,1.7-1.4,2.5-2l0.5-0.4l0.8,0.9l-0.5,0.4c-0.8,0.7-1.7,1.4-2.6,2.1
				L264.5,293.5z"/>
			<path class="st0" d="M70.5,291.4l-0.5-0.4c-0.8-0.7-1.7-1.4-2.5-2.1l-0.4-0.4l0.8-0.9l0.4,0.4c0.8,0.7,1.7,1.4,2.5,2.1l0.5,0.4
				L70.5,291.4z"/>
			<path class="st0" d="M271.1,288l-0.8-0.9l0.4-0.4c0.8-0.7,1.6-1.5,2.4-2.2l0.4-0.4l0.8,0.9l-0.4,0.4c-0.8,0.7-1.6,1.5-2.4,2.2
				L271.1,288z"/>
			<path class="st0" d="M64.1,285.8l-0.4-0.4c-0.8-0.7-1.6-1.5-2.4-2.3l-0.4-0.4l0.8-0.9l0.4,0.4c0.8,0.8,1.6,1.5,2.4,2.2l0.4,0.4
				L64.1,285.8z"/>
			<path class="st0" d="M277.4,282.2l-0.8-0.8l0.4-0.4c0.8-0.8,1.5-1.5,2.3-2.3l0.4-0.4l0.8,0.8l-0.4,0.4c-0.8,0.8-1.5,1.6-2.3,2.3
				L277.4,282.2z"/>
			<path class="st0" d="M57.9,279.8l-0.4-0.4c-0.8-0.8-1.5-1.6-2.3-2.4l-0.4-0.4l0.9-0.8l0.4,0.4c0.7,0.8,1.5,1.6,2.3,2.4l0.4,0.4
				L57.9,279.8z"/>
			<path class="st1" d="M283.3,276.1l-0.9-0.8l0.4-0.4c0.7-0.8,1.5-1.6,2.2-2.4l0.4-0.4l0.9,0.8l-0.4,0.4c-0.7,0.8-1.5,1.7-2.2,2.5
				L283.3,276.1z"/>
			<path class="st1" d="M52.1,273.5l-0.4-0.4c-0.7-0.8-1.4-1.7-2.1-2.5l-0.4-0.5l0.9-0.8l0.4,0.5c0.7,0.8,1.4,1.7,2.1,2.5l0.4,0.4
				L52.1,273.5z"/>
			<path class="st1" d="M289,269.6l-0.9-0.7l0.4-0.5c0.7-0.8,1.4-1.7,2-2.6l0.4-0.5l0.9,0.7l-0.4,0.5c-0.7,0.9-1.4,1.7-2.1,2.6
				L289,269.6z"/>
			<path class="st1" d="M294.2,262.9l-1-0.7l0.3-0.5c0.6-0.9,1.3-1.8,1.9-2.7l0.3-0.5l1,0.7l-0.3,0.5c-0.6,0.9-1.3,1.8-1.9,2.7
				L294.2,262.9z"/>
			<path class="st1" d="M41.5,260.1l-0.3-0.5c-0.6-0.9-1.2-1.8-1.8-2.7l-0.3-0.5l1-0.7l0.3,0.5c0.6,0.9,1.2,1.8,1.8,2.7l0.3,0.5
				L41.5,260.1z"/>
			<path class="st1" d="M299.1,255.8l-1-0.6l0.3-0.5c0.6-0.9,1.2-1.8,1.7-2.8l0.3-0.5l1,0.6l-0.3,0.5c-0.6,0.9-1.2,1.9-1.8,2.8
				L299.1,255.8z"/>
			<path class="st1" d="M36.8,253l-0.3-0.5c-0.6-0.9-1.1-1.9-1.7-2.8l-0.3-0.5l1-0.6l0.3,0.5c0.5,0.9,1.1,1.9,1.7,2.8l0.3,0.5
				L36.8,253z"/>
			<path class="st1" d="M32.5,245.6l-0.3-0.5c-0.5-1-1-1.9-1.5-2.9l-0.3-0.5l1-0.5l0.3,0.5c0.5,1,1,1.9,1.5,2.9l0.3,0.5L32.5,245.6z
				"/>
			<path class="st1" d="M28.6,238l-0.3-0.5c-0.5-1-0.9-2-1.4-3l-0.2-0.5l1.1-0.5l0.2,0.5c0.4,1,0.9,2,1.4,3l0.3,0.5L28.6,238z"/>
			<path class="st1" d="M25.2,230.2l-0.2-0.5c-0.4-1-0.8-2-1.2-3.1l-0.2-0.6l1.1-0.4l0.2,0.6c0.4,1,0.8,2,1.2,3l0.2,0.5L25.2,230.2z
				"/>
			<path class="st0" d="M19.5,214l-0.2-0.6c-0.3-1.1-0.6-2.1-0.9-3.2l-0.1-0.6l1.1-0.3l0.1,0.6c0.3,1,0.6,2.1,0.9,3.2l0.2,0.6
				L19.5,214z"/>
			<path class="st0" d="M17.4,205.7l-0.1-0.6c-0.2-1.1-0.5-2.2-0.7-3.2l-0.1-0.6l1.2-0.2l0.1,0.6c0.2,1.1,0.4,2.1,0.7,3.2l0.1,0.6
				L17.4,205.7z"/>
			<path class="st0" d="M15.7,197.3l-0.1-0.6c-0.2-1.1-0.3-2.2-0.5-3.3l-0.1-0.6l1.2-0.2l0.1,0.6c0.2,1.1,0.3,2.2,0.5,3.2l0.1,0.6
				L15.7,197.3z"/>
			<path class="st0" d="M14.5,188.9l-0.1-0.6c-0.1-1.1-0.2-2.2-0.3-3.3l-0.1-0.6l1.2-0.1l0.1,0.6c0.1,1.1,0.2,2.2,0.3,3.3l0.1,0.6
				L14.5,188.9z"/>
			<path class="st0" d="M13.8,180.3l0-0.6c-0.1-1.1-0.1-2.2-0.1-3.3l0-0.6l1.2,0l0,0.6c0,1.1,0.1,2.2,0.1,3.3l0,0.6L13.8,180.3z"/>
			<path class="st0" d="M14.7,171.8h-1.2l0-0.7c0-1.1,0-2.1,0-3.2l0-0.6l1.2,0l0,0.6c0,1.1,0,2.1,0,3.2L14.7,171.8z"/>
			<path class="st0" d="M14.9,163.3l-1.2-0.1l0-0.6c0.1-1.1,0.1-2.2,0.2-3.3l0-0.6l1.2,0.1l0,0.6c-0.1,1.1-0.2,2.2-0.2,3.3
				L14.9,163.3z"/>
			<path class="st0" d="M15.6,154.8l-1.2-0.1l0.1-0.6c0.1-1.1,0.2-2.2,0.4-3.3l0.1-0.6l1.2,0.2L16,151c-0.1,1.1-0.3,2.2-0.4,3.2
				L15.6,154.8z"/>
			<path class="st0" d="M16.7,146.4l-1.2-0.2l0.1-0.6c0.2-1.1,0.4-2.2,0.6-3.2l0.1-0.6l1.2,0.2l-0.1,0.6c-0.2,1.1-0.4,2.1-0.6,3.2
				L16.7,146.4z"/>
			<path class="st0" d="M18.3,138.1l-1.2-0.3l0.1-0.6c0.2-1.1,0.5-2.1,0.7-3.2l0.1-0.6l1.1,0.3l-0.1,0.6c-0.3,1.1-0.5,2.1-0.7,3.2
				L18.3,138.1z"/>
			<path class="st0" d="M20.3,129.8l-1.1-0.3l0.2-0.6c0.3-1.1,0.6-2.1,0.9-3.2l0.2-0.6l1.1,0.3l-0.2,0.6c-0.3,1-0.6,2.1-0.9,3.1
				L20.3,129.8z"/>
			<path class="st0" d="M22.8,121.7l-1.1-0.4l0.2-0.6c0.4-1,0.7-2.1,1.1-3.1l0.2-0.6l1.1,0.4l-0.2,0.6c-0.4,1-0.7,2.1-1.1,3.1
				L22.8,121.7z"/>
			<path class="st0" d="M25.8,113.7l-1.1-0.4l0.2-0.5c0.4-1,0.8-2,1.3-3l0.2-0.5l1.1,0.5l-0.2,0.5c-0.4,1-0.9,2-1.3,3L25.8,113.7z"
				/>
			<path class="st0" d="M29.2,105.9l-1.1-0.5l0.3-0.5c0.5-1,1-2,1.4-3l0.3-0.5l1.1,0.5l-0.3,0.5c-0.5,1-1,2-1.4,2.9L29.2,105.9z"/>
			<path class="st0" d="M33,98.3l-1-0.6l0.3-0.5c0.5-1,1.1-1.9,1.6-2.9l0.3-0.5l1,0.6l-0.3,0.5c-0.5,0.9-1.1,1.9-1.6,2.9L33,98.3z"
				/>
			<path class="st1" d="M269.8,54.6l-0.4-0.4c-0.8-0.7-1.7-1.4-2.5-2.1l-0.5-0.4l0.8-0.9l0.5,0.4c0.8,0.7,1.7,1.4,2.5,2.1l0.4,0.4
				L269.8,54.6z"/>
			<path class="st0" d="M263.2,49.2l-0.5-0.4c-0.9-0.7-1.7-1.3-2.6-2l-0.5-0.3l0.7-1l0.5,0.3c0.9,0.6,1.8,1.3,2.6,2l0.5,0.4
				L263.2,49.2z"/>
			<path class="st0" d="M77.1,47.3l-0.7-1l0.5-0.3c0.9-0.6,1.8-1.3,2.7-1.9l0.5-0.3l0.7,1L80.2,45c-0.9,0.6-1.8,1.3-2.6,1.9
				L77.1,47.3z"/>
			<path class="st0" d="M256.3,44.2l-0.5-0.3c-0.9-0.6-1.8-1.2-2.7-1.8l-0.5-0.3l0.6-1l0.5,0.3c0.9,0.6,1.8,1.2,2.7,1.8l0.5,0.3
				L256.3,44.2z"/>
			<path class="st0" d="M84,42.4l-0.6-1l0.5-0.3c0.9-0.6,1.8-1.2,2.8-1.8l0.5-0.3l0.6,1l-0.5,0.3c-0.9,0.6-1.8,1.2-2.7,1.8L84,42.4z
				"/>
			<path class="st0" d="M249.2,39.6l-0.5-0.3c-0.9-0.6-1.9-1.1-2.8-1.7l-0.5-0.3l0.6-1l0.5,0.3c0.9,0.5,1.9,1.1,2.8,1.7l0.5,0.3
				L249.2,39.6z"/>
			<path class="st0" d="M91.2,37.9l-0.6-1l0.5-0.3c0.9-0.5,1.9-1.1,2.9-1.6l0.5-0.3l0.6,1L94.6,36c-0.9,0.5-1.9,1.1-2.8,1.6
				L91.2,37.9z"/>
			<path class="st0" d="M241.8,35.3l-0.5-0.3c-1-0.5-1.9-1-2.9-1.5l-0.5-0.3l0.5-1.1l0.5,0.3c1,0.5,2,1,2.9,1.5l0.5,0.3L241.8,35.3z
				"/>
			<path class="st0" d="M234.2,31.5l-0.5-0.2c-1-0.5-2-0.9-3-1.3l-0.5-0.2l0.5-1.1l0.5,0.2c1,0.4,2,0.9,3,1.4l0.5,0.2L234.2,31.5z"
				/>
			<path class="st1" d="M226.4,28.1l-0.5-0.2c-1-0.4-2-0.8-3.1-1.2l-0.6-0.2l0.4-1.1l0.6,0.2c1,0.4,2.1,0.8,3.1,1.2l0.5,0.2
				L226.4,28.1z"/>
			<path class="st1" d="M218.4,25.1l-0.6-0.2c-1-0.3-2.1-0.7-3.1-1l-0.6-0.2l0.4-1.1l0.6,0.2c1,0.3,2.1,0.7,3.1,1l0.6,0.2
				L218.4,25.1z"/>
			<path class="st1" d="M210.3,22.6l-0.6-0.2c-1-0.3-2.1-0.6-3.2-0.8l-0.6-0.1l0.3-1.1l0.6,0.1c1.1,0.3,2.1,0.5,3.2,0.8l0.6,0.2
				L210.3,22.6z"/>
			<path class="st1" d="M202.1,20.6l-0.6-0.1c-1.1-0.2-2.1-0.4-3.2-0.7l-0.6-0.1l0.2-1.2l0.6,0.1c1.1,0.2,2.2,0.4,3.2,0.7l0.6,0.1
				L202.1,20.6z"/>
			<path class="st0" d="M138.6,19.9l-0.2-1.2l0.6-0.1c1.1-0.2,2.2-0.4,3.2-0.6l0.6-0.1l0.2,1.2l-0.6,0.1c-1.1,0.2-2.1,0.4-3.2,0.6
				L138.6,19.9z"/>
			<path class="st0" d="M147,18.5l-0.2-1.2l0.6-0.1c1.1-0.1,2.2-0.3,3.3-0.4l0.6-0.1l0.1,1.2l-0.6,0.1c-1.1,0.1-2.2,0.3-3.2,0.4
				L147,18.5z"/>
			<path class="st0" d="M185.3,17.8l-0.6-0.1c-1.1-0.1-2.2-0.2-3.3-0.3l-0.6,0l0.1-1.2l0.6,0c1.1,0.1,2.2,0.2,3.3,0.3l0.6,0.1
				L185.3,17.8z"/>
			<path class="st0" d="M155.4,17.6l-0.1-1.2l0.6,0c1.1-0.1,2.2-0.2,3.3-0.2l0.6,0l0.1,1.2l-0.6,0c-1.1,0.1-2.2,0.1-3.3,0.2
				L155.4,17.6z"/>
			<path class="st0" d="M176.8,17.2l-0.6,0c-1.1-0.1-2.2-0.1-3.3-0.1l-0.6,0l0-1.2l0.6,0c1.1,0,2.2,0.1,3.3,0.1l0.6,0L176.8,17.2z"
				/>
			<path class="st0" d="M163.9,17.1l0-1.2l0.6,0c1.1,0,2.2,0,3.3-0.1l0.6,0l0,1.2l-0.6,0c-1.1,0-2.2,0-3.3,0.1L163.9,17.1z"/>
			<path class="st6" d="M168.9,232.7l55.3-20.9c0-0.2-23-8.7-26.9-10.3c0,0-6.4-3.3-6.9-16.2c0,0-0.8-7.5-0.3-10.5h-21.2h-0.1h-21.2
				c0.5,2.9-0.3,10.5-0.3,10.5c-0.5,13-6.9,16.2-6.9,16.2c-3.9,1.7-26.9,10.1-26.9,10.3L168.9,232.7L168.9,232.7L168.9,232.7
				L168.9,232.7L168.9,232.7z"/>
			<path class="st0" d="M246.7,241.4c-0.6-25.4-25.9-30.8-25.9-30.8c-15.6,11.2-52,10.9-52,10.9s-36.4,0.3-52-10.9
				c0,0-25.3,5.4-25.9,30.8l-1.6,28.3h159L246.7,241.4z"/>
			<ellipse class="st6" cx="169.4" cy="129.9" rx="41.9" ry="54.4"/>
			<path class="st6" d="M169.1,76l0.2,108.3c-23.2,0-42.1-23.9-42.1-53.9S146,75.9,169.1,76z"/>
			<path d="M150.6,95.9c0,0,38,19.5,55.2,21.2c0,0,4.7,2.4,3.6,17c-1.1,14.5-3.9,22.6-4.7,24.8c-1.4,3.7-6.8,33.3,1.5,43.3
				c0,0-4-27.4,4.6-35.5c0,0,14.1-22.4,15.5-46.9c0,0,0.4-36.3-21.4-54.8c0,0-27.2-24.9-65.4-4.5c0,0-16.9,8.7-26,36.5
				c0,0-5.4,14.5,4.3,39.8c11.9,30.7,12.3,32.8,13.5,38c0,0,2.3,18.4-7.6,29.5c0,0,23.3-24.3,14-39.1c-9.3-14.7-10.5-33.3-10.2-36.7
				C127.6,128.4,129.7,99.1,150.6,95.9z"/>
			<path class="st7" d="M147.6,182.2c0.1-1.7,0.2-3.8,0.2-5.6c0-0.1,0-0.2,0-0.3c6.3,4.9,13.7,7.8,21.5,7.8c0,0,0.1,0,0.1,0
				c7.4,0,14.4-2.5,20.5-6.9c0,3.4,0.5,7.9,0.5,7.9c0.5,13,6.9,16.2,6.9,16.2c0.4,0.2,1.7,0.7,1.7,0.7L147.6,182.2z"/>
			<path class="st0" d="M68.7,84.8H14.5l-8,7.1l0.6-7.1H3.2c-1.7,0-3-1.3-3-3V42.5c0-1.7,1.3-3,3-3h65.5c1.7,0,3,1.3,3,3v39.3
				C71.7,83.5,70.3,84.8,68.7,84.8z"/>
			<path class="st3" d="M44.8,98h44l6.5,5.7L94.8,98h3.1c1.3,0,2.4-1.1,2.4-2.4V64.2c0-1.3-1.1-2.4-2.4-2.4H44.8
				c-1.3,0-2.4,1.1-2.4,2.4v31.4C42.4,96.9,43.5,98,44.8,98z"/>
			<circle class="st1" cx="61.1" cy="81.4" r="2.7"/>
			<circle class="st1" cx="71.5" cy="81.4" r="2.7"/>
			<circle class="st1" cx="81.3" cy="81.4" r="2.7"/>
			<g>
				<polygon class="st3" points="69.7,186.5 35.1,186.5 35.1,152.8 35.7,152.8 35.7,186.1 69.7,186.1 				"/>
				<g>
					<path class="st3" d="M35.5,148c-0.8,2.1-2.1,4.8-3.6,6.4l3.6-1.3l3.6,1.3C37.6,152.8,36.3,150.2,35.5,148z"/>
				</g>
				<g>
					<path class="st8" d="M74,186.2c-2.1,0.8-4.8,2.1-6.4,3.6l1.3-3.6l-1.3-3.6C69.2,184.1,71.8,185.4,74,186.2z"/>
				</g>
			</g>
			<rect x="40.2" y="168.1" class="st3" width="4.2" height="17.5"/>
			<rect x="50.1" y="163.2" class="st3" width="4.2" height="22.4"/>
			<rect x="60.5" y="158.8" class="st4" width="4.2" height="26.8"/>
			<polygon class="st1" points="314.9,278.6 315.9,283.4 281.5,283.4 281.5,249.6 319.4,249.6 319.4,277.3 			"/>
			<rect x="281.5" y="249.6" class="st2" width="37.9" height="4.2"/>
			<rect x="287.8" y="257.8" class="st2" width="25.5" height="1.4"/>
			<rect x="287.8" y="262.8" class="st2" width="25.5" height="1.4"/>
			<rect x="287.8" y="267.8" class="st2" width="25.5" height="1.4"/>
			<rect x="287.8" y="272.8" class="st2" width="25.5" height="1.4"/>
			<path class="st0" d="M211.2,235.2c8.8,0,16.4,4.3,16.3,9.4c-0.1,1.6-2.5,4.5-2.5,4.5l0.1,7.9l-8.7-3.6c0,0-2.7,0.3-4.2,0.3
				c-8.8,0-16.9-4.1-16.9-9.2C195.3,239.3,202.4,235.2,211.2,235.2 M211.2,235c-2.2,0-4.3,0.2-6.2,0.7c-1.9,0.5-3.6,1.1-5.1,2
				c-1.5,0.9-2.6,1.9-3.5,3c-0.9,1.2-1.3,2.4-1.3,3.7c0,1.3,0.5,2.5,1.4,3.7c0.9,1.1,2.2,2.1,3.8,3c1.6,0.9,3.4,1.5,5.4,2
				c2.1,0.5,4.2,0.7,6.4,0.7c1.4,0,3.8-0.3,4.2-0.3l8.7,3.6l0.2,0.1l0-0.2l-0.1-7.8c0.3-0.4,2.5-3,2.5-4.6c0.1-1.6-0.6-3.2-2-4.6
				c-1.4-1.5-3.5-2.7-6-3.6C217,235.5,214.1,235,211.2,235L211.2,235z"/>
			<path class="st0" d="M204.6,243c0.9,0,1.7,0.8,1.7,1.7c0,0.9-0.8,1.7-1.7,1.7c-0.9,0-1.7-0.8-1.7-1.7
				C202.9,243.8,203.6,243,204.6,243 M204.6,242.9c-1,0-1.8,0.8-1.8,1.8c0,1,0.8,1.8,1.8,1.8c1,0,1.8-0.8,1.8-1.8
				C206.4,243.7,205.6,242.9,204.6,242.9L204.6,242.9z"/>
			<path class="st0" d="M218,242.8c0.9,0,1.7,0.8,1.7,1.7c0,0.9-0.8,1.7-1.7,1.7c-0.9,0-1.7-0.8-1.7-1.7
				C216.3,243.6,217,242.8,218,242.8 M218,242.7c-1,0-1.8,0.8-1.8,1.8c0,1,0.8,1.8,1.8,1.8c1,0,1.8-0.8,1.8-1.8
				C219.8,243.5,219,242.7,218,242.7L218,242.7z"/>
			<path class="st3" d="M228.9,114.2c0,0,10.3,11.3,1.8,29.5c0,0-11.5,23.1-51.3,24.4v-3.9c0,0,58.9-1,49.1-43.1L228.9,114.2z"/>
			<path class="st0" d="M224.6,130.4h-1.5c-2.6,0-4.8-2.1-4.8-4.8v-15c0-2.6,2.1-4.8,4.8-4.8h1.5c2.6,0,4.8,2.1,4.8,4.8v15
				C229.4,128.3,227.3,130.4,224.6,130.4z"/>
			<polygon class="st3" points="8.1,232.6 30.8,212 53.4,232.4 53.2,260.4 8.7,260.4 			"/>
			<rect x="12.1" y="222.1" class="st1" width="37.6" height="36.6"/>
			<polygon class="st9" points="53.4,264.6 8.1,264.6 8.1,233.4 24.2,249.5 37.6,249.7 53.4,233.4 			"/>
			<polygon class="st10" points="8.1,264.6 53.4,264.6 37.4,249.5 24.2,249.5 			"/>
			<polygon class="st0" points="8.1,264.6 8.1,233.4 24.2,249.5 			"/>
			<polygon class="st0" points="53.4,264.6 53.4,233.4 37.4,249.5 			"/>
			<g>
				<path class="st0" d="M102.2,14.8l14.2,10.5c0.4,0.3,1.1,0.3,1.6,0l14.2-10.5L102.2,14.8z"/>
				<path class="st0" d="M112.3,23.4l-9.9,9.2c-0.2-0.3-0.3-0.6-0.3-0.9V15.9L112.3,23.4z"/>
				<path class="st0" d="M121.2,24.1l10,9.3c-0.3,0.1-0.6,0.2-0.9,0.2h-26c-0.3,0-0.6,0-0.9-0.2l9.9-9.3l3.9,2.9L121.2,24.1z"/>
				<path class="st0" d="M132.2,15.9v15.8c0,0.3-0.1,0.6-0.2,0.8l-9.9-9.2L132.2,15.9z"/>
			</g>
			<g>
				<path class="st0" d="M79.6,296.1l9.9,7.3c0.3,0.2,0.8,0.2,1.1,0l9.9-7.3L79.6,296.1z"/>
				<path class="st0" d="M86.6,302.1l-6.9,6.4c-0.1-0.2-0.2-0.4-0.2-0.6v-11L86.6,302.1z"/>
				<path class="st0" d="M92.8,302.6l6.9,6.5c-0.2,0.1-0.4,0.1-0.6,0.1H81c-0.2,0-0.4,0-0.6-0.1l6.9-6.5l2.7,2L92.8,302.6z"/>
				<path class="st0" d="M100.5,296.9v11c0,0.2,0,0.4-0.1,0.6l-6.9-6.4L100.5,296.9z"/>
			</g>
			
				<ellipse transform="matrix(0.1602 -0.9871 0.9871 0.1602 167.1023 341.7557)" class="st1" cx="284.4" cy="72.7" rx="33.6" ry="33.6"/>
			<path class="st0" d="M296.7,84.6c-0.6-0.4-0.8-1.1-0.5-1.6l1.3-2.4c0.3-0.5,1-0.6,1.6-0.3l4.2,2.7c0.1-2.1-0.9-4.4-2.8-6.2
				c-0.4-0.4-0.9-0.8-1.4-1.1c0,0,0,0,0,0c-0.3-0.2-0.6-0.4-0.9-0.5c-0.3-0.1-0.7-0.2-1-0.2l0,0c-0.2,0-0.4,0-0.6,0
				c-0.6,0-1.4,0-2-0.1c-0.8-0.1-2-0.6-2-0.6l-5.5-5.2l0,0l-5.4-5.1c0,0-1.2-1.3-1.4-2.6c-0.2-1.4-0.2-2.4-0.2-2.4l0,0
				c0-0.7-0.2-1.4-0.7-2c-0.3-0.4-0.6-0.7-0.9-1c0,0,0,0,0,0c-2.7-2.4-6.3-2.9-8.6-1.4l4.2,2.7c0.6,0.4,0.8,1.1,0.5,1.6l-1.3,2.4
				c-0.3,0.5-1,0.6-1.6,0.3l-4.2-2.7c-0.1,2.1,0.9,4.4,2.8,6.2c0.4,0.4,0.9,0.8,1.4,1.1c0,0,0,0,0,0c0.3,0.2,0.6,0.4,0.9,0.5
				c0.3,0.1,0.7,0.2,1,0.2l0,0c0.2,0,0.4,0,0.6,0c0.6,0,1.4,0,2,0.1c0.8,0.1,2,0.6,2,0.6l5.5,5.2l0,0l5.4,5.1c0,0,1.2,1.3,1.4,2.6
				c0.2,1.4,0.2,2.4,0.2,2.4l0,0c0,0.7,0.2,1.4,0.7,2c0.3,0.4,0.6,0.7,0.9,1c0,0,0,0,0,0c2.7,2.4,6.3,2.9,8.6,1.3L296.7,84.6z"/>
			<g>
				<path class="st3" d="M297.3,54.9l-0.3,0.3l-2.7,2.3c-0.8,0.7-1,1.6-0.8,2.4l-12.1,13.3l1.6,1.4L295,61.3c0.8,0.1,1.7-0.2,2.3-1
					l2-2.9l0.2-0.4L297.3,54.9z"/>
				<path class="st0" d="M281.6,73l-1-0.9c-0.2-0.2-0.6-0.2-0.9,0.1l-0.1,0.1c0,0,0,0,0,0.1c0,0,0,0,0,0c0,0,0,0,0,0c0,0,0,0,0,0
					c0,0,0,0,0,0c0,0,0,0,0,0c0,0,0,0,0,0c0,0,0,0.1,0,0.1c0,0,0,0,0,0c0,0,0,0,0,0v0c0,0,0,0,0,0c0,0,0,0,0,0l0,0c0,0,0,0,0,0
					l-0.1-0.1c-0.1-0.1-0.4-0.1-0.5,0l-10.1,11.1c-1.2,1.3-1.4,3.3-0.3,4.2l1.2,1.1c1.1,1,3,0.6,4.2-0.7l10.1-11.1
					c0.2-0.2,0.2-0.4,0-0.5l-0.2-0.2l0,0c0,0,0,0,0,0c0,0,0,0,0,0c0,0,0,0,0,0c0,0,0,0,0,0c0,0,0,0,0,0c0,0,0,0,0,0c0,0,0,0,0,0
					c0,0,0,0,0,0c0,0,0,0,0,0c0,0,0,0,0,0c0,0,0,0,0,0c0,0,0,0,0.1,0l0.1-0.1c0.3-0.3,0.3-0.6,0.1-0.9l-0.6-0.6l-0.4-0.4l0,0
					L281.6,73L281.6,73z"/>
				<path class="st1" d="M270.1,85.9c-0.3,0.3-0.8,0.4-1,0.2c-0.3-0.2-0.2-0.7,0.1-1.1l9.2-10.1c0.3-0.3,0.8-0.4,1-0.2
					c0.3,0.2,0.2,0.7-0.1,1.1L270.1,85.9z"/>
				<path class="st1" d="M272.3,87.9c-0.3,0.3-0.8,0.4-1,0.2c-0.3-0.2-0.2-0.7,0.1-1l9.2-10.1c0.3-0.3,0.8-0.4,1-0.2
					c0.3,0.2,0.2,0.7-0.1,1L272.3,87.9z"/>
			</g>
			<circle class="st11" cx="155.5" cy="324.6" r="27.2"/>
			<path class="st0" d="M168,323.7c-0.2,0.1-0.3,0.2-0.5,0.2c-0.2,0.1-0.2,0.4-0.1,0.5c0.3,0.3,0.4,0.6,0.5,0.9
				c0.1,0.7-0.1,1.2-0.6,1.6c-0.2,0.2-0.4,0.3-0.7,0.4c-0.3,0.1-0.3,0.5-0.1,0.6c0.5,0.4,0.6,1,0.4,1.6c-0.2,0.5-0.5,0.9-1,1.2
				c-0.1,0-0.1,0.1-0.2,0.1c-0.2,0.1-0.2,0.1-0.3,0.3c0,0.1,0,0.2,0.1,0.3c0.3,0.2,0.5,0.5,0.5,0.9c0,0.3,0,0.5-0.1,0.8
				c-0.2,0.4-0.4,0.7-0.8,0.9c-0.1,0.1-0.5,0.3-0.8,0.4c-0.2,0.1-0.7,0.2-0.8,0.2c-7.2,1.5-12.2-0.4-12.8-0.7
				c-0.1,0-0.6-0.3-0.7-0.3c0,0-0.2,0-0.2-0.1v-10.7c0.3-0.2,0.5-0.4,0.8-0.6c0,0,0,0,0.1-0.1c0,0,0,0,0,0c1.4-1.8,2.3-3.7,3.4-5.7
				c0.7-1.4,0.9-4.2,0.9-5.3c0-0.4,0.3-1.1,1.2-1.1c0.2,0,0.7,0,0.9,0.1c0.3,0.1,0.6,0.5,0.9,1.1c0.4,0.7,0.6,1.5,0.8,2.3
				c0.1,0.3,0.2,0.6,0.2,0.9c0,0.2,0,0.5,0,0.7c0,0.3,0,0.5-0.1,0.8c-0.1,0.5-0.1,1-0.2,1.5c-0.1,0.5-0.2,1.1-0.3,1.6c0,0,0,0,0,0
				c0,0,0,0.1,0,0.1c-0.2,0.7,0.5,1.1,1,1.3c0.1,0,0.6,0.1,0.7,0.1c2.3,0,6.1,0,6.6,0c0.3,0,0.6,0,0.9,0c0.5,0,1.1,0.4,1.2,1
				C169,322.5,168.7,323.3,168,323.7z"/>
			<path class="st0" d="M148.4,334.5c0,0.6-0.4,1-1,1h-3.7c-0.6,0-1-0.4-1-1v-12.3c0-0.6,0.4-1,1-1h3.7c0.6,0,1,0.4,1,1V334.5z"/>
			<path class="st0" d="M237.7,309.6l-1.3,0.4c-0.4-0.7-0.9-1.3-1.4-1.8l0,0l0.6-1.2c0.1-0.3,0-0.6-0.2-0.7l-2-1.1
				c-0.3-0.1-0.6,0-0.7,0.2l-0.7,1.2c-0.7-0.2-1.2-0.3-2.3-0.2l0,0l-0.3-1.3c-0.1-0.3-0.3-0.4-0.6-0.3l-2.2,0.6
				c-0.3,0.1-0.3,0.3-0.2,0.6l0.4,1.3c-0.7,0.4-1.3,0.9-1.8,1.4l0,0l-1.2-0.6c-0.3-0.1-0.6,0-0.7,0.2l-1.1,2c-0.1,0.3,0,0.6,0.2,0.7
				l1.2,0.7c-0.2,0.7-0.3,1.2-0.2,2.3l0,0l-1.3,0.3c-0.3,0.1-0.4,0.3-0.3,0.5l0.6,2.2c0.1,0.3,0.3,0.4,0.6,0.3l1.3-0.4
				c0.4,0.7,0.9,1.2,1.4,1.7l0,0l-0.6,1.2c-0.1,0.3,0,0.6,0.2,0.7l2,1.1c0.3,0.1,0.6,0,0.7-0.2l0.7-1.2c0.7,0.2,1.4,0.3,2.3,0.2l0,0
				l0.4,1.3c0.1,0.3,0.3,0.5,0.5,0.4l2.2-0.6c0.3-0.1,0.4-0.4,0.4-0.7l-0.4-1.2c0.7-0.4,1.2-0.8,1.6-1.4l0,0l1.2,0.6
				c0.3,0.1,0.6,0,0.8-0.2l1.1-2c0.1-0.3,0.1-0.6-0.2-0.7l-1.2-0.7c0.2-0.7,0.4-1.1,0.2-2.3l0,0l1.3-0.3c0.3-0.1,0.5-0.4,0.4-0.6
				l-0.6-2.2C238.3,309.6,237.9,309.5,237.7,309.6z M229.8,316.7c0,0-0.1,0-0.1,0c-0.1,0-0.2,0-0.3-0.1c-0.1,0-0.1,0-0.2,0
				c-0.1,0-0.1,0-0.1-0.1c0,0,0,0-0.1,0c-0.1-0.1-0.3-0.1-0.4-0.2c-0.1-0.1-0.3-0.2-0.4-0.3c0,0-0.1-0.1-0.1-0.1
				c-0.1-0.1-0.3-0.3-0.4-0.4c-0.3-0.3-0.5-0.7-0.6-1.2c-0.3-0.9-0.1-1.9,0.3-2.6c0-0.1,0.1-0.1,0.1-0.2c0,0,0,0,0-0.1
				c0,0,0.1-0.1,0.1-0.1c0.1-0.1,0.2-0.2,0.3-0.3c0,0,0.1-0.1,0.1-0.1c0.3-0.3,0.7-0.5,1.2-0.6c0.5-0.2,1-0.2,1.5-0.1
				c0.1,0,0.1,0,0.2,0c0.1,0,0.2,0,0.2,0.1c0.1,0,0.1,0,0.1,0.1c0,0,0,0,0.1,0c0,0,0.1,0,0.1,0.1c0.1,0,0.1,0.1,0.2,0.1
				c0,0,0.1,0.1,0.1,0.1c0.1,0.1,0.2,0.1,0.3,0.2c0,0,0.1,0.1,0.1,0.1s0.1,0.1,0.1,0.1c0.1,0.1,0.1,0.1,0.2,0.2
				c0.3,0.4,0.6,0.8,0.7,1.3c0.1,0.3,0.1,0.5,0.1,0.8c0,0.1,0,0.1,0,0.2c0,0.1,0,0.2,0,0.2c0,0.1,0,0.1,0,0.2c0,0,0,0.1,0,0.1
				c0,0.1,0,0.1,0,0.2c0,0.1,0,0.1,0,0.2c0,0,0,0.1,0,0.1c0,0,0,0.1,0,0.1c0,0,0,0,0,0.1c0,0,0,0.1-0.1,0.1c0,0,0,0,0,0.1
				c0,0,0,0.1-0.1,0.1c0,0,0,0,0,0.1c-0.1,0.1-0.1,0.2-0.2,0.3c0,0,0,0,0,0.1c0,0-0.1,0.1-0.1,0.1c0,0-0.1,0.1-0.1,0.1
				c0,0,0,0-0.1,0.1c0,0-0.1,0.1-0.1,0.1c-0.4,0.3-0.8,0.6-1.3,0.8c-0.4,0.1-0.8,0.2-1.2,0.1C229.9,316.7,229.8,316.7,229.8,316.7z"
				/>
			<g>
				<g>
					<path class="st12" d="M27.9,279.6L27.9,279.6c0.1,0.1,0.1,0.1,0.1,0.1l0.1,0.2c0,0,0,0,0,0l0.1,0.3c0,0,0,0,0,0l0.2,0.5
						l0.1,0.5c0,0,0,0,0,0l0,0.3c0,0,0,0,0,0.1l0,0.2c0,0,0,0.1,0,0.1l0,0c0,0-0.1,0.1-0.1,0.1l-0.2,0.1c0,0,0,0,0,0l-0.3,0.1
						c-0.1,0-0.1,0-0.1,0.1l-0.1,0.2c0,0,0,0,0,0.1l-0.1,0.4c0,0,0,0,0,0.1l0.1,0.6c0,0,0,0,0,0l0.2,0.8c0,0,0,0,0,0l0.3,0.8
						c0,0,0,0,0,0l0.3,0.5c0,0,0,0,0,0.1l0.2,0.2c0,0,0.1,0,0.1,0.1l0.2,0c0,0,0.1,0,0.1,0l0.3-0.1c0,0,0,0,0,0l0,0
						c0.1,0,0.1,0,0.2,0l0.1,0.1c0,0,0,0,0,0l0.2,0.2c0,0,0,0,0,0l0.2,0.4c0,0,0,0,0,0l0.2,0.5c0,0,0,0,0,0l0.1,0.3c0,0,0,0,0,0
						l0,0.2c0,0,0,0.1,0,0.1l0,0c0,0-0.1,0.1-0.1,0.1l-0.4,0.1c0,0,0,0,0,0l-0.6,0c0,0-0.2,0-0.3,0l-0.2-0.1c0,0-0.1,0-0.1-0.1
						c0,0-0.1,0-0.2-0.1c0,0,0,0,0,0l-0.3-0.3c0,0-0.1-0.1-0.1-0.1l-0.4-0.7c0,0,0,0,0,0l-0.4-1c0,0,0,0,0,0l-0.4-1.1c0,0,0,0,0,0
						l-0.2-1c0,0,0,0,0,0l-0.1-0.9c0,0,0,0,0,0l0-0.8c0,0,0,0,0,0l0.1-0.7c0,0,0,0,0,0l0.1-0.5c0,0,0,0,0,0l0.2-0.4c0,0,0,0,0,0
						l0.2-0.2c0,0,0,0,0,0l0.4-0.2c0,0,0,0,0.1,0L27.9,279.6L27.9,279.6z"/>
					<path class="st12" d="M28.5,279.3l0.1,0c0,0,0,0,0,0l0.1,0.1c0,0,0,0,0,0l0.1,0.2l0.1,0.3l0.1,0.3c0,0,0,0,0,0l0.1,0.3l0.1,0.4
						l0,0.3c0,0,0,0,0,0l0,0.2c0,0,0,0.1-0.1,0.1l-0.1,0.1c0,0,0,0,0,0l-0.1,0c0,0-0.1,0-0.1-0.1l0,0c0,0,0,0,0,0l0-0.1c0,0,0,0,0,0
						l0-0.2l0-0.3c0,0,0,0,0,0l-0.1-0.3l-0.1-0.3c0,0,0,0,0,0l-0.1-0.2c0,0,0,0,0,0l-0.1-0.2c0,0,0,0,0,0l-0.1-0.2c0,0,0,0,0,0
						l-0.1-0.2c0,0,0,0,0,0l-0.1-0.1c0,0,0,0,0,0l0,0c0,0,0-0.1,0-0.1l0,0c0,0,0,0,0,0l0.1,0c0,0,0,0,0,0L28.5,279.3L28.5,279.3z"/>
					<path class="st12" d="M31,287.5l0-0.2c0,0,0,0,0,0l0-0.2c0,0,0,0,0,0l0-0.2c0,0,0,0,0,0l-0.1-0.2l-0.1-0.3c0,0,0,0,0,0
						l-0.1-0.3c0,0,0,0,0,0l-0.2-0.3c0,0,0,0,0,0l-0.2-0.2c0,0,0,0,0,0l-0.2-0.1c0,0,0,0-0.1,0l-0.1,0c0,0,0,0,0,0l-0.1,0.1
						c0,0,0,0.1,0,0.1l0,0c0,0,0,0,0,0l0.1,0.1L30,286c0,0,0,0,0,0l0.1,0.2c0,0,0,0,0,0l0.1,0.2l0.1,0.2l0.1,0.2c0,0,0,0,0,0
						l0.1,0.2c0,0,0,0,0,0l0,0.2l0,0.2c0,0,0,0,0,0l0,0.2c0,0,0,0,0,0l0,0c0,0,0.1,0.1,0.1,0.1l0.1,0c0,0,0,0,0,0l0.2-0.1
						c0,0,0,0,0,0L31,287.5L31,287.5L31,287.5z"/>
				</g>
				<g>
					<path class="st0" d="M44.5,281.6c-0.1-0.6-0.2-1.1-0.3-1.6c-0.2-0.5-0.4-1-0.6-1.5c-0.3-0.5-0.6-1-0.9-1.4
						c-0.3-0.4-0.7-0.8-1.2-1.2c-0.9-0.7-1.9-1.3-3-1.7c-1.1-0.3-2.3-0.5-3.4-0.4c-0.6,0.1-1.1,0.2-1.6,0.3c-0.5,0.2-1,0.4-1.5,0.6
						c-0.5,0.3-1,0.6-1.4,0.9c-0.4,0.3-0.8,0.7-1.2,1.2c-0.4,0.4-0.7,0.9-1,1.4l0.2,0.2c0,0,0,0,0,0l0.1,0.2c1.8-3.5,5.8-5.3,9.7-4
						c4.3,1.3,6.7,5.9,5.3,10.2c-1.3,4.3-5.9,6.7-10.2,5.3c-0.9-0.3-1.7-0.7-2.4-1.2l-0.4,0.1c0,0,0,0-0.1,0l-0.1,0
						c0.9,0.7,1.8,1.2,2.9,1.6c1.1,0.3,2.3,0.5,3.4,0.4c0.6-0.1,1.1-0.2,1.6-0.3c0.5-0.2,1-0.4,1.5-0.6c0.5-0.3,1-0.6,1.4-0.9
						c0.4-0.3,0.8-0.7,1.2-1.2c0.7-0.9,1.3-1.9,1.7-3C44.5,283.9,44.6,282.8,44.5,281.6z"/>
				</g>
				<g>
					<path class="st0" d="M31.2,285.4v-1l0.9-0.8c1.5-1.3,2.2-2.1,2.2-2.9c0-0.6-0.3-1-1.1-1c-0.6,0-1.1,0.3-1.4,0.6l-0.4-1.1
						c0.5-0.4,1.3-0.7,2.2-0.7c1.5,0,2.4,0.9,2.4,2.1c0,1.1-0.8,2-1.8,2.9l-0.6,0.5v0H36v1.3H31.2z"/>
					<path class="st0" d="M39.7,285.4v-1.6h-3v-1l2.6-4.1h1.9v4H42v1.2h-0.8v1.6H39.7z M39.7,282.6v-1.5c0-0.4,0-0.8,0.1-1.3h0
						c-0.2,0.4-0.4,0.8-0.6,1.3l-0.9,1.5v0H39.7z"/>
				</g>
				<path class="st1" d="M36,274.8c0.8-0.2,1.6-0.3,2.5-0.5c-0.8-0.2-1.6-0.4-2.4-0.6l-2.3-1l0,0l0.7,1.3l0.1,0.2l-0.1,0.2l-0.8,1.2
					l0,0L36,274.8z"/>
				<path class="st0" d="M39.3,289.4c-0.6,0.5-1.2,0.9-1.9,1.4c0.8-0.2,1.5-0.3,2.3-0.5l2.3-0.1l0,0l-1.1-0.8l-0.2-0.1l0-0.2
					l0.2-1.3l-0.1,0L39.3,289.4z"/>
			</g>
			<g>
				<path class="st1" d="M303.2,112.2l-1.7,6c-0.1,0.3-0.1,0.6-0.1,0.7c0,0.1,0,0.1,0.1,0.2c0,0.1,0.1,0.1,0.2,0.1
					c0.1,0,0.2,0,0.3-0.1c0.3-0.2,0.6-0.6,0.9-1.1l0.3,0.2c-0.9,1.5-1.8,2.2-2.7,2.2c-0.4,0-0.7-0.1-0.9-0.3
					c-0.2-0.2-0.3-0.5-0.3-0.8c0-0.2,0-0.5,0.1-0.8l1.2-4c0.1-0.4,0.2-0.7,0.2-0.9c0-0.1-0.1-0.2-0.2-0.3c-0.1-0.1-0.3-0.1-0.4-0.1
					c-0.1,0-0.2,0-0.3,0l0.1-0.3l2.9-0.5H303.2z M302.6,108.3c0.3,0,0.6,0.1,0.9,0.4c0.2,0.2,0.4,0.5,0.4,0.9c0,0.3-0.1,0.6-0.4,0.9
					c-0.2,0.2-0.5,0.4-0.9,0.4c-0.3,0-0.6-0.1-0.9-0.4c-0.2-0.2-0.4-0.5-0.4-0.9c0-0.3,0.1-0.6,0.4-0.9
					C302,108.4,302.3,108.3,302.6,108.3z"/>
			</g>
			<g>
				<g>
					<g>
						<path class="st0" d="M11.1,104l-1.3,4.5c-0.1,0.3-0.1,0.4-0.1,0.5c0,0,0,0.1,0.1,0.1c0,0,0.1,0.1,0.1,0.1c0.1,0,0.1,0,0.2-0.1
							c0.2-0.2,0.4-0.4,0.7-0.9l0.2,0.1c-0.6,1.1-1.3,1.7-2.1,1.7c-0.3,0-0.5-0.1-0.7-0.2c-0.2-0.2-0.2-0.4-0.2-0.6
							c0-0.2,0-0.4,0.1-0.6l0.9-3.1c0.1-0.3,0.1-0.5,0.1-0.7c0-0.1,0-0.2-0.1-0.3c-0.1-0.1-0.2-0.1-0.3-0.1c-0.1,0-0.1,0-0.2,0
							l0.1-0.3l2.2-0.3H11.1z M10.7,101.1c0.3,0,0.5,0.1,0.7,0.3c0.2,0.2,0.3,0.4,0.3,0.7c0,0.3-0.1,0.5-0.3,0.7
							c-0.2,0.2-0.4,0.3-0.7,0.3c-0.3,0-0.5-0.1-0.7-0.3c-0.2-0.2-0.3-0.4-0.3-0.7c0-0.3,0.1-0.5,0.3-0.7
							C10.3,101.2,10.5,101.1,10.7,101.1z"/>
					</g>
					<g>
						<path class="st0" d="M9.8,97.8c-4.5,0-8.1,3.6-8.1,8.1c0,4.5,3.6,8.1,8.1,8.1s8.1-3.6,8.1-8.1C17.9,101.4,14.3,97.8,9.8,97.8z
							 M9.8,113.2c-4,0-7.3-3.3-7.3-7.3c0-4,3.3-7.3,7.3-7.3s7.3,3.3,7.3,7.3C17.1,109.9,13.8,113.2,9.8,113.2z"/>
					</g>
				</g>
			</g>
			<g>
				<g>
					<path class="st1" d="M281.5,296.8h-0.4c0.1-0.8,0.1-1.5,0.3-2c0.1-0.3,0.2-0.6,0.4-0.9c0.2-0.4,0.4-0.8,0.6-1.2
						c0.2-0.4,0.3-0.7,0.5-0.9c0.1-0.3,0.2-0.5,0.3-0.7c0.1-0.4,0.2-0.8,0.2-1.2c0-0.4-0.1-0.8-0.2-1.1c-0.1-0.3-0.3-0.6-0.5-0.8
						c-0.2-0.2-0.4-0.4-0.7-0.5c-0.3-0.1-0.6-0.2-0.9-0.2c-0.3,0-0.5,0-0.7,0.1c-0.2,0.1-0.4,0.2-0.6,0.3c-0.2,0.1-0.3,0.2-0.3,0.4
						c-0.1,0.1-0.1,0.3-0.1,0.4c0,0.1,0,0.2,0.1,0.4c0.1,0.2,0.1,0.3,0.2,0.5c0.1,0.2,0.1,0.3,0.2,0.4s0.1,0.3,0.1,0.3
						c0,0.2-0.1,0.4-0.2,0.6s-0.3,0.2-0.5,0.2c-0.1,0-0.3,0-0.4-0.1s-0.2-0.2-0.3-0.3c-0.1-0.1-0.2-0.3-0.2-0.5
						c-0.1-0.2-0.1-0.4-0.1-0.6c0-0.3,0.1-0.7,0.2-1c0.2-0.3,0.4-0.6,0.7-0.9c0.3-0.3,0.7-0.5,1.1-0.6c0.4-0.2,0.9-0.2,1.4-0.2
						c0.6,0,1.1,0.1,1.5,0.2c0.4,0.2,0.8,0.4,1.1,0.6c0.3,0.3,0.5,0.6,0.7,0.9c0.2,0.4,0.2,0.7,0.2,1.2c0,0.5-0.1,0.9-0.3,1.4
						c-0.1,0.2-0.3,0.5-0.4,0.8c-0.2,0.3-0.4,0.6-0.7,0.9c-0.9,1-1.5,1.8-1.7,2.2C281.6,295.4,281.5,296,281.5,296.8z M281.3,298
						c0.3,0,0.6,0.1,0.8,0.3c0.2,0.2,0.3,0.5,0.3,0.8c0,0.1,0,0.3-0.1,0.4c-0.1,0.1-0.1,0.2-0.2,0.3c-0.1,0.1-0.2,0.2-0.3,0.2
						c-0.1,0.1-0.3,0.1-0.4,0.1c-0.1,0-0.3,0-0.4-0.1c-0.1-0.1-0.2-0.1-0.3-0.2c-0.1-0.1-0.2-0.2-0.2-0.3c-0.1-0.1-0.1-0.3-0.1-0.4
						c0-0.2,0-0.3,0.1-0.4c0.1-0.1,0.1-0.2,0.2-0.3c0.1-0.1,0.2-0.2,0.3-0.2C281,298,281.2,298,281.3,298z"/>
				</g>
			</g>
			<path class="st0" d="M144.3,7.7c-3.2,1.9-3.5,3-1.7,6.2c-1.9-3.2-3-3.5-6.2-1.6c3.2-1.9,3.5-3,1.7-6.2
				C140,9.2,141.1,9.5,144.3,7.7z"/>
			<path class="st0" d="M9.2,160.4c-3.2,1.9-3.5,3-1.7,6.2c-1.9-3.2-3-3.5-6.2-1.6c3.2-1.9,3.5-3,1.7-6.2C4.8,162,6,162.3,9.2,160.4
				z"/>
			<path class="st0" d="M194.1,302.5c-2.6,1.5-2.9,2.5-1.4,5.1c-1.5-2.7-2.5-2.9-5.1-1.4c2.6-1.5,2.9-2.5,1.4-5.1
				C190.5,303.8,191.4,304,194.1,302.5z"/>
			<path class="st0" d="M193.7,19l-0.6-0.1c-1.1-0.2-2.2-0.3-3.2-0.5l-0.6-0.1l0.2-1.2l0.6,0.1c1.1,0.1,2.2,0.3,3.3,0.5l0.6,0.1
				L193.7,19z"/>
			<g>
				<circle class="st11" cx="212.9" cy="20.6" r="19.5"/>
				<path class="st0" d="M212.9,41c-2.7,0-5.4-0.5-7.9-1.6c-2.4-1-4.6-2.5-6.5-4.4c-1.9-1.9-3.3-4-4.4-6.5c-1.1-2.5-1.6-5.2-1.6-7.9
					c0-2.7,0.5-5.4,1.6-7.9c1-2.4,2.5-4.6,4.4-6.5c1.9-1.9,4-3.3,6.5-4.4c2.5-1.1,5.2-1.6,7.9-1.6s5.4,0.5,7.9,1.6
					c2.4,1,4.6,2.5,6.5,4.4c1.9,1.9,3.3,4,4.4,6.5c1.1,2.5,1.6,5.2,1.6,7.9c0,2.7-0.5,5.4-1.6,7.9c-1,2.4-2.5,4.6-4.4,6.5
					c-1.9,1.9-4,3.3-6.5,4.4C218.3,40.4,215.6,41,212.9,41z M212.9,2c-10.3,0-18.6,8.4-18.6,18.6c0,10.3,8.4,18.6,18.6,18.6
					c10.3,0,18.6-8.4,18.6-18.6C231.5,10.3,223.1,2,212.9,2z"/>
				<g>
					<path class="st13" d="M212.9,5.6c-0.1,0-0.2-0.1-0.2-0.2V2.6c0-0.1,0.1-0.2,0.2-0.2c0.1,0,0.2,0.1,0.2,0.2v2.8
						C213,5.5,213,5.6,212.9,5.6z"/>
					<g>
						<g>
							<path class="st13" d="M214.4,5.1C214.4,5.1,214.4,5.1,214.4,5.1C214.4,5.1,214.4,5.1,214.4,5.1
								C214.4,5.1,214.4,5.1,214.4,5.1l0.1-1.5c0,0,0,0,0,0c0,0,0,0,0,0c0,0,0,0,0,0L214.4,5.1C214.4,5.1,214.4,5.1,214.4,5.1z"/>
							<path class="st13" d="M215.6,5.3C215.6,5.3,215.6,5.3,215.6,5.3C215.5,5.3,215.5,5.3,215.6,5.3
								C215.5,5.2,215.5,5.2,215.6,5.3l0.2-1.4c0,0,0,0,0.1,0c0,0,0,0,0,0c0,0,0,0,0,0l-0.1,0.7l0,0L215.6,5.3
								C215.6,5.3,215.6,5.3,215.6,5.3z"/>
							<path class="st13" d="M216.7,5.5C216.7,5.5,216.7,5.5,216.7,5.5C216.7,5.5,216.7,5.5,216.7,5.5
								C216.7,5.5,216.7,5.5,216.7,5.5l0.3-1.4c0,0,0,0,0.1,0c0,0,0,0,0,0c0,0,0,0,0,0l-0.2,0.7l0,0L216.7,5.5
								C216.7,5.5,216.7,5.5,216.7,5.5z"/>
							<path class="st13" d="M217.8,5.8C217.8,5.8,217.8,5.8,217.8,5.8C217.8,5.8,217.8,5.8,217.8,5.8
								C217.8,5.8,217.8,5.8,217.8,5.8l0.4-1.4c0,0,0,0,0.1,0c0,0,0,0,0,0c0,0,0,0,0,0L217.8,5.8C217.9,5.8,217.8,5.8,217.8,5.8z"/>
							<path class="st13" d="M218.9,6.3C218.9,6.3,218.9,6.3,218.9,6.3C218.9,6.2,218.9,6.2,218.9,6.3
								C218.9,6.2,218.9,6.2,218.9,6.3l0.2-0.7v0l0.3-0.7c0,0,0,0,0.1,0c0,0,0,0,0,0c0,0,0,0,0,0L218.9,6.3
								C218.9,6.2,218.9,6.3,218.9,6.3z"/>
						</g>
						<g>
							<path class="st13" d="M222.1,8.1C222.1,8.1,222.1,8.1,222.1,8.1C222.1,8.1,222.1,8.1,222.1,8.1C222.1,8,222.1,8,222.1,8.1
								l0.8-1.2c0,0,0,0,0.1,0c0,0,0,0,0,0c0,0,0,0,0,0L222.1,8.1C222.2,8.1,222.1,8.1,222.1,8.1z"/>
							<path class="st13" d="M223,8.8C223,8.8,223,8.8,223,8.8C223,8.8,223,8.8,223,8.8C223,8.8,223,8.7,223,8.8l0.4-0.6l0,0
								l0.5-0.5c0,0,0,0,0.1,0c0,0,0,0,0,0c0,0,0,0,0,0L223,8.8C223.1,8.8,223,8.8,223,8.8z"/>
							<path class="st13" d="M223.9,9.6C223.9,9.6,223.9,9.6,223.9,9.6C223.8,9.6,223.8,9.6,223.9,9.6
								C223.8,9.5,223.8,9.5,223.9,9.6l1-1.1c0,0,0,0,0.1,0c0,0,0,0,0,0c0,0,0,0,0,0L223.9,9.6C223.9,9.6,223.9,9.6,223.9,9.6z"/>
							<path class="st13" d="M224.7,10.5C224.7,10.5,224.7,10.4,224.7,10.5C224.6,10.4,224.6,10.4,224.7,10.5
								C224.6,10.4,224.6,10.4,224.7,10.5l0.5-0.5l0,0l0.5-0.5c0,0,0,0,0.1,0c0,0,0,0,0,0c0,0,0,0,0,0L224.7,10.5
								C224.7,10.4,224.7,10.5,224.7,10.5z"/>
							
								<rect x="225.3" y="10.9" transform="matrix(0.8031 -0.5958 0.5958 0.8031 38.0008 136.7887)" class="st13" width="1.4" height="0.1"/>
						</g>
						<g>
							<path class="st13" d="M227.2,14.6C227.2,14.6,227.2,14.6,227.2,14.6C227.2,14.5,227.2,14.5,227.2,14.6
								C227.2,14.5,227.2,14.5,227.2,14.6l1.3-0.6l0,0.1L227.2,14.6C227.3,14.6,227.2,14.6,227.2,14.6z"/>
							<path class="st13" d="M227.7,15.7C227.6,15.7,227.6,15.7,227.7,15.7C227.6,15.6,227.6,15.6,227.7,15.7
								C227.6,15.6,227.6,15.6,227.7,15.7l1.3-0.5c0,0,0,0,0.1,0c0,0,0,0,0,0c0,0,0,0,0,0L227.7,15.7
								C227.7,15.7,227.7,15.7,227.7,15.7z"/>
							<path class="st13" d="M228,16.8C228,16.8,227.9,16.8,228,16.8C227.9,16.7,227.9,16.7,228,16.8
								C227.9,16.7,227.9,16.7,228,16.8l0.7-0.3l0,0l0.7-0.2c0,0,0,0,0.1,0c0,0,0,0,0,0c0,0,0,0,0,0L228,16.8
								C228,16.8,228,16.8,228,16.8z"/>
							<path class="st13" d="M228.2,17.9C228.2,17.9,228.2,17.9,228.2,17.9C228.2,17.9,228.2,17.9,228.2,17.9
								C228.2,17.9,228.2,17.8,228.2,17.9l1.4-0.3c0,0,0,0,0.1,0c0,0,0,0,0,0c0,0,0,0,0,0l-0.7,0.1l0,0L228.2,17.9
								C228.2,17.9,228.2,17.9,228.2,17.9z"/>
							<path class="st13" d="M228.4,19.1C228.4,19.1,228.3,19.1,228.4,19.1C228.3,19,228.3,19,228.4,19.1
								C228.3,19,228.4,19,228.4,19.1l1.4-0.2c0,0,0,0,0.1,0c0,0,0,0,0,0c0,0,0,0,0,0L228.4,19.1C228.4,19.1,228.4,19.1,228.4,19.1z
								"/>
						</g>
						<g>
							<path class="st13" d="M229.7,23C229.7,23,229.7,23,229.7,23l-1.4-0.2c0,0,0,0,0,0c0,0,0,0,0,0c0,0,0,0,0.1,0L229.7,23
								C229.7,22.9,229.8,22.9,229.7,23C229.8,22.9,229.8,22.9,229.7,23C229.8,23,229.7,23,229.7,23z"/>
							<path class="st13" d="M229.5,24.2C229.5,24.2,229.5,24.2,229.5,24.2l-1.4-0.3c0,0,0,0,0,0c0,0,0,0,0,0c0,0,0,0,0.1,0
								L229.5,24.2C229.5,24.1,229.5,24.2,229.5,24.2C229.5,24.2,229.5,24.2,229.5,24.2C229.5,24.2,229.5,24.2,229.5,24.2z"/>
							<path class="st13" d="M229.2,25.4C229.2,25.4,229.2,25.4,229.2,25.4l-1.4-0.4c0,0,0,0,0,0c0,0,0,0,0,0c0,0,0,0,0.1,0
								L229.2,25.4C229.2,25.4,229.2,25.4,229.2,25.4C229.2,25.4,229.2,25.4,229.2,25.4C229.2,25.4,229.2,25.4,229.2,25.4z"/>
							<path class="st13" d="M228.8,26.7C228.8,26.7,228.8,26.7,228.8,26.7l-1.3-0.5c0,0,0,0,0,0c0,0,0,0,0,0c0,0,0,0,0.1,0
								L228.8,26.7C228.8,26.6,228.8,26.6,228.8,26.7C228.8,26.6,228.8,26.6,228.8,26.7C228.8,26.6,228.8,26.7,228.8,26.7z"/>
							<path class="st13" d="M228.3,27.8C228.3,27.8,228.3,27.8,228.3,27.8l-1.3-0.6c0,0,0,0,0,0c0,0,0,0,0,0c0,0,0,0,0.1,0
								L228.3,27.8C228.3,27.7,228.3,27.8,228.3,27.8C228.3,27.8,228.3,27.8,228.3,27.8C228.3,27.8,228.3,27.8,228.3,27.8z"/>
						</g>
						<g>
							
								<rect x="225.6" y="30.1" transform="matrix(0.6231 -0.7822 0.7822 0.6231 60.9685 188.0539)" class="st13" width="0.1" height="1.4"/>
							<path class="st13" d="M225.3,32.2C225.3,32.2,225.3,32.2,225.3,32.2l-1.1-1c0,0,0,0,0,0c0,0,0,0,0,0c0,0,0,0,0.1,0
								L225.3,32.2C225.4,32.1,225.4,32.2,225.3,32.2C225.4,32.2,225.4,32.2,225.3,32.2C225.3,32.2,225.3,32.2,225.3,32.2z"/>
							<path class="st13" d="M224.4,33.1C224.4,33.1,224.4,33.1,224.4,33.1l-1-1c0,0,0,0,0,0c0,0,0,0,0,0c0,0,0,0,0.1,0L224.4,33.1
								C224.5,33,224.5,33.1,224.4,33.1C224.5,33.1,224.5,33.1,224.4,33.1C224.4,33.1,224.4,33.1,224.4,33.1z"/>
							<path class="st13" d="M223.5,33.9C223.5,33.9,223.4,33.9,223.5,33.9l-0.5-0.6l0,0l-0.4-0.6c0,0,0,0,0,0c0,0,0,0,0,0
								c0,0,0,0,0.1,0L223.5,33.9C223.5,33.9,223.5,33.9,223.5,33.9C223.5,33.9,223.5,33.9,223.5,33.9
								C223.5,33.9,223.5,33.9,223.5,33.9z"/>
							<path class="st13" d="M222.4,34.7C222.4,34.7,222.4,34.7,222.4,34.7l-0.8-1.2c0,0,0,0,0,0c0,0,0,0,0,0c0,0,0,0,0.1,0
								L222.4,34.7C222.5,34.6,222.5,34.6,222.4,34.7C222.5,34.7,222.5,34.7,222.4,34.7C222.5,34.7,222.5,34.7,222.4,34.7z"/>
						</g>
						<g>
							<path class="st13" d="M218.9,36.6C218.8,36.6,218.8,36.5,218.9,36.6l-0.5-1.3c0,0,0,0,0,0c0,0,0,0,0,0c0,0,0.1,0,0.1,0
								L218.9,36.6C218.9,36.5,218.9,36.5,218.9,36.6C218.9,36.5,218.9,36.5,218.9,36.6C218.9,36.6,218.9,36.6,218.9,36.6z"/>
							<path class="st13" d="M217.7,37C217.6,37,217.6,36.9,217.7,37l-0.4-1.4c0,0,0,0,0,0c0,0,0,0,0,0c0,0,0,0,0.1,0L217.7,37
								C217.7,36.9,217.7,36.9,217.7,37C217.7,36.9,217.7,36.9,217.7,37C217.7,37,217.7,37,217.7,37z"/>
							<path class="st13" d="M216.4,37.3C216.4,37.3,216.4,37.3,216.4,37.3l-0.2-0.7l0,0l0,0l0,0l-0.1-0.7c0,0,0,0,0,0c0,0,0,0,0,0
								c0,0,0,0,0.1,0L216.4,37.3C216.5,37.2,216.5,37.2,216.4,37.3C216.5,37.2,216.5,37.3,216.4,37.3
								C216.4,37.3,216.4,37.3,216.4,37.3z"/>
							<path class="st13" d="M215.2,37.5C215.2,37.5,215.1,37.5,215.2,37.5l-0.1-0.7l0,0l-0.1-0.7c0,0,0,0,0,0c0,0,0,0,0,0
								c0,0,0,0,0.1,0L215.2,37.5C215.2,37.4,215.2,37.4,215.2,37.5C215.2,37.5,215.2,37.5,215.2,37.5
								C215.2,37.5,215.2,37.5,215.2,37.5z"/>
							<path class="st13" d="M213.9,37.6C213.9,37.6,213.9,37.6,213.9,37.6l-0.1-1.4c0,0,0,0,0,0c0,0,0,0,0,0c0,0,0,0,0,0
								L213.9,37.6C214,37.6,214,37.6,213.9,37.6C214,37.6,213.9,37.6,213.9,37.6C213.9,37.6,213.9,37.6,213.9,37.6z"/>
						</g>
						<g>
							<path class="st13" d="M210.6,37.5C210.6,37.5,210.6,37.5,210.6,37.5C210.5,37.5,210.5,37.5,210.6,37.5
								C210.5,37.4,210.5,37.4,210.6,37.5l0.1-1.4c0,0,0,0,0.1,0c0,0,0,0,0,0c0,0,0,0,0,0l-0.1,0.7l0,0L210.6,37.5
								C210.6,37.5,210.6,37.5,210.6,37.5z"/>
							<path class="st13" d="M209.3,37.3C209.3,37.3,209.3,37.3,209.3,37.3C209.3,37.3,209.3,37.2,209.3,37.3
								C209.3,37.2,209.3,37.2,209.3,37.3l0.2-1.4c0,0,0,0,0.1,0c0,0,0,0,0,0c0,0,0,0,0,0L209.3,37.3
								C209.3,37.3,209.3,37.3,209.3,37.3z"/>
							<path class="st13" d="M208.1,37C208.1,37,208.1,37,208.1,37C208,36.9,208,36.9,208.1,37C208,36.9,208,36.9,208.1,37l0.4-1.4
								c0,0,0,0,0.1,0c0,0,0,0,0,0c0,0,0,0,0,0l-0.2,0.7l0,0L208.1,37C208.1,36.9,208.1,37,208.1,37z"/>
							<path class="st13" d="M206.9,36.5L206.9,36.5l0.2-0.7l0,0l0.2-0.7c0,0,0,0,0.1,0c0,0,0,0,0,0c0,0,0,0,0,0L206.9,36.5z"/>
							<path class="st13" d="M205.7,36.1C205.7,36.1,205.7,36.1,205.7,36.1C205.7,36.1,205.7,36,205.7,36.1
								C205.7,36,205.7,36,205.7,36.1l0.6-1.3c0,0,0,0,0.1,0c0,0,0,0,0,0c0,0,0,0,0,0L205.7,36.1C205.7,36.1,205.7,36.1,205.7,36.1z
								"/>
						</g>
						<g>
							<path class="st13" d="M202.4,34.1C202.4,34.1,202.4,34.1,202.4,34.1C202.4,34.1,202.4,34,202.4,34.1
								C202.4,34,202.4,34,202.4,34.1l0.8-1.2l0.1,0.1L202.4,34.1C202.5,34.1,202.5,34.1,202.4,34.1z"/>
							<path class="st13" d="M201.5,33.3C201.5,33.3,201.4,33.3,201.5,33.3C201.4,33.2,201.4,33.2,201.5,33.3
								C201.4,33.2,201.4,33.2,201.5,33.3l0.9-1.1c0,0,0,0,0.1,0c0,0,0,0,0,0c0,0,0,0,0,0L201.5,33.3
								C201.5,33.3,201.5,33.3,201.5,33.3z"/>
							<path class="st13" d="M200.6,32.4C200.5,32.4,200.5,32.4,200.6,32.4C200.5,32.4,200.5,32.3,200.6,32.4
								C200.5,32.3,200.5,32.3,200.6,32.4l1-1.1l0.1,0.1l-0.5,0.5l0,0L200.6,32.4C200.6,32.4,200.6,32.4,200.6,32.4z"/>
							<path class="st13" d="M199.7,31.4C199.7,31.4,199.7,31.4,199.7,31.4C199.7,31.4,199.7,31.4,199.7,31.4
								C199.7,31.4,199.7,31.4,199.7,31.4l1.1-1c0,0,0,0,0.1,0c0,0,0,0,0,0c0,0,0,0,0,0L199.7,31.4
								C199.7,31.4,199.7,31.4,199.7,31.4z"/>
							<path class="st13" d="M199,30.4C198.9,30.4,198.9,30.4,199,30.4C198.9,30.4,198.9,30.4,199,30.4
								C198.9,30.4,198.9,30.3,199,30.4l0.5-0.5l0,0l0.6-0.4c0,0,0,0,0.1,0c0,0,0,0,0,0c0,0,0,0,0,0L199,30.4
								C199,30.4,199,30.4,199,30.4z"/>
						</g>
						<g>
							<path class="st13" d="M197.1,27.1C197.1,27.1,197.1,27.1,197.1,27.1C197.1,27,197.1,27,197.1,27.1
								C197.1,27,197.1,27,197.1,27.1l0.6-0.4l0,0l0.7-0.3c0,0,0.1,0,0.1,0c0,0,0,0,0,0c0,0,0,0,0,0L197.1,27.1
								C197.1,27.1,197.1,27.1,197.1,27.1z"/>
							<path class="st13" d="M196.7,25.9C196.7,25.9,196.6,25.9,196.7,25.9C196.6,25.8,196.6,25.8,196.7,25.9
								C196.6,25.8,196.7,25.8,196.7,25.9l0.7-0.3l0,0l0.7-0.2c0,0,0,0,0.1,0c0,0,0,0,0,0c0,0,0,0,0,0L196.7,25.9
								C196.7,25.9,196.7,25.9,196.7,25.9z"/>
							<path class="st13" d="M196.3,24.7C196.3,24.7,196.3,24.6,196.3,24.7C196.3,24.6,196.3,24.6,196.3,24.7
								C196.3,24.6,196.3,24.6,196.3,24.7l0.7-0.3v0l0.7-0.2c0,0,0,0,0.1,0c0,0,0,0,0,0c0,0,0,0,0,0L196.3,24.7
								C196.3,24.7,196.3,24.7,196.3,24.7z"/>
							<path class="st13" d="M196.1,23.4C196.1,23.4,196,23.4,196.1,23.4C196,23.4,196,23.4,196.1,23.4
								C196,23.3,196.1,23.3,196.1,23.4l1.4-0.3c0,0,0,0,0.1,0c0,0,0,0,0,0c0,0,0,0,0,0l-0.7,0.1l0,0L196.1,23.4
								C196.1,23.4,196.1,23.4,196.1,23.4z"/>
							<path class="st13" d="M195.9,22.2C195.9,22.2,195.9,22.1,195.9,22.2C195.9,22.1,195.9,22.1,195.9,22.2
								C195.9,22.1,195.9,22.1,195.9,22.2l1.4-0.2c0,0,0,0,0,0c0,0,0,0,0,0c0,0,0,0,0,0L195.9,22.2
								C195.9,22.2,195.9,22.2,195.9,22.2z"/>
						</g>
						<g>
							<path class="st13" d="M197.4,18.5C197.4,18.5,197.4,18.5,197.4,18.5l-1.4-0.2c0,0,0,0,0,0c0,0,0,0,0,0c0,0,0,0,0.1,0
								L197.4,18.5C197.4,18.4,197.5,18.5,197.4,18.5C197.5,18.5,197.5,18.5,197.4,18.5C197.5,18.5,197.4,18.5,197.4,18.5z"/>
							<path class="st13" d="M197.6,17.4l-0.7-0.1l0,0l-0.7-0.1c0,0,0,0,0,0c0,0,0,0,0,0c0,0,0,0,0.1,0L197.6,17.4L197.6,17.4z"/>
							<path class="st13" d="M197.9,16.2l-0.7-0.2l0,0l-0.7-0.2c0,0,0,0,0,0c0,0,0,0,0,0c0,0,0,0,0.1,0L197.9,16.2L197.9,16.2z"/>
							<path class="st13" d="M198.3,15.1C198.3,15.1,198.3,15.1,198.3,15.1l-1.3-0.5c0,0,0,0,0,0c0,0,0,0,0,0c0,0,0,0,0.1,0l0.7,0.2
								l0,0L198.3,15.1C198.3,15.1,198.3,15.1,198.3,15.1C198.3,15.1,198.3,15.1,198.3,15.1C198.3,15.1,198.3,15.1,198.3,15.1z"/>
							<path class="st13" d="M198.7,14.1C198.7,14.1,198.7,14.1,198.7,14.1l-0.7-0.3v0l-0.6-0.3l0-0.1L198.7,14.1
								C198.8,14,198.8,14,198.7,14.1C198.8,14,198.8,14,198.7,14.1C198.8,14.1,198.7,14.1,198.7,14.1z"/>
						</g>
						<g>
							<path class="st13" d="M200.5,11.1C200.5,11.1,200.5,11.1,200.5,11.1l-1.1-0.9c0,0,0,0,0,0c0,0,0,0,0,0c0,0,0,0,0.1,0
								L200.5,11.1C200.6,11,200.6,11,200.5,11.1C200.6,11,200.6,11.1,200.5,11.1C200.6,11.1,200.6,11.1,200.5,11.1z"/>
							<path class="st13" d="M201.3,10.2C201.3,10.2,201.3,10.2,201.3,10.2l-1.1-1c0,0,0,0,0,0c0,0,0,0,0,0c0,0,0,0,0.1,0l0.5,0.5h0
								L201.3,10.2C201.3,10.1,201.3,10.1,201.3,10.2C201.3,10.2,201.3,10.2,201.3,10.2C201.3,10.2,201.3,10.2,201.3,10.2z"/>
							<path class="st13" d="M202.1,9.4C202.1,9.4,202.1,9.4,202.1,9.4l-0.5-0.5l0,0l-0.5-0.5c0,0,0,0,0,0c0,0,0,0,0,0
								c0,0,0,0,0.1,0L202.1,9.4C202.1,9.3,202.1,9.3,202.1,9.4C202.1,9.3,202.1,9.3,202.1,9.4C202.1,9.4,202.1,9.4,202.1,9.4z"/>
							<path class="st13" d="M203,8.6C203,8.6,202.9,8.6,203,8.6L202,7.5c0,0,0,0,0,0c0,0,0,0,0,0c0,0,0,0,0.1,0L203,8.6
								C203,8.5,203,8.5,203,8.6C203,8.6,203,8.6,203,8.6C203,8.6,203,8.6,203,8.6z"/>
							<path class="st13" d="M203.9,7.9C203.9,7.9,203.9,7.9,203.9,7.9l-0.4-0.6l0,0L203,6.7c0,0,0,0,0,0c0,0,0,0,0,0c0,0,0,0,0.1,0
								L203.9,7.9C203.9,7.8,203.9,7.8,203.9,7.9C203.9,7.8,203.9,7.9,203.9,7.9C203.9,7.9,203.9,7.9,203.9,7.9z"/>
						</g>
						<g>
							<path class="st13" d="M207,6.2C206.9,6.2,206.9,6.2,207,6.2l-0.6-1.3c0,0,0,0,0,0c0,0,0,0,0,0c0,0,0.1,0,0.1,0l0.3,0.7l0,0
								L207,6.2C207,6.1,207,6.1,207,6.2C207,6.2,207,6.2,207,6.2C207,6.2,207,6.2,207,6.2z"/>
							<path class="st13" d="M208.1,5.8C208,5.8,208,5.8,208.1,5.8l-0.5-1.4c0,0,0,0,0,0c0,0,0,0,0,0c0,0,0,0,0.1,0l0.2,0.7v0
								L208.1,5.8C208.1,5.7,208.1,5.7,208.1,5.8C208.1,5.8,208.1,5.8,208.1,5.8C208.1,5.8,208.1,5.8,208.1,5.8z"/>
							<rect x="209" y="4" transform="matrix(0.9713 -0.238 0.238 0.9713 4.8734 49.8747)" class="st13" width="0.1" height="1.4"/>
							<path class="st13" d="M210.3,5.3C210.3,5.3,210.3,5.2,210.3,5.3l-0.2-0.7l0,0L210,3.8c0,0,0,0,0,0c0,0,0,0,0,0c0,0,0,0,0.1,0
								L210.3,5.3C210.4,5.2,210.4,5.2,210.3,5.3C210.4,5.2,210.3,5.2,210.3,5.3C210.3,5.2,210.3,5.3,210.3,5.3z"/>
							<path class="st13" d="M211.5,5.1C211.4,5.1,211.4,5.1,211.5,5.1l-0.1-0.7v0l-0.1-0.7c0,0,0,0,0,0c0,0,0,0,0,0c0,0,0,0,0,0
								l0.1,0.7v0L211.5,5.1C211.5,5.1,211.5,5.1,211.5,5.1C211.5,5.1,211.5,5.1,211.5,5.1C211.5,5.1,211.5,5.1,211.5,5.1z"/>
						</g>
					</g>
					<path class="st13" d="M220.5,7.6C220.4,7.6,220.4,7.6,220.5,7.6c-0.1-0.1-0.2-0.1-0.2-0.2c0,0,0-0.1,0-0.1l0.7-1.2v0l0.7-1.2
						c0-0.1,0.1-0.1,0.2-0.1c0.1,0,0.1,0.1,0.1,0.1c0,0,0,0.1,0,0.1l-1.4,2.4C220.6,7.6,220.5,7.6,220.5,7.6z"/>
					
						<rect x="225.8" y="12.2" transform="matrix(0.8683 -0.496 0.496 0.8683 23.7872 114.353)" class="st13" width="2.8" height="0.3"/>
					<path class="st13" d="M230.8,20.9C230.8,20.9,230.8,20.9,230.8,20.9l-2.8,0c-0.1,0-0.2-0.1-0.2-0.2c0,0,0,0,0,0
						c0-0.1,0.1-0.2,0.2-0.2c0,0,0,0,0,0l2.8,0c0.1,0,0.2,0.1,0.2,0.2c0,0,0,0,0,0C231,20.8,230.9,20.9,230.8,20.9z"/>
					<path class="st13" d="M228.3,29.9C228.3,29.9,228.3,29.9,228.3,29.9l-2.5-1.4c-0.1,0-0.1-0.1-0.1-0.1c0,0,0-0.1,0-0.1
						c0-0.1,0.1-0.1,0.2-0.1l2.4,1.4c0.1,0,0.1,0.1,0.1,0.1c0,0,0,0.1,0,0.1C228.4,29.9,228.4,29.9,228.3,29.9z"/>
					<path class="st13" d="M221.5,36.3l-1.4-2.4c0,0,0-0.1,0-0.1c0-0.1,0-0.1,0.1-0.1c0.1,0,0.2,0,0.2,0.1l1.4,2.4L221.5,36.3z"/>
					<path class="st13" d="M212.6,38.7C212.6,38.7,212.6,38.7,212.6,38.7c-0.1,0-0.2-0.1-0.2-0.2c0,0,0,0,0,0l0-2.8
						c0-0.1,0.1-0.2,0.2-0.2c0,0,0,0,0,0c0.1,0,0.2,0.1,0.2,0.2c0,0,0,0,0,0l0,2.8C212.8,38.6,212.7,38.7,212.6,38.7z"/>
					<path class="st13" d="M203.6,36.2C203.6,36.2,203.6,36.2,203.6,36.2c-0.1-0.1-0.2-0.1-0.2-0.2c0,0,0-0.1,0-0.1l1.4-2.4l0.3,0.2
						l-1.4,2.4C203.7,36.1,203.7,36.2,203.6,36.2z"/>
					<path class="st13" d="M197.1,29.4c-0.1,0-0.1,0-0.1-0.1c0,0,0-0.1,0-0.1c0-0.1,0-0.1,0.1-0.1l2.5-1.4c0.1,0,0.2,0,0.2,0.1
						c0,0,0,0.1,0,0.1c0,0.1,0,0.1-0.1,0.1L197.1,29.4C197.2,29.4,197.2,29.4,197.1,29.4z"/>
					<path class="st13" d="M197.7,20.4C197.7,20.4,197.7,20.4,197.7,20.4l-2.8-0.1c-0.1,0-0.2-0.1-0.2-0.2c0,0,0,0,0,0
						c0-0.1,0.1-0.2,0.2-0.2l2.8,0.1c0.1,0,0.2,0.1,0.2,0.2c0,0,0,0,0,0C197.9,20.4,197.8,20.4,197.7,20.4z"/>
					
						<rect x="198.6" y="10.6" transform="matrix(0.5202 -0.854 0.854 0.5202 85.1146 175.4633)" class="st13" width="0.3" height="2.8"/>
					<path class="st13" d="M205.6,7.4c-0.1,0-0.1,0-0.1-0.1l-1.3-2.5c0,0,0-0.1,0-0.1c0-0.1,0-0.1,0.1-0.1c0.1,0,0.2,0,0.2,0.1
						l0.7,1.2l0,0l0.7,1.2c0,0,0,0.1,0,0.1C205.8,7.3,205.8,7.4,205.6,7.4C205.7,7.4,205.7,7.4,205.6,7.4z"/>
				</g>
				<path class="st10" d="M221.3,26.4c-0.1,0-0.2,0-0.3-0.1l-7.9-4.8c-0.3-0.2-0.4-0.6-0.2-0.8c0.2-0.3,0.6-0.4,0.8-0.2l7.9,4.8
					c0.3,0.2,0.4,0.6,0.2,0.8C221.7,26.3,221.5,26.4,221.3,26.4z"/>
				<path class="st10" d="M201.4,27.6c-0.2,0-0.3-0.1-0.4-0.2c-0.1-0.2,0-0.5,0.2-0.6l11.1-6.3c0.2-0.1,0.5,0,0.6,0.2
					c0.1,0.2,0,0.5-0.2,0.6l-11.1,6.3C201.5,27.6,201.5,27.6,201.4,27.6z"/>
				<path class="st10" d="M212.8,20.7c-0.1,0-0.1-0.1-0.2-0.2l-3.2-13.8c0-0.1,0-0.2,0.2-0.3c0.1,0,0.2,0,0.3,0.2l3.2,13.8
					c0,0.1,0,0.2-0.2,0.3C212.9,20.7,212.9,20.7,212.8,20.7z"/>
				<path class="st4" d="M213.9,20.6c0,0.6-0.5,1-1,1c-0.6,0-1-0.5-1-1c0-0.6,0.5-1,1-1C213.4,19.6,213.9,20,213.9,20.6z"/>
			</g>
		</g>
	</g>
	<g>
		<path class="st14" d="M166.6,156.6c-6-1.9-13,1.5-13,1.5c2.4,9.1,10.6,10.1,13,10.1c2.4,0,10.5-1,13-10.1
			C179.5,158.1,172.6,154.7,166.6,156.6L166.6,156.6z"/>
		<g>
			<defs>
				<path id="SVGID_1_" d="M166.6,159.5c-6.4,0-9,0.6-9,0.6c1.7,3.9,7.4,4.3,9,4.3c1.7,0,7.4-0.4,9-4.3
					C175.7,160.1,173.1,159.5,166.6,159.5L166.6,159.5z"/>
			</defs>
			<use xlink:href="#SVGID_1_"  style="overflow:visible;fill:#9B5459;"/>
			<clipPath id="SVGID_2_">
				<use xlink:href="#SVGID_1_"  style="overflow:visible;"/>
			</clipPath>
			<path class="st15" d="M166.6,157.6c-6.4,0-9,0.6-9,0.6c1.7,3.9,7.4,4.3,9,4.3c1.7,0,7.4-0.4,9-4.3
				C175.7,158.2,173.1,157.6,166.6,157.6L166.6,157.6z"/>
		</g>
		<path class="st6" d="M196,129.8c0.7-1.5,0.9-3.4,0.6-4.9c-0.9-5.3-7.5-7.6-14.2-6.4c-7.7,3-11.4-1.3-10.6,19.9
			c1.4-8.4,4.3-10.8,11.2-10.8C186.6,127.6,187.8,132.6,196,129.8L196,129.8z"/>
		<path class="st7" d="M186.3,133.9c4-0.7,6.8-3.7,6.2-6.7c-0.5-3-4.2-4.9-8.2-4.2c-4,0.7-6.8,3.7-6.2,6.7
			C178.6,132.7,182.3,134.6,186.3,133.9L186.3,133.9z"/>
		<g>
			<defs>
				<path id="SVGID_3_" d="M182.8,135c-5,0-9-3.2-9-3.2s3.4-5.9,9.3-5.9c5,0,7.4,5.9,7.4,5.9S187.8,135,182.8,135L182.8,135z"/>
			</defs>
			<use xlink:href="#SVGID_3_"  style="overflow:visible;fill:#FFFFFF;"/>
			<clipPath id="SVGID_4_">
				<use xlink:href="#SVGID_3_"  style="overflow:visible;"/>
			</clipPath>
			<path class="st16" d="M186.2,129.8c0,2.4-1.9,4.3-4.3,4.3c-2.4,0-4.3-1.9-4.3-4.3c0-2.4,1.9-4.3,4.3-4.3
				C184.3,125.5,186.2,127.4,186.2,129.8L186.2,129.8z"/>
			<path class="st17" d="M184.4,129.8c0,1.4-1.1,2.5-2.5,2.5c-1.4,0-2.5-1.1-2.5-2.5c0-1.4,1.1-2.5,2.5-2.5
				C183.2,127.3,184.4,128.4,184.4,129.8L184.4,129.8z"/>
			<path class="st18" d="M181.1,128.9c0,0.5-0.4,0.9-0.9,0.9s-0.9-0.4-0.9-0.9s0.4-0.9,0.9-0.9S181.1,128.5,181.1,128.9L181.1,128.9
				z"/>
		</g>
		<path d="M173.7,131.8c0.6-3.9,6.4-11,16.7-5.4c1.1,0.5,2.3,1.5,3.9,0.6c0,0-0.1,0.4-0.5,1c-0.3,0.5-0.7,0.9-1.2,1.2
			c0.9,0.5,2,0.7,3.4,0.3c0,0-0.2,0.4-0.7,0.9c-1,1.1-3.4,1.4-4.6,1.1c-0.5,0.9-2.1,2.6-5.5,3.1c0,0,3.6-1.3,4.5-4
			C180.9,120.3,173.7,131.8,173.7,131.8L173.7,131.8z"/>
		<path d="M174.7,120.9c-1,0.5-1.4,3.1-0.3,3.5c1.1,0.4,14.3-11.4,22,0C196.7,124.9,194.3,112.1,174.7,120.9L174.7,120.9z"/>
		<path class="st7" d="M172,149.8c0-1.3-2-3.2-5.3-3.2c0,0-0.2,0-0.2,0c-3.4,0-5.3,1.8-5.3,3.2c0,1.1,1.5-0.4,2.9,0.7
			c0.9,0.7,1.5,0.9,2.4,0.9c0,0,0.2,0,0.2,0c1,0,1.5-0.2,2.4-0.9C170.5,149.4,172,150.9,172,149.8L172,149.8z"/>
		<path class="st6" d="M137.2,129.8c-0.7-1.5-0.9-3.4-0.6-4.9c0.9-5.3,7.5-7.6,14.2-6.4c7.7,3,11.4-1.3,10.6,19.9
			c-1.4-8.4-4.3-10.8-11.2-10.8C146.6,127.6,145.4,132.6,137.2,129.8L137.2,129.8z"/>
		<path class="st7" d="M146.9,133.9c-4-0.7-6.8-3.7-6.2-6.7c0.5-3,4.2-4.9,8.2-4.2c4,0.7,6.8,3.7,6.2,6.7
			C154.5,132.7,150.9,134.6,146.9,133.9L146.9,133.9z"/>
		<g>
			<defs>
				<path id="SVGID_5_" d="M150.4,135c5,0,9-3.2,9-3.2s-3.4-5.9-9.3-5.9c-5,0-7.4,5.9-7.4,5.9S145.4,135,150.4,135L150.4,135z"/>
			</defs>
			<use xlink:href="#SVGID_5_"  style="overflow:visible;fill:#FFFFFF;"/>
			<clipPath id="SVGID_6_">
				<use xlink:href="#SVGID_5_"  style="overflow:visible;"/>
			</clipPath>
			<path class="st19" d="M147,129.8c0,2.4,1.9,4.3,4.3,4.3c2.4,0,4.3-1.9,4.3-4.3c0-2.4-1.9-4.3-4.3-4.3
				C148.9,125.5,147,127.4,147,129.8L147,129.8z"/>
			<path class="st20" d="M148.8,129.8c0,1.4,1.1,2.5,2.5,2.5s2.5-1.1,2.5-2.5c0-1.4-1.1-2.5-2.5-2.5S148.8,128.4,148.8,129.8
				L148.8,129.8z"/>
			<path class="st21" d="M152.1,128.9c0,0.5,0.4,0.9,0.9,0.9c0.5,0,0.9-0.4,0.9-0.9s-0.4-0.9-0.9-0.9
				C152.5,128.1,152.1,128.5,152.1,128.9L152.1,128.9z"/>
		</g>
		<path d="M159.5,131.8c-0.6-3.9-6.4-11-16.7-5.4c-1.1,0.5-2.3,1.5-3.9,0.6c0,0,0.1,0.4,0.5,1c0.3,0.5,0.7,0.9,1.2,1.2
			c-0.9,0.5-2,0.7-3.4,0.3c0,0,0.2,0.4,0.7,0.9c1,1.1,3.4,1.4,4.6,1.1c0.5,0.9,2.1,2.6,5.5,3.1c0,0-3.6-1.3-4.5-4
			C152.3,120.3,159.5,131.8,159.5,131.8L159.5,131.8z"/>
		<path d="M158.5,120.9c1,0.5,1.4,3.1,0.3,3.5c-1.1,0.4-14.3-11.4-22,0C136.5,124.9,138.9,112.1,158.5,120.9L158.5,120.9z"/>
	</g>
	<path class="st0" d="M189.3,171.1h-18.9c-2.9,0-5.2-2.3-5.2-5.2l0,0c0-2.9,2.3-5.2,5.2-5.2h18.9c2.9,0,5.2,2.3,5.2,5.2l0,0
		C194.5,168.8,192.2,171.1,189.3,171.1z"/>
</g>
</svg>
