<svg xmlns="http://www.w3.org/2000/svg" viewBox="0 0 125.3 42"><defs><style>.cls-1{fill:#1da1f2;}.cls-2{font-size:18.2px;font-family:GothamRounded-Medium, Gotham Rounded;letter-spacing:-0.1em;}.cls-2,.cls-5{fill:#fff;}.cls-3{letter-spacing:-0.05em;}.cls-4{letter-spacing:-0.04em;}</style></defs><title>tweetAsset 4</title><g id="Layer_2" data-name="Layer 2"><g id="Layer_1-2" data-name="Layer 1"><path id="Button" class="cls-1" d="M125.3,39.2A2.6,2.6,0,0,1,123,42H2.35A2.6,2.6,0,0,1,0,39.2V2.8A2.6,2.6,0,0,1,2.35,0H123a2.6,2.6,0,0,1,2.35,2.8Z"/><text class="cls-2" transform="translate(58.48 26.23)">T<tspan class="cls-3" x="10.05" y="0">w</tspan><tspan class="cls-4" x="24.61" y="0">eet</tspan></text><path class="cls-5" d="M29.72,27a5.94,5.94,0,0,1-5.32-4h2.35a6.15,6.15,0,0,1-4.38-5.69l2.38.67a6.2,6.2,0,0,1-1.58-7.73A16.48,16.48,0,0,0,35,16.3a6.85,6.85,0,0,1,.27-3.4,5.72,5.72,0,0,1,9.12-2.2.9.9,0,0,0,1,.24l3-1.1a6.58,6.58,0,0,1-2.2,3c.48-.1,1-.19,1.44-.32s.93-.29,1.4-.44l.13.14c-.73.75-1.43,1.54-2.22,2.22a1.34,1.34,0,0,0-.54,1.2A16.24,16.24,0,0,1,21.85,29.7a1.48,1.48,0,0,1-.21-.13,1,1,0,0,1-.13-.14A11.87,11.87,0,0,0,29.72,27Z"/></g></g></svg>