<?xml version="1.0" encoding="utf-8"?>
<!-- Generator: Adobe Illustrator 22.0.1, SVG Export Plug-In . SVG Version: 6.00 Build 0)  -->
<svg version="1.1" id="Layer_1" xmlns="http://www.w3.org/2000/svg" xmlns:xlink="http://www.w3.org/1999/xlink" x="0px" y="0px"
	 viewBox="0 0 150 150" style="enable-background:new 0 0 150 150;" xml:space="preserve">
<style type="text/css">
	.st0{fill:#FF6010;}
	.st1{fill:#FFFFFF;}
</style>
<g>
	<g>
		<g>
			<path class="st0" d="M143.6,69.6c0,37.9-30.7,68.6-68.6,68.6c-37.9,0-68.6-30.7-68.6-68.6C6.4,31.7,37.1,1,75,1
				C112.9,1,143.6,31.7,143.6,69.6z"/>
			<path class="st1" d="M143.6,71.8c0,37.9-30.7,68.6-68.6,68.6c-37.9,0-68.6-30.7-68.6-68.6C6.4,33.9,37.1,3.2,75,3.2
				C112.9,3.2,143.6,33.9,143.6,71.8z"/>
		</g>
		<g>
			<path class="st0" d="M103.9,149c-8.3,0-16.4,0-24.7,0c0-0.4-0.1-0.8-0.1-1.2c0-4.4,0-8.8-0.6-13.2c-0.6-4.4,0.8-8.5,2.8-12.3
				c2.9-5.7,7-10.5,12.2-14.3c3.5-2.6,7.7-3.5,11.8-4.3c2.4-0.4,4.7-0.6,7.1-0.9c1.9-0.2,3.4-1.2,4.7-2.5c2.1-2.2,4.1-4.7,6.1-7
				c3.1-3.6,6.5-6.8,10.9-8.6c1.2-0.5,2.5-0.8,3.8-0.7c2.3,0.2,3,1.8,1.7,3.7c-2.9,4.2-5.9,8.5-9,12.6c-1.2,1.6-2.7,2.9-4,4.4
				c2.5-1.6,5-2.9,6.6-5.6c2-3.3,4.6-6.3,6.9-9.5c0.5-0.6,1-1.3,1.3-2c1.1-2.1,0.3-4.1-1.9-5c-0.4-0.2-0.8-0.3-1.3-0.4
				c0.3-2.6,0.5-5.2,0.9-7.8c0.5-4,1.1-7.9,1.7-11.9c0.3-1.7,1.2-3.1,2.8-3.8c1.2-0.6,2.2-0.3,2.6,1c0.4,1.4,0.6,2.8,0.8,4.2
				c0.5,5.8,0.8,11.6,1.3,17.3c0.2,3.2-0.3,6.3-1.6,9.2c-3.1,6.8-6.2,13.5-9.2,20.3c-1.8,4-5,6.4-8.6,8.6
				c-6.4,3.9-12.8,7.8-19.1,11.8c-3.7,2.3-6,5.5-5.8,10.2C104,143.8,103.9,146.4,103.9,149z"/>
			<path class="st0" d="M11.8,82.1c-0.6,0.2-1,0.3-1.5,0.5c-2,0.9-2.8,2.8-1.8,4.7c0.7,1.3,1.7,2.4,2.5,3.6c2.2,3.1,4.3,6.1,6.5,9.2
				c0.6,0.8,1.4,1.5,2.2,2.2c1.1,0.9,2.4,1.6,3.8,2.5c-0.2-0.4-0.2-0.5-0.3-0.6c-4.4-4.1-7.4-9.3-10.9-14.1c-0.8-1-1.6-2.1-2.2-3.3
				c-0.7-1.2-0.4-2.2,0.9-2.7c1.3-0.6,2.5-0.6,3.8-0.1c4.9,1.8,8.7,5.2,12,9.1c1.5,1.7,2.9,3.5,4.4,5.3c2.5,3.1,5.6,4.4,9.6,4.6
				c4.5,0.2,8.9,1.3,13,3.1c3.8,1.7,6.8,4.7,9.5,7.8c3.7,4.2,6.6,8.9,7.8,14.5c0.4,2,0.6,4.2,0.5,6.3c-0.1,4.3-0.4,8.5-0.6,12.8
				c0,0.4,0,0.9,0,1.4c-8.3,0-16.5,0-24.8,0c0-2.4-0.1-4.7,0-7c0.4-5.2-2.2-8.7-6.4-11.3c-7.4-4.6-14.7-9.2-22-13.8
				c-1.8-1.2-3.2-2.8-4.2-4.7c-4.2-7.9-7.9-16-11-24.3c-1.1-3-0.8-6-0.6-9C2.3,73.4,2.8,68,3.3,62.6c0.1-1.1,0.3-2.1,0.7-3.1
				c0.4-1.1,1.2-1.3,2.3-0.8C8,59.4,9,60.8,9.2,62.5c0.7,3.9,1.2,7.9,1.7,11.9C11.3,77,11.5,79.5,11.8,82.1z"/>
		</g>
	</g>
	<g>
		<path class="st0" d="M43.4,54.7l0,2H29.6l0,9.6c0,1.3,0.2,2.3,0.7,3c0.4,0.7,1.4,1.1,3,1.2c0.9,0,1.8-0.3,2.6-0.9
			c0.8-0.6,1.5-1.3,2-2.2c0.5-0.9,0.8-1.7,0.8-2.5l0-6.1l3.4,1.2v16.7c0,1-0.3,2-0.8,2.8c-0.5,0.9-1.2,1.6-2,2.2
			c-0.9,0.6-1.8,1-2.9,1.3c-1.1,0.3-2.1,0.4-3.2,0.4c-2.1,0-3.8-0.3-5.3-1c-1.4-0.6-2.5-1.4-3.1-2.2c-0.7-0.9-1-1.6-1-2.2
			c0-0.6,0.2-1.2,0.6-1.8c0.4-0.6,0.9-1,1.5-1.5c0.6-0.4,1.3-0.8,2.1-1c0.8-0.3,1.6-0.4,2.3-0.4l2.1,2.8c-0.5,0-1.2,0.1-2.1,0.3
			c-1,0.2-1.9,0.5-2.9,0.9c-1,0.4-1.4,1-1.4,1.7c0,0.3,0.2,0.6,0.5,1.2c0.3,0.5,0.9,1,1.7,1.4c0.8,0.5,1.9,0.7,3.2,0.7
			c1.3,0,2.6-0.2,3.8-0.7c1.2-0.5,2.2-1.2,2.9-2.1c0.7-0.9,1.1-2,1.1-3.2v-6.6c-0.2,0.3-0.7,0.6-1.5,1.1c-0.9,0.4-2.2,0.7-4.1,0.7
			c-1.2,0-2.3-0.2-3.3-0.7c-1-0.4-1.9-1.1-2.5-2c-0.6-0.9-1-1.8-1-2.9v-9h-2.3v-2H43.4z"/>
		<path class="st0" d="M59.1,56.7H48.3v2.6c0.1,0,0.1,0,0.1,0.1c0,0,0.1,0.1,0.1,0.1c0,0,0.2-0.1,0.7-0.2c0.5-0.1,1-0.2,1.6-0.4
			c0.6-0.1,1.2-0.2,1.8-0.2c1.3,0,2.3,0.2,3.1,0.5c0.8,0.4,1.3,0.9,1.6,1.5c0.3,0.7,0.5,1.4,0.6,2.2c0.1,0.8,0.1,1.9,0.1,3.3v6.3
			c-0.8-0.3-1.4-0.6-1.8-0.7c-0.4-0.1-0.6-0.3-0.8-0.3c0-0.3-0.1-0.6-0.2-0.7c-0.4,0.2-0.8,0.4-1.2,0.7c-0.4,0.2-1,0.5-1.7,0.6
			c-0.7,0.2-1.6,0.3-2.6,0.3c-0.9,0-1.9-0.2-2.8-0.5c-0.9-0.3-1.6-0.8-2.2-1.5c-0.6-0.6-0.8-1.4-0.8-2.2c0-0.8,0.4-1.6,1.1-2.4
			c0.7-0.8,1.6-1.5,2.8-2.1c1.2-0.5,2.5-0.8,3.9-0.8c0.8,0,1.5,0.1,2.2,0.3c0.7,0.2,1.2,0.5,1.6,0.7v-1.5c-0.5-0.6-0.9-1-1.3-1.2
			C53.7,61.1,53,61,52.1,61c-1.1,0-2,0.1-2.7,0.3c-0.7,0.1-1.4,0.4-2.1,0.7c-0.8,0.3-1.4,0.5-1.9,0.7v-1.2c0.1-0.1,0.2-0.2,0.3-0.3
			c0.1-0.1,0.2-0.2,0.3-0.3c0-0.1,0.1-0.1,0.1-0.1v-4.2h-3.3v-2h16.3V56.7z M55.4,67c0-0.5-0.6-0.9-1.7-1.3
			c-1.1-0.3-1.9-0.5-2.4-0.5c-1.2,0-2.3,0.2-3.2,0.7c-1,0.5-1.7,1.1-2.3,1.7c-0.6,0.7-0.8,1.2-0.8,1.6c0.1,0.4,0.5,0.8,1,0.9
			c0.5,0.2,1.1,0.3,1.7,0.3c1.1,0,2.1-0.1,3.1-0.4c0.9-0.3,1.8-0.6,2.5-1.1c0.7-0.4,1.2-0.8,1.6-1.2C55.2,67.4,55.4,67.1,55.4,67z"
			/>
		<path class="st0" d="M77.6,56.7H58.9v-2h18.7V56.7z M76.3,65.7c0,1.2-0.4,2.3-1.1,3.3c-0.7,1-1.6,1.9-2.7,2.5
			c-1.1,0.6-2,0.9-3,0.9c-0.8,0-1.7-0.3-2.7-1c-1-0.7-2.1-1.7-3.5-3v13.8l-2.6-1.4V59.3h2.5v4c0.2-0.2,0.5-0.6,1-1
			c0.5-0.5,1-1,1.6-1.5c0.6-0.5,1.3-1,2-1.4c0.7-0.4,1.4-0.6,2-0.6c0.6,0,1.3,0.2,2,0.6c0.7,0.4,1.5,0.9,2.1,1.6
			c0.7,0.7,1.2,1.4,1.7,2.3C76.1,64,76.3,64.8,76.3,65.7z M74.7,63.8c0-0.3-0.1-0.6-0.3-1.1c-0.2-0.5-0.5-0.9-1-1.3
			c-0.4-0.4-1-0.6-1.6-0.6c-0.7,0-1.5,0.2-2.4,0.7c-0.9,0.5-1.7,1.1-2.5,1.8c-0.8,0.7-1.5,1.5-2,2.2c-0.5,0.8-0.8,1.4-0.8,1.8
			c0,0.3,0.2,0.7,0.6,1c0.4,0.4,0.9,0.7,1.5,0.9c0.6,0.2,1.2,0.4,1.8,0.4c1,0,1.9-0.2,2.7-0.6c0.9-0.4,1.6-0.9,2.2-1.6
			c0.6-0.6,1.1-1.3,1.4-1.9C74.5,64.9,74.7,64.3,74.7,63.8z"/>
		<path class="st0" d="M94.6,56.7H77.1v-2h17.5V56.7z M91.1,63.8c0-2.6-1.2-3.9-3.7-3.9c-0.7,0-1.5,0.2-2.2,0.6
			c-0.8,0.4-1.4,1-2,1.8c-0.6,0.7-1.1,1.6-1.4,2.7c-0.4,1-0.5,2.1-0.5,3.2v4.7l-2.7-1.4V59.3h2.8v1.9c0.2-0.2,0.6-0.5,1.1-0.9
			c0.5-0.4,1.2-0.8,1.9-1.1c0.8-0.3,1.6-0.5,2.5-0.5c0.9,0,1.7,0.2,2.5,0.6c0.8,0.4,1.5,0.9,2.1,1.5c0.6,0.7,1.1,1.4,1.5,2.3
			c0.4,0.9,0.5,1.9,0.5,2.9c0,1.2-0.2,2.3-0.7,3.5c-0.5,1.2-1.3,2.4-2.4,3.6l-3.1-2c0.2-0.3,0.6-0.6,1.1-1.1c0.5-0.5,1-1,1.4-1.5
			c0.4-0.5,0.7-1.2,1-1.9C91,65.8,91.1,64.8,91.1,63.8z"/>
		<path class="st0" d="M110.3,56.7H99.5v2.6c0.1,0,0.1,0,0.1,0.1c0,0,0.1,0.1,0.1,0.1c0,0,0.2-0.1,0.7-0.2c0.5-0.1,1-0.2,1.6-0.4
			c0.6-0.1,1.2-0.2,1.8-0.2c1.3,0,2.3,0.2,3.1,0.5c0.8,0.4,1.3,0.9,1.6,1.5c0.3,0.7,0.5,1.4,0.6,2.2c0.1,0.8,0.1,1.9,0.1,3.3v6.3
			c-0.8-0.3-1.4-0.6-1.8-0.7c-0.4-0.1-0.6-0.3-0.8-0.3c0-0.3-0.1-0.6-0.2-0.7c-0.4,0.2-0.8,0.4-1.2,0.7c-0.4,0.2-1,0.5-1.7,0.6
			c-0.7,0.2-1.6,0.3-2.5,0.3c-0.9,0-1.9-0.2-2.8-0.5c-0.9-0.3-1.6-0.8-2.2-1.5c-0.6-0.6-0.8-1.4-0.8-2.2c0-0.8,0.4-1.6,1.1-2.4
			c0.7-0.8,1.7-1.5,2.8-2.1c1.2-0.5,2.5-0.8,3.9-0.8c0.8,0,1.5,0.1,2.2,0.3c0.7,0.2,1.2,0.5,1.6,0.7v-1.5c-0.5-0.6-0.9-1-1.3-1.2
			c-0.4-0.2-1.1-0.3-1.9-0.3c-1.1,0-2,0.1-2.7,0.3c-0.7,0.1-1.4,0.4-2.1,0.7c-0.8,0.3-1.4,0.5-1.9,0.7v-1.2c0.1-0.1,0.2-0.2,0.3-0.3
			c0.1-0.1,0.2-0.2,0.3-0.3c0-0.1,0.1-0.1,0.1-0.1v-4.2H94v-2h16.3V56.7z M106.6,67c0-0.5-0.6-0.9-1.7-1.3c-1.1-0.3-1.9-0.5-2.4-0.5
			c-1.2,0-2.3,0.2-3.2,0.7c-1,0.5-1.7,1.1-2.3,1.7c-0.6,0.7-0.8,1.2-0.8,1.6c0.1,0.4,0.5,0.8,1,0.9c0.5,0.2,1.1,0.3,1.7,0.3
			c1.1,0,2.1-0.1,3.1-0.4c0.9-0.3,1.8-0.6,2.5-1.1c0.7-0.4,1.2-0.8,1.6-1.2C106.4,67.4,106.6,67.1,106.6,67z"/>
		<path class="st0" d="M126.2,56.7h-10.8v2.6c0.1,0,0.1,0,0.1,0.1c0,0,0.1,0.1,0.1,0.1c0,0,0.2-0.1,0.7-0.2c0.5-0.1,1-0.2,1.6-0.4
			c0.6-0.1,1.2-0.2,1.8-0.2c1.3,0,2.3,0.2,3.1,0.5c0.8,0.4,1.3,0.9,1.6,1.5c0.3,0.7,0.5,1.4,0.6,2.2c0.1,0.8,0.1,1.9,0.1,3.3v6.3
			c-0.8-0.3-1.4-0.6-1.8-0.7c-0.4-0.1-0.6-0.3-0.8-0.3c0-0.3-0.1-0.6-0.2-0.7c-0.4,0.2-0.8,0.4-1.2,0.7c-0.4,0.2-1,0.5-1.7,0.6
			c-0.7,0.2-1.6,0.3-2.6,0.3c-0.9,0-1.9-0.2-2.8-0.5c-0.9-0.3-1.6-0.8-2.2-1.5c-0.6-0.6-0.8-1.4-0.8-2.2c0-0.8,0.4-1.6,1.1-2.4
			c0.7-0.8,1.6-1.5,2.8-2.1c1.2-0.5,2.5-0.8,3.9-0.8c0.8,0,1.5,0.1,2.2,0.3c0.7,0.2,1.2,0.5,1.6,0.7v-1.5c-0.5-0.6-0.9-1-1.3-1.2
			c-0.4-0.2-1.1-0.3-1.9-0.3c-1.1,0-2,0.1-2.7,0.3c-0.7,0.1-1.4,0.4-2.1,0.7c-0.8,0.3-1.4,0.5-1.9,0.7v-1.2c0.1-0.1,0.2-0.2,0.3-0.3
			c0.1-0.1,0.2-0.2,0.3-0.3c0-0.1,0.1-0.1,0.1-0.1v-4.2h-3.3v-2h16.3V56.7z M122.4,67c0-0.5-0.6-0.9-1.7-1.3
			c-1.1-0.3-1.9-0.5-2.4-0.5c-1.2,0-2.3,0.2-3.2,0.7c-1,0.5-1.7,1.1-2.3,1.7c-0.6,0.7-0.8,1.2-0.8,1.6c0.1,0.4,0.5,0.8,1,0.9
			c0.5,0.2,1.1,0.3,1.7,0.3c1.1,0,2.1-0.1,3.1-0.4c0.9-0.3,1.8-0.6,2.5-1.1c0.7-0.4,1.2-0.8,1.6-1.2C122.2,67.4,122.4,67.1,122.4,67
			z"/>
	</g>
</g>
</svg>
